<svg xmlns="http://www.w3.org/2000/svg" xmlns:xlink="http://www.w3.org/1999/xlink" width="300pt" height="175pt" viewBox="0 0 150 74.999997" version="1.2">
<g id="surface1">
<path style="fill:none;stroke-width:5.231564;stroke-linecap:butt;stroke-linejoin:miter;stroke:rgb(100%,100%,100%);stroke-opacity:1;stroke-miterlimit:4;" d="M 6.005127 120.00698 C 5.257843 120.00698 4.625525 119.748304 4.165658 119.259696 C 3.705791 118.742345 3.475857 117.995061 3.475857 117.075327 C 3.475857 116.414268 3.619566 115.666984 3.906983 114.833474 L 37.678476 19.698461 C 38.109601 18.49131 38.626951 17.657801 39.201785 17.226675 C 39.776619 16.738066 40.667612 16.508133 41.846021 16.508133 L 69.351824 16.508133 C 70.444009 16.508133 71.449968 16.853033 72.340961 17.542834 C 73.231953 18.232634 73.893012 19.123627 74.352879 20.244553 L 107.836955 115.2646 C 108.009405 116.011884 108.09563 116.557976 108.09563 116.931618 C 108.09563 117.765127 107.92318 118.512411 107.549538 119.115987 C 107.204638 119.690821 106.629804 120.00698 105.88252 120.00698 L 78.549167 120.00698 C 76.939632 120.00698 75.933673 119.202212 75.473806 117.621419 L 70.012883 101.583553 C 69.754208 100.951235 69.495533 100.52011 69.236858 100.290176 C 69.006924 100.031501 68.575799 99.916534 67.943481 99.916534 L 38.339535 99.916534 C 37.24735 99.916534 36.557549 100.405143 36.270132 101.439844 L 30.550535 117.908836 C 29.975701 119.317179 28.883517 120.00698 27.216498 120.00698 Z M 60.959249 76.204635 C 61.99395 76.204635 62.482559 75.744768 62.482559 74.796292 C 62.482559 74.623842 62.396334 74.163975 62.223884 73.416691 L 53.831309 49.561083 C 53.658858 49.101216 53.371441 48.842541 52.997799 48.842541 C 52.624157 48.842541 52.365482 49.101216 52.16429 49.561083 L 43.656748 73.272982 C 43.484298 73.646624 43.398073 74.106491 43.398073 74.681325 C 43.398073 75.687285 43.944165 76.204635 45.065091 76.204635 Z M 209.525075 50.107175 C 209.525075 56.80399 207.91554 62.638555 204.69647 67.553385 C 201.506142 72.468215 196.993696 76.262118 191.187873 78.935096 C 185.382051 81.550591 178.713977 82.872709 171.154911 82.872709 L 152.070425 82.872709 C 150.949499 82.872709 150.374665 83.390059 150.374665 84.453502 L 150.374665 115.954401 C 150.374665 117.448969 150.001023 118.512411 149.253739 119.115987 C 148.506455 119.690821 147.356787 120.00698 145.804735 120.00698 L 122.32277 120.00698 C 120.943169 120.00698 119.994693 119.719563 119.477342 119.17347 C 118.959992 118.627378 118.701316 117.736386 118.701316 116.529234 L 118.701316 19.698461 C 118.701316 17.571575 119.592309 16.508133 121.374294 16.508133 L 167.562199 16.508133 C 175.351199 16.508133 182.450398 17.772767 188.802313 20.35952 C 195.182969 22.888789 200.212766 26.682693 203.920445 31.683748 C 207.656865 36.713545 209.525075 42.835526 209.525075 50.107175 Z M 177.161926 49.704791 C 177.161926 46.428238 176.041 43.812744 173.827889 41.800825 C 171.586037 39.817648 168.855576 38.811689 165.579022 38.811689 L 153.593735 38.811689 C 152.386584 38.811689 151.553075 39.041622 151.064466 39.530231 C 150.604599 39.990098 150.374665 40.708641 150.374665 41.743342 L 150.374665 57.493791 C 150.374665 58.614717 150.575857 59.419485 150.920757 59.879352 C 151.323141 60.339219 151.926717 60.569153 152.731484 60.569153 L 166.441273 60.569153 C 169.689085 60.569153 172.275837 59.534451 174.230273 57.436308 C 176.184708 55.338164 177.161926 52.780153 177.161926 49.704791 Z M 311.500612 50.107175 C 311.500612 56.80399 309.891077 62.638555 306.672007 67.553385 C 303.481679 72.468215 298.969233 76.262118 293.16341 78.935096 C 287.357588 81.550591 280.689514 82.872709 273.130448 82.872709 L 254.017221 82.872709 C 252.925036 82.872709 252.350202 83.390059 252.350202 84.453502 L 252.350202 115.954401 C 252.350202 117.448969 251.97656 118.512411 251.229276 119.115987 C 250.481992 119.690821 249.332324 120.00698 247.751531 120.00698 L 224.298307 120.00698 C 222.918706 120.00698 221.97023 119.719563 221.424137 119.17347 C 220.935529 118.627378 220.676853 117.736386 220.676853 116.529234 L 220.676853 19.698461 C 220.676853 17.571575 221.567846 16.508133 223.349831 16.508133 L 269.537736 16.508133 C 277.326736 16.508133 284.425935 17.772767 290.77785 20.35952 C 297.158506 22.888789 302.188303 26.682693 305.895982 31.683748 C 309.632402 36.713545 311.500612 42.835526 311.500612 50.107175 Z M 279.137463 49.704791 C 279.137463 46.428238 278.016537 43.812744 275.803426 41.800825 C 273.561574 39.817648 270.831113 38.811689 267.554559 38.811689 L 255.569272 38.811689 C 254.362121 38.811689 253.528612 39.041622 253.040003 39.530231 C 252.580136 39.990098 252.350202 40.708641 252.350202 41.743342 L 252.350202 57.493791 C 252.350202 58.614717 252.551394 59.419485 252.896294 59.879352 C 253.298678 60.339219 253.902254 60.569153 254.707021 60.569153 L 268.41681 60.569153 C 271.664622 60.569153 274.251374 59.534451 276.20581 57.436308 C 278.160245 55.338164 279.137463 52.780153 279.137463 49.704791 Z M 369.961222 121.386581 C 359.815403 121.386581 350.962961 119.230954 343.375153 114.919699 C 335.787345 110.579703 329.952781 104.457722 325.87146 96.496272 C 321.790139 88.563564 319.720737 79.222513 319.720737 68.530602 C 319.720737 57.838691 321.790139 48.468899 325.928944 40.449965 C 330.09649 32.373549 335.959796 26.136601 343.518862 21.739121 C 351.077928 17.3129 359.901628 15.09979 369.961222 15.09979 C 379.905849 15.09979 388.643324 17.3129 396.173648 21.739121 C 403.703973 26.136601 409.538537 32.373549 413.677341 40.449965 C 417.816145 48.468899 419.885548 57.838691 419.885548 68.530602 C 419.885548 79.136288 417.844887 88.448598 413.734825 96.438789 C 409.653504 104.42898 403.847681 110.579703 396.288615 114.919699 C 388.787033 119.230954 379.992074 121.386581 369.961222 121.386581 Z M 369.961222 99.629117 C 374.042543 99.629117 377.290354 98.623158 379.704657 96.639981 C 382.147701 94.628062 383.900944 91.408992 385.02187 86.954029 C 386.142797 82.499067 386.688889 76.492052 386.688889 68.961728 C 386.688889 57.407566 385.395512 49.129958 382.780018 44.128902 C 380.193266 39.099106 375.910753 36.598578 369.961222 36.598578 C 363.896724 36.598578 359.556728 39.099106 356.88375 44.128902 C 354.268256 49.129958 352.946138 57.407566 352.946138 68.961728 C 352.946138 76.492052 353.49223 82.499067 354.613156 86.954029 C 355.734082 91.408992 357.516067 94.628062 359.959112 96.639981 C 362.430897 98.623158 365.764934 99.629117 369.961222 99.629117 Z M 431.468451 19.698461 C 431.468451 18.692502 431.698385 17.887734 432.158252 17.341642 C 432.618119 16.79555 433.279178 16.508133 434.141429 16.508133 L 460.612531 16.508133 C 462.308291 16.508133 463.1418 17.48535 463.1418 19.439786 L 463.1418 95.174154 C 463.1418 95.921438 463.256767 96.438789 463.4867 96.697464 C 463.716634 96.984881 464.147759 97.099848 464.808818 97.099848 L 506.800436 97.099848 C 508.956063 97.099848 510.019506 97.990841 510.019506 99.772826 L 510.019506 116.931618 C 510.019506 117.851352 509.703347 118.627378 509.099772 119.17347 C 508.496196 119.719563 507.662687 120.00698 506.541761 120.00698 L 435.262355 120.00698 C 433.854012 120.00698 432.848052 119.719563 432.30196 119.17347 C 431.755868 118.627378 431.468451 117.736386 431.468451 116.529234 Z M 521.171284 19.698461 C 521.171284 18.692502 521.401217 17.887734 521.861085 17.341642 C 522.320952 16.79555 522.982011 16.508133 523.81552 16.508133 L 550.315364 16.508133 C 552.011124 16.508133 552.844633 17.48535 552.844633 19.439786 L 552.844633 95.174154 C 552.844633 95.921438 552.9596 96.438789 553.189533 96.697464 C 553.419467 96.984881 553.850592 97.099848 554.511651 97.099848 L 596.503269 97.099848 C 598.630154 97.099848 599.722339 97.990841 599.722339 99.772826 L 599.722339 116.931618 C 599.722339 117.851352 599.40618 118.627378 598.802605 119.17347 C 598.199029 119.719563 597.336778 120.00698 596.244594 120.00698 L 524.965188 120.00698 C 523.556845 120.00698 522.550885 119.719563 521.976051 119.17347 C 521.458701 118.627378 521.171284 117.736386 521.171284 116.529234 Z M 658.182948 121.386581 C 648.03713 121.386581 639.155946 119.230954 631.568138 114.919699 C 623.98033 110.579703 618.145766 104.457722 614.064445 96.496272 C 609.983124 88.563564 607.942464 79.222513 607.942464 68.530602 C 607.942464 57.838691 610.011866 48.468899 614.15067 40.449965 C 618.289474 32.373549 624.15278 26.136601 631.711846 21.739121 C 639.299654 17.3129 648.123355 15.09979 658.182948 15.09979 C 668.127575 15.09979 676.865051 17.3129 684.366633 21.739121 C 691.896958 26.136601 697.731522 32.373549 701.870326 40.449965 C 706.037872 48.468899 708.107274 57.838691 708.107274 68.530602 C 708.107274 79.136288 706.037872 88.448598 701.927809 96.438789 C 697.846489 104.42898 692.040666 110.579703 684.510342 114.919699 C 676.980017 119.230954 668.2138 121.386581 658.182948 121.386581 Z M 658.182948 99.629117 C 662.264269 99.629117 665.512081 98.623158 667.926383 96.639981 C 670.340686 94.628062 672.122671 91.408992 673.243597 86.954029 C 674.335781 82.499067 674.910615 76.492052 674.910615 68.961728 C 674.910615 57.407566 673.588497 49.129958 670.973003 44.128902 C 668.38625 39.099106 664.132479 36.598578 658.182948 36.598578 C 652.11845 36.598578 647.749713 39.099106 645.105477 44.128902 C 642.461241 49.129958 641.139123 57.407566 641.139123 68.961728 C 641.139123 76.492052 641.713956 82.499067 642.806141 86.954029 C 643.927067 91.408992 645.709052 94.628062 648.152096 96.639981 C 650.623882 98.623158 653.986661 99.629117 658.182948 99.629117 Z M 658.182948 99.629117 " transform="matrix(0.135909,0,0,0.135909,26.570569,4.705618)"/>
<path style="fill:none;stroke-width:5.231564;stroke-linecap:butt;stroke-linejoin:miter;stroke:rgb(100%,100%,100%);stroke-opacity:1;stroke-miterlimit:4;" d="M 302.964329 156.049066 C 304.430155 156.049066 305.148698 156.853834 305.148698 158.520852 L 305.148698 262.335858 C 305.148698 263.140625 304.832539 263.772943 304.17148 264.290293 C 303.567904 264.75016 302.763137 265.008835 301.785919 265.008835 L 281.666732 265.008835 C 280.775739 265.008835 280.057197 264.865127 279.511105 264.57771 C 278.993754 264.261551 278.390179 263.686717 277.700378 262.824467 L 237.318295 208.014052 C 236.915911 207.525444 236.571011 207.324252 236.283594 207.410477 C 235.996177 207.525444 235.852469 207.812861 235.852469 208.301469 L 235.852469 261.761024 C 235.938694 262.939433 235.70876 263.772943 235.162668 264.290293 C 234.645317 264.75016 233.696842 265.008835 232.288498 265.008835 L 212.31302 265.008835 C 209.898717 265.008835 208.662824 264.031618 208.662824 262.048441 L 208.662824 159.411845 C 208.662824 157.169992 209.755009 156.049066 211.881894 156.049066 L 235.852469 156.049066 C 237.117103 156.049066 238.065579 156.192775 238.669155 156.537675 C 239.330214 156.882575 240.048756 157.601118 240.824782 158.693302 L 276.062101 207.726636 C 276.665677 208.588886 277.211769 209.020012 277.700378 209.020012 C 278.188987 209.020012 278.447662 208.387695 278.447662 207.12306 L 278.447662 159.124428 C 278.447662 157.055026 279.511105 156.049066 281.666732 156.049066 Z M 320.43928 159.411845 C 320.43928 158.31966 320.669213 157.514893 321.157822 156.940059 C 321.646431 156.336483 322.336232 156.049066 323.227224 156.049066 L 401.490862 156.049066 C 403.272847 156.049066 404.135098 157.055026 404.135098 159.124428 L 403.99139 176.139512 C 403.99139 178.812489 402.784238 180.134607 400.312453 180.134607 L 357.142425 180.134607 C 354.900573 180.134607 353.779647 181.054342 353.779647 182.89381 L 353.779647 196.689824 C 353.779647 198.64426 354.67064 199.650219 356.423883 199.650219 L 383.268627 199.650219 C 385.251804 199.650219 386.229022 200.627437 386.229022 202.581872 L 386.229022 220.51669 C 386.229022 222.183709 385.338029 223.017218 383.556044 223.017218 L 356.107724 223.017218 C 355.446665 223.017218 354.871831 223.21841 354.411964 223.592052 C 353.980839 223.965694 353.779647 224.511786 353.779647 225.201587 L 353.779647 260.726323 C 353.779647 262.307116 353.377263 263.428042 352.601237 264.060359 C 351.79647 264.692677 350.589319 265.008835 348.9223 265.008835 L 324.405634 265.008835 C 322.939807 265.008835 321.876365 264.721418 321.301531 264.146585 C 320.726697 263.543009 320.43928 262.623275 320.43928 261.329898 Z M 412.383965 159.411845 C 412.383965 158.434627 412.671382 157.62986 413.303699 156.997542 C 413.964758 156.365225 414.855751 156.049066 416.03416 156.049066 L 503.840041 156.049066 C 505.047192 156.049066 505.938185 156.365225 506.570502 156.997542 C 507.20282 157.62986 507.518978 158.434627 507.518978 159.411845 L 507.518978 176.858054 C 507.518978 178.726264 506.455536 179.67474 504.299908 179.67474 L 478.317415 179.67474 C 477.139006 179.67474 476.564172 180.163349 476.564172 181.140567 L 476.564172 261.761024 C 476.564172 262.853208 476.305497 263.657976 475.788146 264.204068 C 475.328279 264.75016 474.638478 265.008835 473.747486 265.008835 L 445.868041 265.008835 C 444.086055 265.008835 443.195063 264.031618 443.195063 262.048441 L 443.195063 181.744142 C 443.195063 180.364541 442.677712 179.67474 441.585528 179.67474 L 415.746743 179.67474 C 413.504891 179.67474 412.383965 178.726264 412.383965 176.858054 Z M 412.383965 159.411845 " transform="matrix(0.135909,0,0,0.135909,26.570569,4.705618)"/>
<path style="fill:none;stroke-width:5.231564;stroke-linecap:butt;stroke-linejoin:miter;stroke:rgb(100%,100%,100%);stroke-opacity:1;stroke-miterlimit:4;" d="M 25.434513 410.987909 C 24.256104 410.987909 23.336369 410.643009 22.646569 409.924466 C 21.98551 409.177182 21.640609 408.171223 21.640609 406.877846 L 21.640609 305.41966 C 21.640609 304.24125 21.870543 303.378999 22.359152 302.861649 C 22.84776 302.315557 23.652528 302.02814 24.715971 302.02814 L 65.845337 302.02814 C 67.109972 302.02814 68.000965 302.20059 68.547057 302.54549 C 69.093149 302.861649 69.553016 303.580191 69.9554 304.701117 L 85.245982 351.377632 C 85.533399 352.153657 85.8783 352.556041 86.251942 352.556041 C 86.5681 352.556041 86.855517 352.153657 87.142934 351.377632 L 100.79524 306.310652 C 101.571265 303.465225 102.893383 302.02814 104.761594 302.02814 L 147.213079 302.02814 C 148.966322 302.02814 149.857315 303.062841 149.857315 305.132243 L 149.857315 406.734138 C 149.857315 408.314931 149.483673 409.435857 148.736388 410.068175 C 147.989104 410.700492 146.810695 410.987909 145.143676 410.987909 L 120.310851 410.987909 C 118.845025 410.987909 117.839065 410.700492 117.292973 410.125658 C 116.775623 409.550824 116.516947 408.602348 116.516947 407.337714 L 116.516947 341.375521 C 116.516947 340.599496 116.315755 340.225854 115.942113 340.225854 C 115.424763 340.225854 115.051121 340.656979 114.763704 341.547972 L 93.609816 408.343673 C 92.891273 410.125658 91.741605 410.987909 90.074587 410.987909 L 74.669038 410.987909 C 72.887053 410.987909 71.708643 410.125658 71.105068 408.343673 L 50.008663 342.697639 C 49.692504 341.720422 49.347604 341.231813 48.94522 341.231813 C 48.456611 341.231813 48.197936 341.777905 48.197936 342.841348 L 48.197936 407.768839 C 48.197936 409.033474 48.025486 409.895724 47.623102 410.355592 C 47.24946 410.786717 46.358468 410.987909 44.978866 410.987909 Z M 163.797037 410.987909 C 162.99227 410.987909 162.359952 410.729234 161.842602 410.211883 C 161.382735 409.665791 161.152801 408.889765 161.152801 407.912547 C 161.152801 407.222747 161.29651 406.446721 161.612668 405.555728 L 197.137404 305.41966 C 197.626013 304.155025 198.143364 303.264033 198.746939 302.804166 C 199.350515 302.286815 200.270249 302.02814 201.534884 302.02814 L 230.477772 302.02814 C 231.656181 302.02814 232.690882 302.401782 233.639358 303.149066 C 234.559092 303.867608 235.277635 304.816084 235.766244 305.994494 L 271.003563 406.015596 C 271.176013 406.791621 271.29098 407.395197 271.29098 407.768839 C 271.29098 408.659832 271.089788 409.435857 270.716146 410.068175 C 270.313762 410.700492 269.738928 410.987909 268.962902 410.987909 L 240.163723 410.987909 C 238.496705 410.987909 237.40452 410.1544 236.944653 408.487381 L 231.196314 391.616006 C 230.908897 390.926205 230.650222 390.466338 230.362805 390.236404 C 230.132871 389.977729 229.673004 389.834021 229.011945 389.834021 L 197.855947 389.834021 C 196.677537 389.834021 195.958995 390.380113 195.671578 391.472297 L 189.635822 408.80354 C 189.032246 410.269367 187.882578 410.987909 186.129335 410.987909 Z M 221.654071 364.886229 C 222.746255 364.886229 223.263606 364.39762 223.263606 363.420402 C 223.263606 363.21921 223.177381 362.730601 222.976189 361.954576 L 214.18123 336.863075 C 213.980038 336.345725 213.663879 336.087049 213.261496 336.087049 C 212.887854 336.087049 212.600437 336.345725 212.399245 336.863075 L 203.460577 361.810867 C 203.259386 362.184509 203.17316 362.673118 203.17316 363.276694 C 203.17316 364.340136 203.747994 364.886229 204.926404 364.886229 Z M 377.750221 406.303012 C 377.951413 406.676655 378.037638 407.222747 378.037638 407.912547 C 378.037638 408.80354 377.778963 409.550824 377.232871 410.125658 C 376.686779 410.700492 375.996978 410.987909 375.134727 410.987909 L 346.651706 410.987909 C 344.582304 410.987909 343.260186 409.98195 342.656611 407.912547 L 328.860597 370.030992 C 328.57318 369.226225 328.084571 368.651391 327.39477 368.249007 C 326.704969 367.875365 325.69901 367.674173 324.290667 367.674173 L 317.56511 367.674173 C 316.961535 367.674173 316.530409 367.875365 316.242992 368.249007 C 315.955575 368.651391 315.811867 368.996291 315.811867 369.31245 L 315.811867 406.734138 C 315.811867 408.314931 315.409483 409.435857 314.633457 410.068175 C 313.82869 410.700492 312.621538 410.987909 310.95452 410.987909 L 286.265403 410.987909 C 284.799577 410.987909 283.793617 410.700492 283.247525 410.125658 C 282.730175 409.550824 282.471499 408.602348 282.471499 407.337714 L 282.471499 305.41966 C 282.471499 303.149066 283.391234 302.02814 285.259444 302.02814 L 334.292777 302.02814 C 348.491175 302.02814 359.499244 304.758601 367.316986 310.190781 C 375.163469 315.59422 379.101081 323.268253 379.101081 333.155396 C 379.101081 339.938437 377.290354 345.945451 373.697642 351.233923 C 370.133672 356.522395 365.535001 360.230074 359.872887 362.385701 C 359.269311 362.70186 358.981894 363.190469 358.981894 363.851528 C 358.981894 364.138945 359.068119 364.57007 359.269311 365.173646 Z M 332.970659 345.773001 C 336.70708 345.773001 339.581249 344.824525 341.593168 342.956315 C 343.605087 341.030621 344.582304 338.443868 344.582304 335.196057 C 344.582304 331.603345 343.375153 328.786659 340.960851 326.77474 C 338.57529 324.762821 335.614895 323.756862 332.079667 323.756862 L 319.174645 323.756862 C 317.910011 323.756862 317.019018 323.986795 316.530409 324.446663 C 316.0418 324.877788 315.811867 325.625072 315.811867 326.717257 L 315.811867 342.697639 C 315.811867 343.761082 315.984317 344.56585 316.300476 345.054459 C 316.645376 345.543067 317.306435 345.773001 318.283653 345.773001 Z M 492.774488 406.446721 C 493.14813 407.222747 493.349322 408.027514 493.349322 408.80354 C 493.349322 410.269367 492.45833 410.987909 490.705086 410.987909 L 462.049615 410.987909 C 459.434121 410.987909 457.652136 410.010691 456.789885 408.056256 L 438.855067 367.214306 C 438.481425 366.639472 438.079041 366.352055 437.705399 366.352055 C 437.21679 366.352055 436.498248 366.898147 435.635997 367.96159 L 425.202761 381.35522 C 424.627927 382.016279 424.34051 383.079722 424.34051 384.57429 L 424.34051 406.734138 C 424.34051 408.314931 423.938127 409.435857 423.162101 410.068175 C 422.357333 410.700492 421.150182 410.987909 419.483164 410.987909 L 394.966497 410.987909 C 393.500671 410.987909 392.437228 410.700492 391.862394 410.125658 C 391.28756 409.550824 391.000143 408.602348 391.000143 407.337714 L 391.000143 305.41966 C 391.000143 304.327475 391.230077 303.493966 391.718686 302.947874 C 392.207294 302.344298 392.897095 302.02814 393.788088 302.02814 L 421.667533 302.02814 C 423.449518 302.02814 424.34051 303.062841 424.34051 305.132243 L 424.34051 342.266514 C 424.34051 343.444924 424.570444 344.019757 425.059053 344.019757 C 425.461437 344.019757 425.950045 343.674857 426.524879 343.013798 L 453.542073 305.132243 C 454.433066 303.953833 455.295317 303.149066 456.100084 302.71794 C 456.933594 302.258073 458.198228 302.02814 459.865247 302.02814 L 482.197544 302.02814 C 483.375954 302.02814 484.295688 302.258073 484.956747 302.71794 C 485.646548 303.149066 485.991448 303.752642 485.991448 304.499926 C 485.991448 305.218468 485.761515 305.793302 485.272906 306.310652 L 461.187365 335.799632 C 460.497564 336.6044 460.152663 337.437909 460.152663 338.30016 C 460.152663 338.989961 460.353855 339.708503 460.756239 340.513271 Z M 504.357392 305.41966 C 504.357392 303.149066 505.305868 302.02814 507.174078 302.02814 L 586.472417 302.02814 C 588.22566 302.02814 589.087911 303.062841 589.087911 305.132243 L 588.944203 322.147327 C 588.944203 324.791563 587.679568 326.142423 585.150299 326.142423 L 541.089279 326.142423 C 538.818685 326.142423 537.697759 327.062157 537.697759 328.901625 L 537.697759 341.375521 C 537.697759 342.352739 537.956434 343.128765 538.416301 343.674857 C 538.933652 344.220949 539.565969 344.479625 540.370737 344.479625 L 566.784355 344.479625 C 568.853757 344.479625 569.859717 345.456842 569.859717 347.382536 L 569.859717 365.604771 C 569.859717 367.271789 568.997466 368.105299 567.215481 368.105299 L 540.025836 368.105299 C 539.364777 368.105299 538.818685 368.335232 538.358818 368.737616 C 537.927693 369.111258 537.697759 369.599867 537.697759 370.174701 L 537.697759 384.861707 C 537.697759 385.637733 537.841468 386.183825 538.071401 386.471242 C 538.301335 386.758659 538.761202 386.902368 539.479744 386.902368 L 587.190959 386.902368 C 589.346587 386.902368 590.410029 387.850844 590.410029 389.690312 L 590.410029 407.768839 C 590.410029 408.746057 590.122612 409.550824 589.519037 410.125658 C 588.944203 410.700492 588.081952 410.987909 586.903542 410.987909 L 508.352488 410.987909 C 506.857919 410.987909 505.823218 410.700492 505.219643 410.125658 C 504.644809 409.550824 504.357392 408.602348 504.357392 407.337714 Z M 599.40618 305.41966 C 599.40618 304.442442 599.693597 303.637675 600.325914 303.005357 C 600.958232 302.37304 601.877966 302.02814 603.056375 302.02814 L 690.862256 302.02814 C 692.040666 302.02814 692.9604 302.37304 693.592718 303.005357 C 694.225035 303.637675 694.541194 304.442442 694.541194 305.41966 L 694.541194 322.865869 C 694.541194 324.73408 693.477751 325.653814 691.322124 325.653814 L 665.339631 325.653814 C 664.161221 325.653814 663.586387 326.142423 663.586387 327.148382 L 663.586387 407.768839 C 663.586387 408.861023 663.327712 409.665791 662.810361 410.211883 C 662.350494 410.729234 661.660693 410.987909 660.769701 410.987909 L 632.890256 410.987909 C 631.108271 410.987909 630.217278 410.010691 630.217278 408.056256 L 630.217278 327.751958 C 630.217278 326.372356 629.699928 325.653814 628.607743 325.653814 L 602.768959 325.653814 C 600.527106 325.653814 599.40618 324.73408 599.40618 322.865869 Z M 599.40618 305.41966 " transform="matrix(0.135909,0,0,0.135909,26.570569,4.705618)"/>
</g>
</svg>
