<svg xmlns="http://www.w3.org/2000/svg" xmlns:xlink="http://www.w3.org/1999/xlink" width="200pt" height="150pt" viewBox="0 0 150 37.5" version="1.2">
<g id="surface1">
<path style="fill:none;stroke-width:0.974009;stroke-linecap:butt;stroke-linejoin:miter;stroke:rgb(100%,100%,100%);stroke-opacity:1;stroke-miterlimit:4;" d="M 30.957024 2.729587 C 31.268413 2.729587 31.426747 2.835142 31.426747 3.040975 C 31.426747 3.093753 31.389802 3.188753 31.321191 3.325975 L 25.241191 13.142643 C 25.12508 13.316809 25.051191 13.506809 25.019524 13.71792 C 24.993135 13.929031 24.98258 14.309031 24.98258 14.863198 L 24.98258 21.244032 C 24.98258 21.523754 24.913969 21.719032 24.771469 21.835143 C 24.639524 21.945976 24.423135 21.998754 24.12758 21.998754 L 19.762857 21.998754 C 19.509524 21.998754 19.33008 21.951254 19.229802 21.845698 C 19.134802 21.740143 19.087302 21.576532 19.087302 21.354865 L 19.087302 14.520143 C 19.087302 14.277365 19.060913 14.082087 19.008135 13.934309 C 18.960635 13.786531 18.865635 13.601809 18.723135 13.374865 L 12.648413 3.452642 C 12.579801 3.336531 12.542857 3.225698 12.542857 3.120142 C 12.542857 2.861531 12.732857 2.729587 13.112857 2.729587 L 18.337857 2.729587 C 18.580635 2.729587 18.754802 2.766531 18.865635 2.84042 C 18.976468 2.909031 19.097857 3.051531 19.219246 3.278475 L 22.41758 9.041809 C 22.502024 9.215976 22.570635 9.30042 22.623413 9.30042 C 22.707857 9.30042 22.787024 9.221253 22.850357 9.068198 L 25.995913 3.278475 C 26.101469 3.051531 26.21758 2.909031 26.333691 2.84042 C 26.45508 2.766531 26.639802 2.729587 26.877302 2.729587 Z M 42.17758 22.257365 C 40.288136 22.257365 38.641469 21.856254 37.227025 21.054032 C 35.817858 20.246532 34.730636 19.106532 33.970636 17.623476 C 33.205358 16.145698 32.825358 14.409309 32.825358 12.419587 C 32.825358 10.429865 33.210636 8.68292 33.981191 7.189309 C 34.757025 5.69042 35.844247 4.529309 37.253414 3.705975 C 38.66258 2.882642 40.303969 2.470975 42.17758 2.470975 C 44.030081 2.470975 45.655636 2.882642 47.054247 3.705975 C 48.458136 4.529309 49.545359 5.69042 50.315914 7.189309 C 51.08647 8.68292 51.471748 10.429865 51.471748 12.419587 C 51.471748 14.393476 51.091748 16.124587 50.32647 17.612921 C 49.56647 19.101254 48.484525 20.246532 47.080636 21.054032 C 45.682025 21.856254 44.045914 22.257365 42.17758 22.257365 Z M 42.17758 18.209309 C 42.937581 18.209309 43.544525 18.024587 43.993136 17.649865 C 44.447025 17.28042 44.774247 16.678754 44.980081 15.850143 C 45.185914 15.016254 45.29147 13.897365 45.29147 12.493476 C 45.29147 10.350698 45.048692 8.809587 44.563136 7.87542 C 44.082858 6.941253 43.285914 6.471531 42.17758 6.471531 C 41.048136 6.471531 40.240636 6.941253 39.744525 7.87542 C 39.253691 8.809587 39.010914 10.350698 39.010914 12.493476 C 39.010914 13.897365 39.111191 15.016254 39.317025 15.850143 C 39.528136 16.678754 39.860636 17.28042 40.314525 17.649865 C 40.773692 18.024587 41.396469 18.209309 42.17758 18.209309 Z M 70.044248 14.393476 C 70.044248 17.23292 69.326471 19.254309 67.885637 20.457643 C 66.450082 21.660976 64.397026 22.257365 61.731748 22.257365 C 58.73397 22.257365 56.601748 21.571254 55.324525 20.188476 C 54.052581 18.800421 53.419248 16.694587 53.419248 13.870976 L 53.419248 3.325975 C 53.419248 3.135975 53.46147 2.993475 53.545914 2.88792 C 53.635637 2.782364 53.757025 2.729587 53.915359 2.729587 L 58.844803 2.729587 C 59.156192 2.729587 59.314526 2.914309 59.314526 3.278475 L 59.314526 14.493754 C 59.314526 15.776254 59.562581 16.699865 60.048137 17.275143 C 60.544248 17.845143 61.25147 18.130143 62.175081 18.130143 C 63.077581 18.130143 63.800637 17.845143 64.354804 17.275143 C 64.90897 16.699865 65.188693 15.749865 65.188693 14.414587 L 65.188693 3.325975 C 65.188693 2.930142 65.352304 2.729587 65.679526 2.729587 L 69.574526 2.729587 C 69.885915 2.729587 70.044248 2.914309 70.044248 3.278475 Z M 89.387305 21.170143 C 89.418971 21.238754 89.434805 21.333754 89.434805 21.455143 C 89.434805 21.613476 89.387305 21.740143 89.292305 21.845698 C 89.197305 21.951254 89.075916 21.998754 88.92286 21.998754 L 83.882582 21.998754 C 83.518416 21.998754 83.286193 21.81931 83.180638 21.455143 L 80.737027 14.752365 C 80.684249 14.615143 80.599804 14.509587 80.478415 14.440976 C 80.357027 14.372365 80.177582 14.340698 79.934804 14.340698 L 78.742026 14.340698 C 78.636471 14.340698 78.557304 14.372365 78.504526 14.440976 C 78.457026 14.509587 78.430638 14.57292 78.430638 14.625698 L 78.430638 21.244032 C 78.430638 21.523754 78.362026 21.719032 78.219526 21.835143 C 78.082304 21.945976 77.865915 21.998754 77.575638 21.998754 L 73.205637 21.998754 C 72.947026 21.998754 72.767582 21.951254 72.672582 21.845698 C 72.577582 21.740143 72.53536 21.576532 72.53536 21.354865 L 72.53536 3.325975 C 72.53536 2.930142 72.698971 2.729587 73.026193 2.729587 L 81.70286 2.729587 C 84.209804 2.729587 86.157305 3.209864 87.540082 4.17042 C 88.928138 5.130976 89.619527 6.487364 89.619527 8.234309 C 89.619527 9.432365 89.30286 10.498476 88.669527 11.432642 C 88.041471 12.366809 87.223416 13.021254 86.220638 13.401254 C 86.115082 13.459309 86.062305 13.543754 86.062305 13.659865 C 86.062305 13.712643 86.078138 13.791809 86.115082 13.897365 Z M 81.46536 10.466809 C 82.125082 10.466809 82.631749 10.29792 82.990638 9.96542 C 83.344249 9.627642 83.518416 9.173753 83.518416 8.598476 C 83.518416 7.959865 83.307304 7.463753 82.879804 7.104865 C 82.457582 6.751253 81.935082 6.571809 81.307027 6.571809 L 79.027026 6.571809 C 78.800082 6.571809 78.647026 6.614031 78.557304 6.693198 C 78.47286 6.772365 78.430638 6.904309 78.430638 7.094309 L 78.430638 9.923198 C 78.430638 10.113198 78.457026 10.25042 78.52036 10.340142 C 78.578415 10.424587 78.694526 10.466809 78.868693 10.466809 Z M 113.591195 2.729587 C 113.849806 2.729587 113.98175 2.877364 113.98175 3.167642 L 113.98175 21.529032 C 113.98175 21.671532 113.923695 21.782365 113.807583 21.872087 C 113.69675 21.956532 113.559528 21.998754 113.385361 21.998754 L 109.828139 21.998754 C 109.669806 21.998754 109.543139 21.972365 109.448139 21.924865 C 109.353139 21.86681 109.247583 21.766532 109.120917 21.613476 L 101.985361 11.923476 C 101.911472 11.839031 101.848139 11.802087 101.800639 11.81792 C 101.747861 11.833754 101.721472 11.886531 101.721472 11.976254 L 101.721472 21.428754 C 101.742583 21.634587 101.700361 21.782365 101.605361 21.872087 C 101.510361 21.956532 101.341472 21.998754 101.098694 21.998754 L 97.562583 21.998754 C 97.135083 21.998754 96.918694 21.824587 96.918694 21.481532 L 96.918694 3.325975 C 96.918694 2.930142 97.108694 2.729587 97.488694 2.729587 L 101.721472 2.729587 C 101.948416 2.729587 102.117305 2.761253 102.222861 2.819309 C 102.338972 2.877364 102.465639 3.004031 102.602861 3.199309 L 108.835917 11.875976 C 108.941472 12.029031 109.036472 12.10292 109.120917 12.10292 C 109.210639 12.10292 109.258139 11.992087 109.258139 11.765142 L 109.258139 3.278475 C 109.258139 2.914309 109.448139 2.729587 109.828139 2.729587 Z M 116.678695 3.325975 C 116.678695 3.135975 116.720917 2.993475 116.805361 2.88792 C 116.895084 2.782364 117.016472 2.729587 117.174806 2.729587 L 131.01314 2.729587 C 131.329806 2.729587 131.482862 2.914309 131.482862 3.278475 L 131.461751 6.286809 C 131.461751 6.756531 131.240084 6.994031 130.807306 6.994031 L 123.170362 6.994031 C 122.774528 6.994031 122.573973 7.157642 122.573973 7.479587 L 122.573973 9.923198 C 122.573973 10.266254 122.732306 10.44042 123.043695 10.44042 L 127.793695 10.44042 C 128.142029 10.44042 128.316195 10.614587 128.316195 10.96292 L 128.316195 14.129587 C 128.316195 14.425143 128.157862 14.57292 127.846473 14.57292 L 122.990917 14.57292 C 122.869528 14.57292 122.769251 14.609865 122.690084 14.678476 C 122.616195 14.747087 122.573973 14.842087 122.573973 14.963476 L 122.573973 21.244032 C 122.573973 21.523754 122.505362 21.719032 122.368139 21.835143 C 122.225639 21.945976 122.014528 21.998754 121.718973 21.998754 L 117.385917 21.998754 C 117.122028 21.998754 116.937306 21.951254 116.83175 21.845698 C 116.731472 21.740143 116.678695 21.576532 116.678695 21.354865 Z M 132.939529 3.325975 C 132.939529 3.151809 132.992306 3.014587 133.10314 2.903753 C 133.219251 2.787642 133.377584 2.729587 133.583418 2.729587 L 149.110641 2.729587 C 149.321752 2.729587 149.485363 2.787642 149.596196 2.903753 C 149.707029 3.014587 149.765085 3.151809 149.765085 3.325975 L 149.765085 6.413476 C 149.765085 6.745976 149.575085 6.909587 149.195085 6.909587 L 144.59814 6.909587 C 144.392307 6.909587 144.286751 6.994031 144.286751 7.168198 L 144.286751 21.428754 C 144.286751 21.618754 144.244529 21.761254 144.154807 21.861532 C 144.070363 21.951254 143.948974 21.998754 143.79064 21.998754 L 138.861196 21.998754 C 138.549807 21.998754 138.391473 21.824587 138.391473 21.481532 L 138.391473 7.279031 C 138.391473 7.030976 138.296473 6.909587 138.106473 6.909587 L 133.535918 6.909587 C 133.134807 6.909587 132.939529 6.745976 132.939529 6.413476 Z M 163.318419 7.896531 C 162.901474 7.44792 162.458141 7.099587 161.977863 6.856809 C 161.508141 6.619309 160.82203 6.49792 159.91953 6.49792 C 159.01703 6.49792 158.35203 6.629864 157.913974 6.888476 C 157.486474 7.147087 157.270085 7.458476 157.270085 7.822642 C 157.270085 8.44542 157.824252 8.883476 158.932585 9.142087 L 163.239252 10.266254 C 164.817308 10.662087 166.004808 11.358754 166.796475 12.356254 C 167.598697 13.348476 167.99453 14.541254 167.99453 15.924032 C 167.99453 17.206532 167.656752 18.320143 166.981197 19.275421 C 166.305641 20.225421 165.339808 20.959032 164.083697 21.481532 C 162.827586 21.998754 161.360363 22.257365 159.687308 22.257365 C 157.776752 22.257365 156.040363 21.945976 154.472863 21.312643 C 152.910641 20.67931 151.823418 19.850698 151.221752 18.832087 C 151.132029 18.657921 151.089807 18.525976 151.089807 18.441532 C 151.089807 18.267365 151.184807 18.114309 151.374807 17.971809 L 154.050641 16.129865 C 154.240641 16.008476 154.40953 15.95042 154.567863 15.95042 C 154.757863 15.95042 154.916196 16.029587 155.037585 16.177365 C 155.623419 16.942643 156.219807 17.480976 156.826752 17.797643 C 157.433696 18.103754 158.241196 18.256809 159.238696 18.256809 C 160.215085 18.256809 160.980363 18.124865 161.545085 17.860976 C 162.10453 17.591809 162.384252 17.222365 162.384252 16.75792 C 162.384252 16.42542 162.24703 16.14042 161.967308 15.90292 C 161.692863 15.654865 161.286474 15.470143 160.748141 15.348754 L 156.800363 14.393476 C 155.243419 14.013476 154.008418 13.295698 153.090085 12.250698 C 152.171752 11.20042 151.712585 9.991809 151.712585 8.630142 C 151.712585 7.500698 152.045085 6.466253 152.69953 5.521531 C 153.359252 4.576809 154.293418 3.832642 155.50203 3.289031 C 156.715919 2.74542 158.11453 2.470975 159.708419 2.470975 C 161.270641 2.470975 162.716752 2.729587 164.046752 3.241531 C 165.376752 3.748198 166.342586 4.423753 166.933697 5.273476 C 167.049808 5.431809 167.107863 5.579587 167.107863 5.716809 C 167.107863 5.838198 167.049808 5.949031 166.933697 6.054587 L 164.09953 8.107642 C 164.015086 8.176253 163.920086 8.20792 163.81453 8.20792 C 163.693141 8.20792 163.52953 8.107642 163.318419 7.896531 Z M 163.318419 7.896531 " transform="matrix(0.740132,0,0,0.740132,8.154136,7.991466)"/>
</g>
</svg>
