<?xml version="1.0" encoding="UTF-8"?>
<svg xmlns="http://www.w3.org/2000/svg" xmlns:xlink="http://www.w3.org/1999/xlink" width="24pt" height="24pt" viewBox="0 0 30 30.000001" version="1.2">
<defs>
<clipPath id="clip1">
  <path d="M 1 18 L 2 18 L 2 29 L 1 29 Z M 1 18 "/>
</clipPath>
<clipPath id="clip2">
  <path d="M 1.390625 9.039062 L 21.8125 1.480469 L 29.121094 21.21875 L 8.699219 28.777344 Z M 1.390625 9.039062 "/>
</clipPath>
<clipPath id="clip3">
  <path d="M -24.378906 18.324219 L 21.90625 1.1875 L 29.464844 21.609375 L -16.820312 38.746094 Z M -24.378906 18.324219 "/>
</clipPath>
<clipPath id="clip4">
  <path d="M 5 3 L 24 3 L 24 28 L 5 28 Z M 5 3 "/>
</clipPath>
<clipPath id="clip5">
  <path d="M 1.390625 9.039062 L 21.8125 1.480469 L 29.121094 21.21875 L 8.699219 28.777344 Z M 1.390625 9.039062 "/>
</clipPath>
<clipPath id="clip6">
  <path d="M -24.378906 18.324219 L 21.90625 1.1875 L 29.464844 21.609375 L -16.820312 38.746094 Z M -24.378906 18.324219 "/>
</clipPath>
</defs>
<g id="surface1">
<path style=" stroke:none;fill-rule:nonzero;fill:rgb(100%,100%,100%);fill-opacity:1;" d="M 14.988281 28.101562 C 11.359375 28.101562 7.941406 26.691406 5.375 24.121094 C 2.804688 21.554688 1.390625 18.136719 1.390625 14.503906 C 1.390625 10.875 2.804688 7.457031 5.375 4.890625 C 7.941406 2.320312 11.359375 0.90625 14.988281 0.90625 C 18.621094 0.90625 22.039062 2.320312 24.601562 4.890625 C 27.175781 7.460938 28.585938 10.875 28.585938 14.503906 C 28.585938 18.136719 27.175781 21.554688 24.601562 24.121094 C 22.039062 26.691406 18.621094 28.101562 14.988281 28.101562 Z M 14.988281 1.722656 C 11.574219 1.722656 8.363281 3.054688 5.949219 5.46875 C 3.539062 7.878906 2.207031 11.09375 2.207031 14.503906 C 2.207031 17.917969 3.539062 21.128906 5.949219 23.542969 C 8.363281 25.957031 11.574219 27.289062 14.988281 27.289062 C 18.402344 27.289062 21.613281 25.957031 24.027344 23.542969 C 26.441406 21.128906 27.773438 17.917969 27.773438 14.503906 C 27.773438 11.09375 26.441406 7.878906 24.027344 5.46875 C 21.613281 3.054688 18.402344 1.722656 14.988281 1.722656 Z M 14.988281 1.722656 "/>
<g clip-path="url(#clip1)" clip-rule="nonzero">
<g clip-path="url(#clip2)" clip-rule="nonzero">
<g clip-path="url(#clip3)" clip-rule="nonzero">
<path style=" stroke:none;fill-rule:nonzero;fill:rgb(100%,100%,100%);fill-opacity:1;" d="M -2.65625 20.46875 C -3.996094 20.035156 -5.414062 20.25 -6.785156 20.453125 C -7.574219 20.570312 -8.390625 20.691406 -9.167969 20.683594 C -11.484375 20.660156 -13.371094 20.378906 -15.105469 19.800781 C -15.601562 19.636719 -16.15625 19.375 -16.746094 19.097656 C -18.554688 18.246094 -21.03125 17.082031 -22.261719 19.246094 C -22.964844 20.480469 -23 21.90625 -22.351562 23.054688 C -21.746094 24.128906 -20.597656 25.167969 -19.207031 25.898438 C -18.058594 26.503906 -16.796875 26.890625 -15.570312 27.027344 C -15.832031 27.289062 -16.058594 27.582031 -16.214844 27.925781 C -16.550781 28.644531 -16.558594 29.441406 -16.246094 30.296875 C -15.355469 32.695312 -11.792969 32.65625 -10.167969 32.109375 C -9.96875 32.039062 -9.78125 31.972656 -9.597656 31.90625 C -8.738281 31.585938 -8.042969 31.257812 -7.445312 30.894531 C -7.421875 31.117188 -7.382812 31.347656 -7.304688 31.578125 C -7.003906 32.457031 -6.339844 33.125 -5.328125 33.570312 C -4.503906 33.933594 -3.6875 33.882812 -2.929688 33.605469 C -1.375 33.027344 -0.09375 31.476562 0.40625 30.523438 C 1.417969 28.59375 1.335938 26.222656 1.328125 26.003906 C 1.371094 24.515625 0.601562 21.527344 -2.65625 20.46875 Z M -1.039062 29.761719 C -1.511719 30.667969 -3.289062 32.683594 -4.675781 32.074219 C -5.257812 31.820312 -5.609375 31.488281 -5.757812 31.0625 C -6.027344 30.28125 -5.558594 29.378906 -5.554688 29.375 C -5.535156 29.339844 -5.523438 29.304688 -5.507812 29.269531 C -5.066406 28.777344 -4.636719 28.222656 -4.15625 27.574219 C -3.890625 27.210938 -3.964844 26.699219 -4.328125 26.429688 C -4.691406 26.160156 -5.203125 26.238281 -5.46875 26.601562 C -7.03125 28.71875 -7.886719 29.609375 -10.691406 30.558594 C -11.828125 30.941406 -14.273438 30.917969 -14.714844 29.730469 C -14.875 29.296875 -14.882812 28.933594 -14.738281 28.617188 C -14.351562 27.789062 -12.957031 27.292969 -12.210938 27.023438 C -12.082031 26.976562 -11.964844 26.933594 -11.867188 26.898438 C -11.839844 26.886719 -11.820312 26.875 -11.796875 26.863281 C -11.429688 26.808594 -11.082031 26.75 -10.769531 26.695312 L -10.421875 26.632812 C -10.050781 26.570312 -10 26.558594 -9.425781 26.414062 C -8.992188 26.300781 -8.726562 25.855469 -8.839844 25.417969 C -8.953125 24.980469 -9.398438 24.714844 -9.832031 24.828125 C -10.359375 24.960938 -10.375 24.964844 -10.707031 25.023438 L -11.058594 25.085938 C -12.03125 25.261719 -13.3125 25.460938 -14.601562 25.457031 C -15.859375 25.453125 -17.226562 25.09375 -18.449219 24.449219 C -19.554688 23.871094 -20.480469 23.046875 -20.929688 22.253906 C -21.300781 21.601562 -21.265625 20.800781 -20.84375 20.058594 C -20.425781 19.324219 -19.496094 19.609375 -17.4375 20.578125 C -16.832031 20.863281 -16.207031 21.15625 -15.621094 21.351562 C -13.71875 21.988281 -11.671875 22.296875 -9.179688 22.320312 C -8.273438 22.328125 -7.394531 22.195312 -6.542969 22.070312 C -5.300781 21.886719 -4.128906 21.710938 -3.15625 22.027344 C -0.242188 22.972656 -0.300781 25.855469 -0.304688 25.992188 C -0.304688 26.003906 -0.300781 26.015625 -0.300781 26.03125 C -0.300781 26.042969 -0.304688 26.054688 -0.304688 26.066406 C -0.304688 26.085938 -0.210938 28.183594 -1.039062 29.761719 Z M -1.039062 29.761719 "/>
</g>
</g>
</g>
<g clip-path="url(#clip4)" clip-rule="nonzero">
<g clip-path="url(#clip5)" clip-rule="nonzero">
<g clip-path="url(#clip6)" clip-rule="nonzero">
<path style=" stroke:none;fill-rule:nonzero;fill:rgb(100%,100%,100%);fill-opacity:1;" d="M 20.898438 3.265625 C 18.554688 2.425781 17.433594 4.921875 16.617188 6.746094 C 16.351562 7.339844 16.097656 7.898438 15.832031 8.347656 C 14.890625 9.917969 13.640625 11.359375 11.898438 12.886719 C 11.3125 13.394531 10.617188 13.835938 9.941406 14.261719 C 8.765625 15 7.550781 15.761719 6.820312 16.960938 C 5.03125 19.886719 6.398438 22.65625 7.398438 23.757812 C 7.53125 23.925781 9.015625 25.78125 11.039062 26.585938 C 12.039062 26.988281 14.023438 27.328125 15.578125 26.753906 C 16.332031 26.472656 16.988281 25.976562 17.378906 25.164062 C 17.855469 24.167969 17.921875 23.226562 17.578125 22.367188 C 17.488281 22.140625 17.367188 21.941406 17.242188 21.753906 C 17.929688 21.644531 18.671875 21.441406 19.53125 21.121094 C 19.714844 21.054688 19.902344 20.980469 20.097656 20.902344 C 21.6875 20.261719 24.414062 17.96875 23.527344 15.570312 C 23.210938 14.71875 22.6875 14.121094 21.964844 13.792969 C 21.621094 13.636719 21.257812 13.558594 20.890625 13.53125 C 21.730469 12.625 22.433594 11.511719 22.914062 10.304688 C 23.492188 8.84375 23.6875 7.308594 23.449219 6.101562 C 23.191406 4.804688 22.238281 3.746094 20.898438 3.265625 Z M 21.847656 6.414062 C 22.023438 7.3125 21.855469 8.539062 21.394531 9.699219 C 20.886719 10.984375 20.082031 12.144531 19.128906 12.96875 C 18.15625 13.808594 17.050781 14.492188 16.199219 14.992188 L 15.890625 15.175781 C 15.601562 15.347656 15.589844 15.355469 15.101562 15.597656 C 14.699219 15.796875 14.53125 16.285156 14.734375 16.691406 C 14.933594 17.097656 15.425781 17.261719 15.824219 17.0625 C 16.355469 16.800781 16.398438 16.777344 16.726562 16.582031 L 17.027344 16.40625 C 17.300781 16.242188 17.605469 16.058594 17.917969 15.863281 C 17.941406 15.855469 17.96875 15.851562 17.992188 15.84375 C 18.09375 15.808594 18.210938 15.761719 18.335938 15.714844 C 19.078125 15.429688 20.457031 14.902344 21.292969 15.28125 C 21.605469 15.421875 21.835938 15.703125 22 16.136719 C 22.4375 17.324219 20.597656 18.9375 19.484375 19.386719 C 16.738281 20.488281 15.507812 20.375 12.945312 19.78125 C 12.503906 19.683594 12.066406 19.957031 11.96875 20.394531 C 11.867188 20.835938 12.140625 21.273438 12.582031 21.375 C 13.371094 21.558594 14.058594 21.699219 14.714844 21.78125 C 14.746094 21.800781 14.777344 21.816406 14.8125 21.832031 C 14.820312 21.835938 15.765625 22.210938 16.066406 22.980469 C 16.234375 23.402344 16.179688 23.882812 15.90625 24.453125 C 15.25 25.820312 12.589844 25.445312 11.640625 25.066406 C 9.992188 24.410156 8.703125 22.773438 8.675781 22.742188 C 8.667969 22.730469 8.660156 22.722656 8.652344 22.714844 C 8.644531 22.703125 8.636719 22.695312 8.628906 22.683594 C 8.546875 22.59375 6.609375 20.441406 8.210938 17.820312 C 8.746094 16.945312 9.746094 16.3125 10.808594 15.644531 C 11.539062 15.1875 12.292969 14.714844 12.972656 14.117188 C 14.847656 12.476562 16.199219 10.910156 17.230469 9.191406 C 17.546875 8.660156 17.832031 8.03125 18.105469 7.421875 C 19.035156 5.34375 19.554688 4.519531 20.351562 4.804688 C 21.15625 5.09375 21.703125 5.679688 21.847656 6.414062 Z M 21.847656 6.414062 "/>
</g>
</g>
</g>
</g>
</svg>
