<?xml version="1.0" encoding="UTF-8"?>
<svg xmlns="http://www.w3.org/2000/svg" xmlns:xlink="http://www.w3.org/1999/xlink" width="350pt" height="250pt" viewBox="0 0 150 74.999997" version="1.2">
<g id="surface1">
<path style="fill:none;stroke-width:0.948019;stroke-linecap:butt;stroke-linejoin:miter;stroke:rgb(100%,100%,100%);stroke-opacity:1;stroke-miterlimit:4;" d="M 37.029253 1.992787 C 38.430295 1.992787 39.690712 2.237578 40.82092 2.737578 C 41.951129 3.23237 42.878212 3.914662 43.60217 4.79487 C 44.326129 5.66987 44.800087 6.675079 45.018837 7.805287 C 45.07092 8.008412 45.096962 8.164662 45.096962 8.284454 C 45.096962 8.440704 45.065712 8.539662 45.003212 8.586537 C 44.94592 8.63862 44.841754 8.66987 44.690712 8.685495 L 40.263628 8.966745 C 40.096962 8.966745 39.987587 8.935495 39.935503 8.878204 C 39.888628 8.820912 39.836545 8.690704 39.784462 8.48237 C 39.63342 7.675079 39.357378 7.04487 38.951128 6.581329 C 38.544878 6.117787 37.956337 5.883412 37.185503 5.883412 C 36.190711 5.883412 35.419878 6.320912 34.88342 7.20112 C 34.341753 8.07612 34.076128 9.497996 34.076128 11.471954 C 34.076128 13.508413 34.32092 14.956329 34.815711 15.815704 C 35.310503 16.675079 36.091753 17.107371 37.154253 17.107371 C 38.050087 17.107371 38.815712 16.878204 39.440712 16.425079 C 40.076128 15.971954 40.60217 15.211538 41.024045 14.149038 C 41.07092 13.997996 41.216753 13.919871 41.456337 13.919871 C 41.57092 13.919871 41.66467 13.930288 41.732378 13.945913 L 44.893837 14.581329 C 45.143837 14.664663 45.268837 14.857371 45.268837 15.159454 C 45.268837 15.633413 44.97717 16.362579 44.399045 17.352163 C 43.82092 18.336538 42.909462 19.232371 41.669878 20.044871 C 40.430295 20.852163 38.867795 21.253205 36.982378 21.253205 C 35.19592 21.253205 33.628211 20.826121 32.279253 19.977163 C 30.930294 19.122996 29.888628 17.951121 29.154252 16.461538 C 28.419877 14.971954 28.055294 13.268829 28.055294 11.367787 C 28.055294 9.482371 28.419877 7.831329 29.154252 6.414662 C 29.888628 4.997995 30.930294 3.909453 32.289669 3.143828 C 33.649044 2.372995 35.22717 1.992787 37.029253 1.992787 Z M 47.232379 2.82612 C 47.232379 2.63862 47.274046 2.497995 47.357379 2.399037 C 47.440712 2.29487 47.560504 2.242787 47.711546 2.242787 L 52.513629 2.242787 C 52.820921 2.242787 52.971963 2.41987 52.971963 2.774037 L 52.971963 16.503204 C 52.971963 16.638621 52.992796 16.727163 53.034463 16.779246 C 53.076129 16.826121 53.154254 16.852163 53.274046 16.852163 L 60.883422 16.852163 C 61.268838 16.852163 61.466755 17.013621 61.466755 17.331329 L 61.466755 20.445913 C 61.466755 20.61258 61.409463 20.747996 61.300088 20.852163 C 61.190713 20.951121 61.034463 20.997996 60.836547 20.997996 L 47.919879 20.997996 C 47.664671 20.997996 47.482379 20.951121 47.378212 20.852163 C 47.279254 20.747996 47.232379 20.586538 47.232379 20.372996 Z M 68.763631 2.242787 C 69.065714 2.242787 69.216756 2.41987 69.216756 2.774037 L 69.216756 20.263621 C 69.216756 20.539663 69.149047 20.727163 69.013631 20.841746 C 68.878214 20.945913 68.669881 20.997996 68.383422 20.997996 L 64.164672 20.997996 C 63.909464 20.997996 63.727172 20.951121 63.628214 20.852163 C 63.529255 20.747996 63.477172 20.586538 63.477172 20.372996 L 63.477172 2.82612 C 63.477172 2.63862 63.518839 2.497995 63.602172 2.399037 C 63.685505 2.29487 63.805297 2.242787 63.961547 2.242787 Z M 80.258423 1.992787 C 81.659465 1.992787 82.919882 2.237578 84.05009 2.737578 C 85.180299 3.23237 86.107382 3.914662 86.83134 4.79487 C 87.555299 5.66987 88.029257 6.675079 88.248007 7.805287 C 88.300091 8.008412 88.326132 8.164662 88.326132 8.284454 C 88.326132 8.440704 88.294882 8.539662 88.232382 8.586537 C 88.175091 8.63862 88.070924 8.66987 87.919882 8.685495 L 83.492799 8.966745 C 83.326132 8.966745 83.216757 8.935495 83.164674 8.878204 C 83.117799 8.820912 83.065715 8.690704 83.013632 8.48237 C 82.86259 7.675079 82.586548 7.04487 82.180298 6.581329 C 81.774048 6.117787 81.185507 5.883412 80.414673 5.883412 C 79.419882 5.883412 78.649048 6.320912 78.11259 7.20112 C 77.570923 8.07612 77.305298 9.497996 77.305298 11.471954 C 77.305298 13.508413 77.55009 14.956329 78.044881 15.815704 C 78.539673 16.675079 79.320923 17.107371 80.383423 17.107371 C 81.279257 17.107371 82.044882 16.878204 82.67509 16.425079 C 83.305299 15.971954 83.83134 15.211538 84.253215 14.149038 C 84.30009 13.997996 84.445924 13.919871 84.685507 13.919871 C 84.80009 13.919871 84.89384 13.930288 84.961549 13.945913 L 88.123007 14.581329 C 88.373007 14.664663 88.498007 14.857371 88.498007 15.159454 C 88.498007 15.633413 88.206341 16.362579 87.628216 17.352163 C 87.050091 18.336538 86.138632 19.232371 84.899049 20.044871 C 83.664674 20.852163 82.096965 21.253205 80.211548 21.253205 C 78.42509 21.253205 76.857381 20.826121 75.508423 19.977163 C 74.159464 19.122996 73.117798 17.951121 72.383423 16.461538 C 71.654256 14.971954 71.284464 13.268829 71.284464 11.367787 C 71.284464 9.482371 71.654256 7.831329 72.383423 6.414662 C 73.117798 4.997995 74.159464 3.909453 75.51884 3.143828 C 76.878215 2.372995 78.45634 1.992787 80.258423 1.992787 Z M 107.982384 20.216746 C 108.050092 20.352163 108.081342 20.48758 108.081342 20.622996 C 108.081342 20.872996 107.930301 20.997996 107.628217 20.997996 L 102.695925 20.997996 C 102.2428 20.997996 101.940717 20.83133 101.789675 20.492788 L 98.701133 13.461538 C 98.633425 13.367788 98.570925 13.315704 98.503216 13.315704 C 98.419883 13.315704 98.300091 13.409454 98.143841 13.591746 L 96.352175 15.893829 C 96.253216 16.013621 96.201133 16.195913 96.201133 16.451121 L 96.201133 20.263621 C 96.201133 20.539663 96.133425 20.727163 95.998008 20.841746 C 95.862591 20.945913 95.654258 20.997996 95.3678 20.997996 L 91.149049 20.997996 C 90.893841 20.997996 90.711549 20.951121 90.612591 20.852163 C 90.513632 20.747996 90.461549 20.586538 90.461549 20.372996 L 90.461549 2.82612 C 90.461549 2.63862 90.503216 2.497995 90.586549 2.399037 C 90.669882 2.29487 90.789674 2.242787 90.940716 2.242787 L 95.7428 2.242787 C 96.050091 2.242787 96.201133 2.41987 96.201133 2.774037 L 96.201133 9.16987 C 96.201133 9.367787 96.2428 9.471954 96.326133 9.471954 C 96.393841 9.471954 96.477175 9.414662 96.576133 9.300079 L 101.232383 2.774037 C 101.383425 2.570912 101.529258 2.435495 101.669883 2.362578 C 101.815717 2.284453 102.029258 2.242787 102.315717 2.242787 L 106.164675 2.242787 C 106.362592 2.242787 106.52405 2.284453 106.638634 2.362578 C 106.758425 2.435495 106.815717 2.539662 106.815717 2.66987 C 106.815717 2.789662 106.77405 2.893828 106.695925 2.977162 L 102.544883 8.055287 C 102.425092 8.195912 102.3678 8.336537 102.3678 8.48237 C 102.3678 8.602162 102.404258 8.73237 102.471967 8.867787 Z M 131.253219 2.242787 C 131.503219 2.242787 131.628219 2.383412 131.628219 2.66987 L 131.628219 20.544871 C 131.628219 20.680288 131.570927 20.789663 131.461552 20.878205 C 131.357386 20.95633 131.216761 20.997996 131.050094 20.997996 L 127.586552 20.997996 C 127.43551 20.997996 127.31051 20.977163 127.21676 20.92508 C 127.12301 20.872996 127.018844 20.774038 126.899052 20.622996 L 119.951135 11.190704 C 119.883427 11.107371 119.820927 11.070912 119.774052 11.086537 C 119.721968 11.102162 119.695927 11.154246 119.695927 11.242787 L 119.695927 20.445913 C 119.71676 20.64383 119.675093 20.789663 119.581343 20.878205 C 119.492801 20.95633 119.326135 20.997996 119.086551 20.997996 L 115.649051 20.997996 C 115.232384 20.997996 115.018843 20.83133 115.018843 20.492788 L 115.018843 2.82612 C 115.018843 2.435495 115.206343 2.242787 115.576135 2.242787 L 119.695927 2.242787 C 119.914677 2.242787 120.081343 2.274037 120.18551 2.331328 C 120.294885 2.38862 120.419885 2.51362 120.555302 2.70112 L 126.62301 11.143829 C 126.727177 11.289662 126.820927 11.367787 126.899052 11.367787 C 126.987594 11.367787 127.02926 11.258412 127.02926 11.039662 L 127.02926 2.774037 C 127.02926 2.41987 127.21676 2.242787 127.586552 2.242787 Z M 134.248011 2.82612 C 134.248011 2.63862 134.289678 2.497995 134.373011 2.399037 C 134.456344 2.29487 134.576136 2.242787 134.727178 2.242787 L 148.201137 2.242787 C 148.508429 2.242787 148.659471 2.41987 148.659471 2.774037 L 148.633429 5.706329 C 148.633429 6.164662 148.419887 6.38862 147.998012 6.38862 L 140.56572 6.38862 C 140.180303 6.38862 139.987595 6.550079 139.987595 6.867787 L 139.987595 9.242787 C 139.987595 9.581329 140.138637 9.747996 140.445928 9.747996 L 145.06572 9.747996 C 145.404262 9.747996 145.570929 9.919871 145.570929 10.253204 L 145.570929 13.341746 C 145.570929 13.628204 145.419887 13.774038 145.117804 13.774038 L 140.388637 13.774038 C 140.274053 13.774038 140.175095 13.805288 140.09697 13.872996 C 140.024053 13.935496 139.987595 14.029246 139.987595 14.149038 L 139.987595 20.263621 C 139.987595 20.539663 139.919887 20.727163 139.78447 20.841746 C 139.649053 20.945913 139.435511 20.997996 139.154261 20.997996 L 134.930303 20.997996 C 134.675094 20.997996 134.498011 20.951121 134.393844 20.852163 C 134.294886 20.747996 134.248011 20.586538 134.248011 20.372996 Z M 150.065721 2.82612 C 150.065721 2.654245 150.117804 2.518828 150.227179 2.409453 C 150.336554 2.300078 150.492804 2.242787 150.695929 2.242787 L 165.810514 2.242787 C 166.013639 2.242787 166.169889 2.300078 166.279264 2.409453 C 166.388639 2.518828 166.44593 2.654245 166.44593 2.82612 L 166.44593 5.831329 C 166.44593 6.149037 166.25843 6.310495 165.888639 6.310495 L 161.41468 6.310495 C 161.211555 6.310495 161.112597 6.393829 161.112597 6.565704 L 161.112597 20.445913 C 161.112597 20.628205 161.07093 20.76883 160.982388 20.86258 C 160.899055 20.95633 160.784472 20.997996 160.63343 20.997996 L 155.831346 20.997996 C 155.524054 20.997996 155.373013 20.83133 155.373013 20.492788 L 155.373013 6.66987 C 155.373013 6.430287 155.279263 6.310495 155.096971 6.310495 L 150.643846 6.310495 C 150.258429 6.310495 150.065721 6.149037 150.065721 5.831329 Z M 150.065721 2.82612 " transform="matrix(0.75,0,0,0.75,2.075719,9.396035)"/>
<path style="fill:none;stroke-width:0.948019;stroke-linecap:butt;stroke-linejoin:miter;stroke:rgb(100%,100%,100%);stroke-opacity:1;stroke-miterlimit:4;" d="M 15.919876 26.992789 C 17.320918 26.992789 18.581335 27.23758 19.711543 27.73758 C 20.841752 28.232372 21.768835 28.914664 22.492794 29.794872 C 23.216752 30.669872 23.69071 31.675081 23.90946 32.805289 C 23.961544 33.008414 23.987585 33.164664 23.987585 33.284456 C 23.987585 33.440706 23.956335 33.539664 23.893835 33.586539 C 23.836544 33.638622 23.732377 33.669872 23.581335 33.685497 L 19.154252 33.966748 C 18.987585 33.966748 18.87821 33.935498 18.826127 33.878206 C 18.779252 33.820914 18.727168 33.690706 18.675085 33.482372 C 18.524043 32.675081 18.248002 32.044872 17.841752 31.581331 C 17.435501 31.117789 16.84696 30.883414 16.076126 30.883414 C 15.081335 30.883414 14.310501 31.320914 13.774043 32.201122 C 13.232376 33.076122 12.966751 34.497998 12.966751 36.471956 C 12.966751 38.508415 13.211543 39.956331 13.706335 40.815706 C 14.201126 41.675081 14.982376 42.107373 16.044876 42.107373 C 16.94071 42.107373 17.706335 41.878206 18.331335 41.425081 C 18.966752 40.971956 19.492793 40.21154 19.914668 39.14904 C 19.961543 38.997998 20.107377 38.919873 20.34696 38.919873 C 20.461543 38.919873 20.555293 38.93029 20.623002 38.945915 L 23.78446 39.581331 C 24.03446 39.664665 24.15946 39.857373 24.15946 40.159456 C 24.15946 40.633415 23.867794 41.362581 23.289669 42.352165 C 22.711544 43.33654 21.800085 44.232373 20.560502 45.044873 C 19.320918 45.852165 17.758418 46.253207 15.873001 46.253207 C 14.086543 46.253207 12.518834 45.826123 11.169876 44.977165 C 9.820918 44.122998 8.779251 42.951123 8.044876 41.46154 C 7.310501 39.971956 6.945917 38.268831 6.945917 36.367789 C 6.945917 34.482373 7.310501 32.831331 8.044876 31.414664 C 8.779251 29.997997 9.820918 28.909455 11.180293 28.14383 C 12.539668 27.372997 14.117793 26.992789 15.919876 26.992789 Z M 42.529254 45.190707 C 42.560504 45.258415 42.576129 45.352165 42.576129 45.466748 C 42.576129 45.622998 42.529254 45.747998 42.435504 45.852165 C 42.346962 45.951123 42.22717 45.997998 42.076129 45.997998 L 37.169878 45.997998 C 36.815711 45.997998 36.586545 45.820915 36.487586 45.466748 L 34.107378 38.945915 C 34.060503 38.810498 33.97717 38.71154 33.857378 38.643831 C 33.742794 38.576123 33.565711 38.544873 33.326128 38.544873 L 32.164669 38.544873 C 32.060503 38.544873 31.987586 38.576123 31.935503 38.643831 C 31.888628 38.71154 31.862586 38.768831 31.862586 38.820915 L 31.862586 45.263623 C 31.862586 45.539665 31.794878 45.727165 31.659461 45.841748 C 31.524044 45.945915 31.315711 45.997998 31.029253 45.997998 L 26.779252 45.997998 C 26.524044 45.997998 26.352169 45.951123 26.258419 45.852165 C 26.169877 45.747998 26.123002 45.58654 26.123002 45.372998 L 26.123002 27.826122 C 26.123002 27.435497 26.284461 27.242789 26.602169 27.242789 L 35.044878 27.242789 C 37.492795 27.242789 39.388628 27.711539 40.732378 28.64383 C 42.081337 29.576122 42.75842 30.899039 42.75842 32.602164 C 42.75842 33.763623 42.44592 34.800081 41.831337 35.711539 C 41.216753 36.622998 40.425087 37.258414 39.44592 37.633414 C 39.346962 37.685498 39.294878 37.768831 39.294878 37.883415 C 39.294878 37.935498 39.310503 38.008415 39.341753 38.112581 Z M 34.82092 34.774039 C 35.461545 34.774039 35.956336 34.612581 36.300086 34.284456 C 36.643836 33.956331 36.82092 33.513622 36.82092 32.951122 C 36.82092 32.331331 36.612586 31.846956 36.19592 31.503206 C 35.784461 31.154247 35.274045 30.982372 34.66467 30.982372 L 32.440711 30.982372 C 32.227169 30.982372 32.070919 31.024039 31.987586 31.102164 C 31.904253 31.175081 31.862586 31.305289 31.862586 31.487581 L 31.862586 34.242789 C 31.862586 34.430289 31.893836 34.565706 31.951128 34.649039 C 32.008419 34.732373 32.117794 34.774039 32.289669 34.774039 Z M 44.794879 27.826122 C 44.794879 27.435497 44.956337 27.242789 45.274045 27.242789 L 58.930297 27.242789 C 59.227172 27.242789 59.378213 27.419872 59.378213 27.774039 L 59.352172 30.706331 C 59.352172 31.164664 59.133422 31.388622 58.70113 31.388622 L 51.112588 31.388622 C 50.727171 31.388622 50.534463 31.550081 50.534463 31.867789 L 50.534463 34.013623 C 50.534463 34.185498 50.576129 34.315706 50.659463 34.409456 C 50.742796 34.503206 50.857379 34.550081 50.992796 34.550081 L 55.539671 34.550081 C 55.893838 34.550081 56.070921 34.716748 56.070921 35.050081 L 56.070921 38.185498 C 56.070921 38.471956 55.91988 38.61779 55.612588 38.61779 L 50.935504 38.61779 C 50.820921 38.61779 50.721963 38.654248 50.643838 38.721956 C 50.570921 38.789665 50.534463 38.872998 50.534463 38.971956 L 50.534463 41.503206 C 50.534463 41.638623 50.555296 41.727165 50.596963 41.779248 C 50.638629 41.826123 50.716754 41.852165 50.836546 41.852165 L 59.050088 41.852165 C 59.41988 41.852165 59.60738 42.013623 59.60738 42.331332 L 59.60738 45.445915 C 59.60738 45.612582 59.555297 45.747998 59.45113 45.852165 C 59.352172 45.951123 59.20113 45.997998 59.003213 45.997998 L 45.47717 45.997998 C 45.221962 45.997998 45.044879 45.951123 44.940712 45.852165 C 44.841754 45.747998 44.794879 45.58654 44.794879 45.372998 Z M 61.518838 45.997998 C 61.383422 45.997998 61.274047 45.956332 61.185505 45.862582 C 61.102172 45.768832 61.060505 45.638623 61.060505 45.466748 C 61.060505 45.352165 61.091755 45.21154 61.143838 45.060498 L 67.258422 27.826122 C 67.341756 27.607372 67.435506 27.45633 67.534464 27.372997 C 67.638631 27.284455 67.800089 27.242789 68.018839 27.242789 L 72.998006 27.242789 C 73.201131 27.242789 73.383423 27.305289 73.539673 27.435497 C 73.701131 27.560497 73.826131 27.721955 73.904256 27.92508 L 79.971965 45.143832 C 80.008423 45.279248 80.024048 45.378207 80.024048 45.445915 C 80.024048 45.596957 79.98759 45.727165 79.92509 45.841748 C 79.857382 45.945915 79.758423 45.997998 79.623007 45.997998 L 74.664673 45.997998 C 74.378214 45.997998 74.190714 45.857373 74.107381 45.565707 L 73.123006 42.659457 C 73.070923 42.544873 73.024048 42.466748 72.982381 42.425082 C 72.940714 42.383415 72.862589 42.357373 72.748006 42.357373 L 67.383422 42.357373 C 67.180297 42.357373 67.055297 42.451123 67.008422 42.638623 L 65.966755 45.622998 C 65.867797 45.872998 65.664672 45.997998 65.362589 45.997998 Z M 71.482381 38.060498 C 71.664673 38.060498 71.758423 37.977165 71.758423 37.810498 C 71.758423 37.779248 71.742798 37.690706 71.711548 37.555289 L 70.190714 33.237581 C 70.159464 33.149039 70.107381 33.107372 70.034464 33.107372 C 69.971964 33.107372 69.919881 33.149039 69.888631 33.237581 L 68.346964 37.534456 C 68.310506 37.596956 68.294881 37.680289 68.294881 37.784456 C 68.294881 37.971956 68.399047 38.060498 68.596964 38.060498 Z M 81.33134 27.826122 C 81.33134 27.654247 81.383423 27.51883 81.492798 27.409455 C 81.602173 27.30008 81.758423 27.242789 81.961548 27.242789 L 97.076133 27.242789 C 97.279258 27.242789 97.435508 27.30008 97.544883 27.409455 C 97.654258 27.51883 97.71155 27.654247 97.71155 27.826122 L 97.71155 30.831331 C 97.71155 31.149039 97.52405 31.310497 97.154258 31.310497 L 92.680299 31.310497 C 92.477174 31.310497 92.378216 31.393831 92.378216 31.565706 L 92.378216 45.445915 C 92.378216 45.628207 92.336549 45.768832 92.248008 45.862582 C 92.164674 45.956332 92.050091 45.997998 91.893841 45.997998 L 87.096966 45.997998 C 86.789674 45.997998 86.638632 45.831332 86.638632 45.49279 L 86.638632 31.669872 C 86.638632 31.430289 86.544882 31.310497 86.36259 31.310497 L 81.909465 31.310497 C 81.524048 31.310497 81.33134 31.149039 81.33134 30.831331 Z M 105.003217 27.242789 C 105.310509 27.242789 105.46155 27.419872 105.46155 27.774039 L 105.46155 45.263623 C 105.46155 45.539665 105.393842 45.727165 105.258425 45.841748 C 105.123009 45.945915 104.914675 45.997998 104.628217 45.997998 L 100.409467 45.997998 C 100.154258 45.997998 99.971967 45.951123 99.8678 45.852165 C 99.768842 45.747998 99.721967 45.58654 99.721967 45.372998 L 99.721967 27.826122 C 99.721967 27.638622 99.763633 27.497997 99.846967 27.399039 C 99.9303 27.294872 100.050092 27.242789 100.201133 27.242789 Z M 116.659468 46.253207 C 114.820926 46.253207 113.211551 45.862582 111.836551 45.081332 C 110.461551 44.294873 109.404259 43.18029 108.664676 41.74279 C 107.925092 40.300081 107.555301 38.612581 107.555301 36.675081 C 107.555301 34.737581 107.930301 33.039664 108.675092 31.581331 C 109.430301 30.122997 110.492801 28.992789 111.862593 28.195914 C 113.237593 27.39383 114.836551 26.992789 116.659468 26.992789 C 118.461551 26.992789 120.039677 27.39383 121.40426 28.195914 C 122.768843 28.992789 123.826135 30.122997 124.576135 31.581331 C 125.331344 33.039664 125.706344 34.737581 125.706344 36.675081 C 125.706344 38.596956 125.331344 40.279248 124.586552 41.727165 C 123.846969 43.175082 122.794885 44.294873 121.430302 45.081332 C 120.065718 45.862582 118.477176 46.253207 116.659468 46.253207 Z M 116.659468 42.310498 C 117.399051 42.310498 117.987593 42.128207 118.425093 41.763623 C 118.862593 41.404248 119.18551 40.820915 119.383426 40.013623 C 119.586552 39.201123 119.68551 38.112581 119.68551 36.747998 C 119.68551 34.659456 119.451135 33.159456 118.977176 32.247997 C 118.508426 31.341747 117.737593 30.883414 116.659468 30.883414 C 115.56051 30.883414 114.768843 31.341747 114.289676 32.247997 C 113.810509 33.159456 113.570926 34.659456 113.570926 36.747998 C 113.570926 38.112581 113.669884 39.201123 113.873009 40.013623 C 114.076134 40.820915 114.399051 41.404248 114.841759 41.763623 C 115.289676 42.128207 115.893843 42.310498 116.659468 42.310498 Z M 144.024054 27.242789 C 144.274054 27.242789 144.399054 27.383414 144.399054 27.669872 L 144.399054 45.544873 C 144.399054 45.68029 144.34697 45.789665 144.232387 45.878207 C 144.12822 45.956332 143.987595 45.997998 143.820928 45.997998 L 140.357387 45.997998 C 140.206345 45.997998 140.081345 45.977165 139.987595 45.925082 C 139.899053 45.872998 139.789678 45.77404 139.675095 45.622998 L 132.721969 36.190706 C 132.654261 36.107373 132.591761 36.070914 132.544886 36.086539 C 132.492803 36.102164 132.471969 36.154248 132.471969 36.242789 L 132.471969 45.445915 C 132.487594 45.643832 132.445928 45.789665 132.352178 45.878207 C 132.263636 45.956332 132.096969 45.997998 131.857386 45.997998 L 128.419886 45.997998 C 128.003219 45.997998 127.789677 45.831332 127.789677 45.49279 L 127.789677 27.826122 C 127.789677 27.435497 127.977177 27.242789 128.346969 27.242789 L 132.471969 27.242789 C 132.690719 27.242789 132.852178 27.274039 132.956344 27.33133 C 133.070928 27.388622 133.190719 27.513622 133.326136 27.701122 L 139.393845 36.143831 C 139.498011 36.289664 139.591761 36.367789 139.675095 36.367789 C 139.758428 36.367789 139.800095 36.258414 139.800095 36.039664 L 139.800095 27.774039 C 139.800095 27.419872 139.987595 27.242789 140.357387 27.242789 Z M 151.466762 27.826122 C 151.466762 27.654247 151.518846 27.51883 151.628221 27.409455 C 151.737596 27.30008 151.893846 27.242789 152.096971 27.242789 L 167.211555 27.242789 C 167.419889 27.242789 167.576139 27.30008 167.680305 27.409455 C 167.78968 27.51883 167.846972 27.654247 167.846972 27.826122 L 167.846972 30.831331 C 167.846972 31.149039 167.66468 31.310497 167.28968 31.310497 L 162.815722 31.310497 C 162.617805 31.310497 162.513638 31.393831 162.513638 31.565706 L 162.513638 45.445915 C 162.513638 45.628207 162.471972 45.768832 162.38343 45.862582 C 162.305305 45.956332 162.185513 45.997998 162.034472 45.997998 L 157.232388 45.997998 C 156.925096 45.997998 156.774055 45.831332 156.774055 45.49279 L 156.774055 31.669872 C 156.774055 31.430289 156.680305 31.310497 156.498013 31.310497 L 152.050096 31.310497 C 151.659471 31.310497 151.466762 31.149039 151.466762 30.831331 Z M 178.430306 46.253207 C 176.591764 46.253207 174.987598 45.862582 173.612598 45.081332 C 172.237597 44.294873 171.180306 43.18029 170.440722 41.74279 C 169.701139 40.300081 169.326139 38.612581 169.326139 36.675081 C 169.326139 34.737581 169.701139 33.039664 170.451139 31.581331 C 171.206347 30.122997 172.268847 28.992789 173.638639 28.195914 C 175.008431 27.39383 176.607389 26.992789 178.430306 26.992789 C 180.23239 26.992789 181.815723 27.39383 183.180307 28.195914 C 184.54489 28.992789 185.602182 30.122997 186.352182 31.581331 C 187.102182 33.039664 187.48239 34.737581 187.48239 36.675081 C 187.48239 38.596956 187.10739 40.279248 186.362599 41.727165 C 185.623015 43.175082 184.570932 44.294873 183.20114 45.081332 C 181.841765 45.862582 180.253223 46.253207 178.430306 46.253207 Z M 178.430306 42.310498 C 179.175098 42.310498 179.76364 42.128207 180.195931 41.763623 C 180.63864 41.404248 180.956348 40.820915 181.159473 40.013623 C 181.362598 39.201123 181.461557 38.112581 181.461557 36.747998 C 181.461557 34.659456 181.227182 33.159456 180.753223 32.247997 C 180.284473 31.341747 179.508431 30.883414 178.430306 30.883414 C 177.331348 30.883414 176.544889 31.341747 176.060514 32.247997 C 175.586556 33.159456 175.346973 34.659456 175.346973 36.747998 C 175.346973 38.112581 175.445931 39.201123 175.649056 40.013623 C 175.852181 40.820915 176.175098 41.404248 176.617806 41.763623 C 177.065723 42.128207 177.66989 42.310498 178.430306 42.310498 Z M 178.430306 42.310498 " transform="matrix(0.75,0,0,0.75,2.075719,9.396035)"/>
<path style="fill:none;stroke-width:0.948019;stroke-linecap:butt;stroke-linejoin:miter;stroke:rgb(100%,100%,100%);stroke-opacity:1;stroke-miterlimit:4;" d="M 13.024043 71.253209 C 11.274043 71.253209 9.727168 70.852167 8.383417 70.044875 C 7.044876 69.232375 6.013626 68.107375 5.279251 66.669875 C 4.544875 65.221958 4.180292 63.565708 4.180292 61.701125 C 4.180292 59.77925 4.565709 58.086541 5.341751 56.617791 C 6.117792 55.149041 7.201126 54.013624 8.591751 53.206332 C 9.982376 52.393832 11.570918 51.992791 13.357376 51.992791 C 14.805293 51.992791 16.09696 52.258416 17.232376 52.784457 C 18.373002 53.315707 19.294877 54.003207 19.992793 54.846958 C 20.69071 55.685499 21.149043 56.581333 21.367793 57.529249 C 21.419877 57.727166 21.445918 57.888624 21.445918 58.008416 C 21.445918 58.159458 21.40946 58.263625 21.34696 58.3105 C 21.279252 58.362583 21.169877 58.393833 21.018835 58.409458 L 16.69071 59.070916 C 16.508418 59.070916 16.388626 59.034458 16.341751 58.971958 C 16.289668 58.899041 16.237585 58.763625 16.185501 58.565708 C 16.055293 57.784458 15.737585 57.149041 15.242793 56.654249 C 14.742793 56.159458 14.070918 55.909458 13.227168 55.909458 C 12.237584 55.909458 11.482376 56.336541 10.971959 57.185499 C 10.456334 58.034458 10.201126 59.487583 10.201126 61.544875 C 10.201126 63.701125 10.477168 65.201125 11.029251 66.044875 C 11.586543 66.888625 12.388626 67.3105 13.430293 67.3105 C 14.800085 67.3105 15.706335 66.71675 16.15946 65.539667 L 16.242793 65.3105 L 16.289668 65.112583 C 16.289668 64.961542 16.195918 64.883417 16.013626 64.883417 L 13.638626 64.883417 C 13.451126 64.883417 13.320918 64.84175 13.242793 64.758417 C 13.164668 64.675083 13.128209 64.52925 13.128209 64.326125 L 13.128209 61.899041 C 13.128209 61.612583 13.305293 61.471958 13.65946 61.471958 L 20.737585 61.518833 C 21.039668 61.518833 21.274043 61.59175 21.445918 61.737583 C 21.612585 61.878208 21.695919 62.070916 21.695919 62.305291 L 21.695919 70.565709 C 21.695919 70.685501 21.654252 70.789667 21.56571 70.878209 C 21.482377 70.956334 21.388627 70.998001 21.268835 70.998001 L 20.310502 70.998001 C 20.00321 70.998001 19.732377 70.841751 19.498002 70.518834 L 18.487585 69.055292 C 18.47196 69.003209 18.435502 68.977167 18.388627 68.977167 C 18.357377 68.977167 18.294877 69.018834 18.211543 69.107375 C 17.774043 69.524042 17.357376 69.878209 16.956335 70.164667 C 16.560501 70.451125 16.03446 70.706334 15.37821 70.925084 C 14.72196 71.143834 13.94071 71.253209 13.024043 71.253209 Z M 23.961544 52.826124 C 23.961544 52.435499 24.123002 52.242791 24.445919 52.242791 L 38.096962 52.242791 C 38.399045 52.242791 38.550087 52.419874 38.550087 52.774041 L 38.524045 55.706333 C 38.524045 56.164666 38.305295 56.388624 37.867795 56.388624 L 30.284461 56.388624 C 29.899044 56.388624 29.701127 56.550083 29.701127 56.867791 L 29.701127 59.013625 C 29.701127 59.1855 29.742794 59.315708 29.826128 59.409458 C 29.914669 59.503208 30.024044 59.550083 30.159461 59.550083 L 34.706336 59.550083 C 35.060503 59.550083 35.237586 59.71675 35.237586 60.050083 L 35.237586 63.1855 C 35.237586 63.471958 35.086545 63.617792 34.784461 63.617792 L 30.102169 63.617792 C 29.987586 63.617792 29.893836 63.65425 29.815711 63.721958 C 29.742794 63.789667 29.701127 63.873 29.701127 63.971958 L 29.701127 66.503209 C 29.701127 66.638625 29.721961 66.727167 29.763628 66.77925 C 29.805294 66.826125 29.888628 66.852167 30.008419 66.852167 L 38.221962 66.852167 C 38.591753 66.852167 38.774045 67.013625 38.774045 67.331334 L 38.774045 70.445917 C 38.774045 70.612584 38.72717 70.748001 38.623003 70.852167 C 38.524045 70.951126 38.373003 70.998001 38.169878 70.998001 L 24.649044 70.998001 C 24.393835 70.998001 24.216752 70.951126 24.112585 70.852167 C 24.013627 70.748001 23.961544 70.586542 23.961544 70.373 Z M 40.310503 52.826124 C 40.310503 52.654249 40.367795 52.518832 40.471962 52.409457 C 40.581337 52.300082 40.737587 52.242791 40.940712 52.242791 L 56.055296 52.242791 C 56.26363 52.242791 56.41988 52.300082 56.524046 52.409457 C 56.63863 52.518832 56.690713 52.654249 56.690713 52.826124 L 56.690713 55.831333 C 56.690713 56.149041 56.508421 56.310499 56.13863 56.310499 L 51.664671 56.310499 C 51.461546 56.310499 51.357379 56.393833 51.357379 56.565708 L 51.357379 70.445917 C 51.357379 70.628209 51.315713 70.768834 51.232379 70.862584 C 51.149046 70.956334 51.029254 70.998001 50.878213 70.998001 L 46.076129 70.998001 C 45.774045 70.998001 45.617795 70.831334 45.617795 70.492792 L 45.617795 56.669874 C 45.617795 56.430291 45.529254 56.310499 45.341754 56.310499 L 40.893837 56.310499 C 40.503212 56.310499 40.310503 56.149041 40.310503 55.831333 Z M 74.930298 57.274041 C 74.524048 56.831333 74.091756 56.497999 73.628214 56.263624 C 73.164673 56.029249 72.498006 55.909458 71.617798 55.909458 C 70.742798 55.909458 70.091756 56.039666 69.669881 56.294874 C 69.248006 56.544874 69.039672 56.846958 69.039672 57.201124 C 69.039672 57.805291 69.581339 58.232374 70.659464 58.482375 L 74.852173 59.576125 C 76.388631 59.961541 77.544881 60.643833 78.315715 61.612583 C 79.091757 62.581333 79.482382 63.737583 79.482382 65.086542 C 79.482382 66.336542 79.154257 67.419875 78.498006 68.346959 C 77.836548 69.274042 76.899048 69.987584 75.67509 70.492792 C 74.451131 70.998001 73.024048 71.253209 71.393839 71.253209 C 69.534464 71.253209 67.846964 70.945917 66.320922 70.331334 C 64.79488 69.71675 63.742797 68.909459 63.154255 67.914667 C 63.065714 67.742792 63.024047 67.617792 63.024047 67.539667 C 63.024047 67.367792 63.117797 67.21675 63.300089 67.081334 L 65.904255 65.284458 C 66.091755 65.169875 66.258422 65.112583 66.409464 65.112583 C 66.596964 65.112583 66.748006 65.1855 66.867797 65.336542 C 67.440714 66.081333 68.018839 66.602167 68.607381 66.909459 C 69.201131 67.206334 69.982381 67.357375 70.961548 67.357375 C 71.904256 67.357375 72.654256 67.227167 73.201131 66.971959 C 73.748006 66.706334 74.018839 66.346958 74.018839 65.893833 C 74.018839 65.576125 73.883423 65.294875 73.612589 65.0605 C 73.346964 64.826125 72.951131 64.643833 72.430298 64.524042 L 68.581339 63.59175 C 67.070922 63.221958 65.867797 62.52925 64.971964 61.508416 C 64.081339 60.487583 63.633422 59.3105 63.633422 57.982374 C 63.633422 56.883416 63.95113 55.878208 64.591755 54.961541 C 65.23238 54.039666 66.143839 53.315707 67.315714 52.784457 C 68.498006 52.258416 69.867797 51.992791 71.414673 51.992791 C 72.935506 51.992791 74.341756 52.237582 75.638631 52.737582 C 76.935506 53.232374 77.867798 53.893832 78.445923 54.716749 C 78.560506 54.872999 78.617798 55.013624 78.617798 55.149041 C 78.617798 55.263624 78.560506 55.372999 78.445923 55.477166 L 75.685506 57.477166 C 75.607381 57.544874 75.513631 57.576124 75.409465 57.576124 C 75.294881 57.576124 75.133423 57.477166 74.930298 57.274041 Z M 80.86259 52.826124 C 80.86259 52.654249 80.914673 52.518832 81.024048 52.409457 C 81.133423 52.300082 81.289673 52.242791 81.492798 52.242791 L 96.607383 52.242791 C 96.815716 52.242791 96.971966 52.300082 97.076133 52.409457 C 97.190716 52.518832 97.2428 52.654249 97.2428 52.826124 L 97.2428 55.831333 C 97.2428 56.149041 97.060508 56.310499 96.690716 56.310499 L 92.211549 56.310499 C 92.013633 56.310499 91.909466 56.393833 91.909466 56.565708 L 91.909466 70.445917 C 91.909466 70.628209 91.867799 70.768834 91.779258 70.862584 C 91.701133 70.956334 91.581341 70.998001 91.430299 70.998001 L 86.628215 70.998001 C 86.326132 70.998001 86.169882 70.831334 86.169882 70.492792 L 86.169882 56.669874 C 86.169882 56.430291 86.08134 56.310499 85.89384 56.310499 L 81.445923 56.310499 C 81.055298 56.310499 80.86259 56.149041 80.86259 55.831333 Z M 99.029258 70.998001 C 98.893841 70.998001 98.779258 70.956334 98.695925 70.862584 C 98.612591 70.768834 98.570925 70.638626 98.570925 70.46675 C 98.570925 70.352167 98.596966 70.211542 98.64905 70.0605 L 104.768842 52.826124 C 104.846967 52.607374 104.940717 52.456332 105.044884 52.372999 C 105.14905 52.284457 105.310509 52.242791 105.52405 52.242791 L 110.508426 52.242791 C 110.706342 52.242791 110.888634 52.305291 111.050092 52.435499 C 111.211551 52.560499 111.331342 52.721957 111.414676 52.925082 L 117.482385 70.143834 C 117.513635 70.27925 117.52926 70.378209 117.52926 70.445917 C 117.52926 70.596959 117.49801 70.727167 117.430301 70.841751 C 117.367801 70.945917 117.263635 70.998001 117.128218 70.998001 L 112.175093 70.998001 C 111.883426 70.998001 111.701134 70.857376 111.617801 70.565709 L 110.628217 67.659459 C 110.581342 67.544875 110.534467 67.46675 110.487592 67.425084 C 110.445926 67.383417 110.367801 67.357375 110.253217 67.357375 L 104.888634 67.357375 C 104.690717 67.357375 104.565717 67.451125 104.513634 67.638625 L 103.477175 70.623001 C 103.373009 70.873001 103.175092 70.998001 102.873008 70.998001 Z M 108.987592 63.0605 C 109.175092 63.0605 109.263634 62.977167 109.263634 62.8105 C 109.263634 62.77925 109.248009 62.690708 109.216759 62.555292 L 107.701134 58.237583 C 107.664676 58.149041 107.612592 58.107374 107.544884 58.107374 C 107.477176 58.107374 107.430301 58.149041 107.393842 58.237583 L 105.852175 62.534458 C 105.820925 62.596958 105.8053 62.680292 105.8053 62.784458 C 105.8053 62.971958 105.904259 63.0605 106.107384 63.0605 Z M 135.84697 70.190709 C 135.87822 70.258417 135.899053 70.352167 135.899053 70.46675 C 135.899053 70.623001 135.852178 70.748001 135.753219 70.852167 C 135.664678 70.951126 135.544886 70.998001 135.399053 70.998001 L 130.492802 70.998001 C 130.138636 70.998001 129.909469 70.820917 129.805302 70.46675 L 127.430302 63.945917 C 127.378219 63.8105 127.294885 63.711542 127.175094 63.643833 C 127.06051 63.576125 126.883427 63.544875 126.643844 63.544875 L 125.487594 63.544875 C 125.383427 63.544875 125.305302 63.576125 125.258427 63.643833 C 125.206344 63.711542 125.180302 63.768833 125.180302 63.820917 L 125.180302 70.263625 C 125.180302 70.539667 125.112594 70.727167 124.977177 70.841751 C 124.84176 70.945917 124.633427 70.998001 124.346969 70.998001 L 120.096968 70.998001 C 119.846968 70.998001 119.675093 70.951126 119.576135 70.852167 C 119.487593 70.748001 119.440718 70.586542 119.440718 70.373 L 119.440718 52.826124 C 119.440718 52.435499 119.602177 52.242791 119.925093 52.242791 L 128.367802 52.242791 C 130.810511 52.242791 132.706344 52.711541 134.050094 53.643832 C 135.399053 54.576124 136.076136 55.899041 136.076136 57.602166 C 136.076136 58.763625 135.768844 59.800083 135.149053 60.711541 C 134.539678 61.623 133.742803 62.258416 132.768844 62.633417 C 132.664678 62.6855 132.612594 62.768833 132.612594 62.883417 C 132.612594 62.9355 132.628219 63.008417 132.664678 63.112583 Z M 128.138636 59.774041 C 128.779261 59.774041 129.274052 59.612583 129.617802 59.284458 C 129.966761 58.956333 130.138636 58.513625 130.138636 57.951124 C 130.138636 57.331333 129.930302 56.846958 129.513636 56.503208 C 129.102177 56.154249 128.591761 55.982374 127.982386 55.982374 L 125.763635 55.982374 C 125.544885 55.982374 125.393844 56.024041 125.305302 56.102166 C 125.221969 56.175083 125.180302 56.305291 125.180302 56.487583 L 125.180302 59.242791 C 125.180302 59.430291 125.211552 59.565708 125.268844 59.649041 C 125.326135 59.732375 125.440719 59.774041 125.607385 59.774041 Z M 137.508428 52.826124 C 137.508428 52.654249 137.560511 52.518832 137.669886 52.409457 C 137.779261 52.300082 137.935511 52.242791 138.138636 52.242791 L 153.253221 52.242791 C 153.461554 52.242791 153.617804 52.300082 153.721971 52.409457 C 153.831346 52.518832 153.888638 52.654249 153.888638 52.826124 L 153.888638 55.831333 C 153.888638 56.149041 153.706346 56.310499 153.331346 56.310499 L 148.857387 56.310499 C 148.659471 56.310499 148.555304 56.393833 148.555304 56.565708 L 148.555304 70.445917 C 148.555304 70.628209 148.513637 70.768834 148.425096 70.862584 C 148.346971 70.956334 148.227179 70.998001 148.076137 70.998001 L 143.274053 70.998001 C 142.966762 70.998001 142.81572 70.831334 142.81572 70.492792 L 142.81572 56.669874 C 142.81572 56.430291 142.72197 56.310499 142.539678 56.310499 L 138.091761 56.310499 C 137.701136 56.310499 137.508428 56.149041 137.508428 55.831333 Z M 155.899054 52.826124 C 155.899054 52.435499 156.060513 52.242791 156.38343 52.242791 L 170.034472 52.242791 C 170.336556 52.242791 170.487597 52.419874 170.487597 52.774041 L 170.461556 55.706333 C 170.461556 56.164666 170.242806 56.388624 169.805306 56.388624 L 162.221972 56.388624 C 161.836555 56.388624 161.638638 56.550083 161.638638 56.867791 L 161.638638 59.013625 C 161.638638 59.1855 161.680305 59.315708 161.763638 59.409458 C 161.85218 59.503208 161.961555 59.550083 162.096972 59.550083 L 166.643847 59.550083 C 166.998014 59.550083 167.175097 59.71675 167.175097 60.050083 L 167.175097 63.1855 C 167.175097 63.471958 167.024055 63.617792 166.721972 63.617792 L 162.03968 63.617792 C 161.925097 63.617792 161.831347 63.65425 161.753222 63.721958 C 161.680305 63.789667 161.638638 63.873 161.638638 63.971958 L 161.638638 66.503209 C 161.638638 66.638625 161.659472 66.727167 161.701138 66.77925 C 161.742805 66.826125 161.826138 66.852167 161.94593 66.852167 L 170.159472 66.852167 C 170.529264 66.852167 170.711556 67.013625 170.711556 67.331334 L 170.711556 70.445917 C 170.711556 70.612584 170.664681 70.748001 170.560514 70.852167 C 170.461556 70.951126 170.310514 70.998001 170.107389 70.998001 L 156.586555 70.998001 C 156.331346 70.998001 156.154263 70.951126 156.050096 70.852167 C 155.951138 70.748001 155.899054 70.586542 155.899054 70.373 Z M 176.518848 52.242791 C 178.524056 52.242791 179.768848 52.253207 180.258431 52.268832 C 183.550098 52.388624 186.034474 53.274041 187.716765 54.935499 C 189.404266 56.591749 190.248016 58.805291 190.248016 61.570916 C 190.248016 63.425083 189.867807 65.0605 189.107391 66.477167 C 188.346974 67.893834 187.216765 68.998 185.716765 69.800084 C 184.216765 70.602167 182.393848 70.998001 180.237598 70.998001 L 173.586556 70.998001 C 173.331348 70.998001 173.149056 70.940709 173.029264 70.826126 C 172.909473 70.706334 172.852181 70.513626 172.852181 70.242792 L 172.852181 52.872999 C 172.852181 52.638624 172.904264 52.477166 173.003223 52.383416 C 173.107389 52.289666 173.284473 52.242791 173.539681 52.242791 Z M 178.846973 56.211541 C 178.758431 56.211541 178.695931 56.237583 178.654265 56.284458 C 178.612598 56.336541 178.591765 56.430291 178.591765 56.565708 L 178.591765 66.649042 C 178.591765 66.800084 178.617806 66.90425 178.66989 66.956334 C 178.716765 67.008417 178.810515 67.02925 178.945931 67.02925 L 179.123015 67.02925 C 180.789682 67.02925 182.060515 66.596959 182.925098 65.727167 C 183.79489 64.862583 184.227182 63.451125 184.227182 61.492791 C 184.227182 59.8105 183.899057 58.555291 183.242807 57.732374 C 182.586557 56.904249 181.628223 56.430291 180.367806 56.310499 Z M 178.846973 56.211541 " transform="matrix(0.75,0,0,0.75,2.075719,9.396035)"/>
</g>
</svg>
