<svg width="107" height="95" viewBox="0 0 107 95" fill="none" xmlns="http://www.w3.org/2000/svg">
<g id="surface1" filter="url(#filter0_d)">
<path id="dancer-right-shoe" d="M77.9078 78.5452C77.9078 78.5452 78.607 78.7829 78.63 78.9692C78.6607 79.1555 79.2447 81.6418 79.114 82.0915C78.9834 82.5412 69.948 84.0124 69.948 84.0124C69.948 84.0124 65.3151 84.1344 64.7849 83.6719C64.2548 83.2029 64.4238 82.811 64.6927 82.7275C64.9616 82.644 75.2725 78.5002 75.2725 78.5002L77.9078 78.5452Z" fill="#C4C3C3"/>
<path id="dancer-left-leg2" d="M74.7346 66.1397L73.3901 60.0236L69.5638 58.4497L63.6862 60.6853C63.6862 60.6853 69.0952 71.7417 74.312 81.9052C74.312 81.9052 78.6377 82.3549 78.5762 79.5024C78.5685 78.9949 74.7346 66.1397 74.7346 66.1397Z" fill="#232832"/>
<path id="dancer-back-torso" d="M67.8736 39.6069C67.8736 39.6069 64.9386 54.6593 65.5148 62.3364C65.5148 62.3364 69.1643 63.0752 70.3322 62.1887C70.3322 62.1887 69.2412 63.7241 73.2211 60.2485C73.2211 60.2485 81.9876 43.2688 82.0721 42.742C82.5484 39.6069 80.497 30.6191 78.8989 30.1437C73.6897 28.589 73.1519 36.5232 67.8736 39.6069Z" fill="#232832"/>
<g id="Group">
<path id="Vector" d="M74.5502 1.54869C74.5502 1.54869 74.6347 0.276658 75.526 0.67497C76.2636 1.00904 74.8422 3.8936 74.4811 4.1313C74.12 4.37543 73.2748 3.85505 73.2825 3.72656C73.3209 3.3411 73.7973 2.63442 74.5502 1.54869Z" fill="#793620"/>
</g>
<path id="dancer-left-hand2" d="M73.2287 5.48685C73.2287 5.48685 75.2878 3.54668 77.5697 3.80366C79.8516 4.06063 78.1152 4.67095 73.5668 6.09717L73.2287 5.48685Z" fill="#793620"/>
<g id="Group_2">
<path id="dancer-right-hand" d="M74.0201 0.000413005C73.828 -0.0188606 72.6448 0.642854 72.4527 0.642854C71.8842 0.630006 71.6306 2.0755 71.5077 2.61515C70.5857 3.76511 70.2553 5.92372 70.5627 6.63682C70.5627 6.63682 72.6218 7.02229 74.4888 6.03293C74.4888 6.03293 74.6194 5.96226 75.2263 4.38186C75.2878 4.22125 74.2199 3.41177 74.266 3.27686C74.6962 3.01346 74.5041 0.141749 74.0201 0.000413005Z" fill="#793620"/>
</g>
<path id="dancer-right-arm" d="M85.1069 19.1644C87.4349 17.7896 91.3303 16.5754 91.3303 16.5754C87.5041 11.4744 69.487 12.1104 66.8824 12.2646C65.0154 12.8942 65.0231 12.9841 64.2164 14.0891C63.863 14.571 61.9268 15.3098 64.8541 16.0807C74.4811 18.7468 82.2949 20.8219 85.1069 19.1644Z" fill="#232832"/>
<g id="Group_3">
<path id="dancer-left-shoe" d="M77.3546 81.07C77.3546 81.07 78.0538 81.3013 78.0768 81.4876C78.0999 81.6803 78.6915 84.1601 78.5609 84.6098C78.4302 85.066 69.3871 86.5307 69.3871 86.5307C69.3871 86.5307 64.7619 86.6592 64.2317 86.1902C63.7016 85.7213 63.8706 85.3294 64.1395 85.2458C64.4085 85.1688 74.7193 81.025 74.7193 81.025L77.3546 81.07Z" fill="#D5D4D5"/>
</g>
<path id="Vector_2" d="M75.8487 78.5002C75.8487 78.5002 74.2122 78.5516 73.3593 79.7209C73.3593 79.7209 74.2122 81.2434 75.2801 82.0786C76.0638 82.6825 78.5071 82.6118 77.9616 81.9566C77.078 80.8644 75.8487 78.5002 75.8487 78.5002Z" fill="#9D4B36"/>
<path id="dancer-left-leg1" d="M71.5615 64.0517L68.6111 58.3533L64.4622 57.5502L59.3376 60.8524C59.3376 60.8524 65.5456 73.5856 73.3593 82.4962C73.3593 82.4962 79.406 84.6098 78.5762 81.8409C78.4302 81.3462 71.5615 64.0517 71.5615 64.0517Z" fill="#232832"/>
<path id="dancer-right-leg" d="M68.0426 15.4704C65.5609 16.6717 64.0704 16.1192 62.357 14.8858C62.626 13.0612 68.1348 5.51898 71.0006 4.96005C71.0006 4.96005 74.2813 5.90444 72.4604 7.54266C69.3871 10.3052 69.2719 12.4895 68.2424 15.1749C68.2039 15.2776 68.1117 15.374 68.0426 15.4704Z" fill="#232832"/>
<path id="dancer-thigh" d="M67.5509 37.9622C67.5509 37.9622 60.4439 53.2138 59.3376 60.8524C59.3376 60.8524 62.7719 62.1373 64.1088 61.4498C64.1088 61.4498 62.7028 62.7861 67.3742 59.9851C67.3742 59.9851 81.8723 46.1212 82.0721 45.6137C83.2245 42.6135 82.6252 33.6065 81.1578 32.8934C76.3788 30.5549 73.4131 35.7458 67.5509 37.9622Z" fill="#232832"/>
<path id="dancer-torso" d="M82.6637 45.9156C82.6637 45.9156 83.0786 40.9367 83.4089 40.2108C83.6087 39.7675 89.3019 31.4543 89.3019 31.4543L94.6264 23.9313C96.3474 20.2694 88.7026 14.4425 88.7026 14.4425C83.3859 11.1853 80.6968 14.5517 80.6968 14.5517C73.5898 22.6978 67.5509 37.9622 67.5509 37.9622C68.7879 39.806 70.5704 38.7717 73.7896 39.9988L81.0272 53.6699C81.0272 53.6699 82.1412 50.1043 82.6637 45.9156Z" fill="#232832"/>
<path id="Vector_3" d="M87.2275 14.9564C87.2275 14.9564 85.8291 15.0014 83.8085 16.3891C81.4036 18.0337 80.935 20.2501 80.935 20.2501L89.348 18.3806L91.9987 17.9245L87.2275 14.9564Z" fill="#DCDBDB"/>
<path id="dancer-right-bicep" d="M91.7912 26.7259C96.1246 23.4688 92.9898 21.0082 92.9898 21.0082C86.1288 20.0574 76.4556 21.1174 71.7228 22.3381C69.8174 24.1883 74.1737 25.6723 74.2429 27.2784C77.1932 28.3063 89.1329 28.7239 91.7912 26.7259Z" fill="#232832"/>
<path id="Vector_4" d="M89.0407 11.3459C88.8025 12.1361 88.8717 14.1791 86.8126 15.6438C86.8126 15.6438 89.8474 18.5477 92.2907 18.0466C92.2907 18.0466 92.1217 16.5882 94.4804 13.5431C95.4792 12.2518 89.0407 11.3459 89.0407 11.3459Z" fill="#793620"/>
<path id="dancer-head" d="M101.05 9.03955C101.05 9.03955 100.258 4.25979 95.9786 3.1805C95.9786 3.1805 93.7044 2.94922 90.1932 5.59607C90.078 5.67959 89.7322 5.98796 89.6477 6.08432C87.6808 8.23007 86.5898 9.34792 87.0815 10.0867C87.0815 10.0867 89.8705 14.1791 94.0502 13.0484C97.8149 12.0269 100.904 10.5364 101.05 9.03955Z" fill="#9D4B36"/>
<path id="dancer-right-hand2" d="M62.0574 14.9629C62.0574 14.9629 63.6094 12.2389 62.2648 10.2859C60.928 8.33287 60.9203 10.1767 61.12 14.9243L62.0574 14.9629Z" fill="#9D4B36"/>
<path id="dancer-left-hand" d="M57.6242 15.4575C57.9085 15.5989 58.016 15.7338 58.0621 15.7788C58.3925 16.0486 59.0072 16.1449 59.1378 16.1706C60.006 15.798 60.6591 15.7402 61.9037 14.7252C61.9037 14.7252 61.6118 10.5236 59.0456 10.6071C59.0456 10.6071 59.0225 10.3116 57.3246 11.6029C57.1402 11.7378 56.2489 13.0548 56.1029 13.1704C56.464 14.3397 56.6484 14.6031 57.6242 15.4575Z" fill="#9D4B36"/>
<path id="dancer-left-arm" d="M76.2789 23.2311C74.1584 24.9592 76.9397 27.5354 75.0573 27.6254C68.7264 28.0879 60.0751 18.4898 58.8228 16.0486C58.8228 16.0486 60.9587 12.9456 62.7796 14.4746C72.0532 22.2546 76.156 23.154 76.2789 23.2311Z" fill="#232832"/>
<path id="dancer-hair" d="M93.6813 13.5559C93.6813 13.5559 95.218 11.1146 96.7239 9.83618C98.2221 8.55773 98.7676 8.0245 98.199 6.81029C97.6305 5.59608 95.4792 3.91288 95.3409 3.60451C95.2103 3.29614 95.1488 2.72436 95.1719 2.71794C95.1949 2.70509 95.4715 1.40736 97.8379 2.40957C100.197 3.41178 105.467 7.71613 100.535 11.4166C95.6021 15.117 92.9745 12.7657 93.6813 13.5559Z" fill="#232832"/>
<path id="Vector_5" d="M97.7227 8.46777L99.3131 11.6736C99.3131 11.6736 97.5306 13.2989 94.2345 13.2668C90.9385 13.2347 94.611 10.106 94.6341 10.0674C94.6571 10.0353 97.7227 8.46777 97.7227 8.46777Z" fill="#9D4B36"/>
<path id="Vector_6" d="M71.5999 7.90243C71.5999 7.90243 71.8534 7.79321 72.1992 7.57478C72.1992 7.57478 71.4155 5.98153 69.4717 5.19133L68.7571 5.87232C68.7571 5.87232 70.6856 6.37342 71.5999 7.90243Z" fill="white"/>
<path id="Vector_7" d="M87.4503 16.4148L89.2404 14.4746L93.2664 16.0036L91.9987 17.9245C91.9987 17.9245 90.585 18.1943 89.9627 17.9759C88.2032 17.3592 87.4503 16.4148 87.4503 16.4148Z" fill="#DCDBDB"/>
<path id="Vector_8" d="M86.8356 15.9586L88.3569 14.012L87.7192 13.421L85.3989 15.4832L86.8356 15.9586Z" fill="#DCDBDB"/>
<path id="Vector_9" d="M84.6382 19.4278C84.6382 19.4278 89.7168 16.5754 89.786 16.6075C89.8551 16.6396 92.7056 17.1921 92.7056 17.1921L93.1128 19.2608L84.6382 19.4278Z" fill="#232832"/>
<path id="Vector_10" d="M97.9225 8.2365L99.3976 11.5386L99.8893 11.3009L98.2912 8.01807L97.9225 8.2365Z" fill="#9D4B36"/>
<path id="Vector_11" d="M94.9491 11.6414C93.7044 11.2688 92.4828 11.4487 92.2369 12.0462C91.9834 12.6436 92.7901 13.4338 94.0424 13.8065C95.2948 14.1791 96.5087 13.9928 96.7623 13.3953C97.0082 12.7978 96.2014 12.0141 94.9491 11.6414Z" fill="#9D4B36"/>
<path id="Vector_12" d="M9.06658 12.2518C8.90523 12.0462 8.81304 11.802 8.81304 11.5386C8.81304 10.7998 9.52757 10.1959 10.4035 10.1959C10.7415 10.1959 11.0565 10.2859 11.3101 10.4401C11.4484 10.408 11.5943 10.3887 11.7403 10.3887C12.6162 10.3887 13.3307 10.9926 13.3307 11.7314C13.3307 11.7956 13.3231 11.8663 13.3077 11.9305C13.592 12.1747 13.7687 12.5087 13.7687 12.8749C13.7687 13.0355 13.7379 13.1833 13.6765 13.3246C13.7379 13.466 13.7687 13.6202 13.7687 13.7808C13.7687 14.5196 13.0618 15.117 12.1859 15.117C12.1475 15.117 12.1091 15.117 12.063 15.1106C11.8325 15.2327 11.5559 15.2969 11.264 15.2969C10.7261 15.2969 10.2498 15.0721 9.95783 14.7316H9.89636C9.02048 14.7316 8.31363 14.1341 8.31363 13.3953C8.31363 12.9135 8.61327 12.4895 9.06658 12.2518Z" fill="#232832"/>
<path id="trumpet-left-shoe" d="M6.47735 79.2776C6.47735 79.2776 4.14935 79.9714 4.01105 81.7188C3.8497 83.8774 5.47854 83.8646 7.3686 83.7425C8.22911 83.6847 16.9572 84.1794 18.2326 83.0872C18.2326 83.0872 19.5541 81.9116 14.7291 81.1214C11.3715 80.5689 12.4702 80.3504 8.12155 78.9499L6.47735 79.2776Z" fill="#E9E9E9"/>
<path id="Vector_13" d="M38.278 10.2602C38.278 10.2602 38.9541 9.03955 37.8938 9.03955C37.0103 9.03955 36.6261 12.316 36.8182 12.6886C37.018 13.0677 38.109 12.9327 38.1704 12.8107C38.3625 12.4381 38.3395 11.5836 38.278 10.2602Z" fill="#793620"/>
<path id="Vector_14" d="M39.684 14.8215C39.684 14.8215 38.2319 12.3674 35.8347 12.0976C33.4299 11.8213 34.9896 12.8492 39.1385 15.3676L39.684 14.8215Z" fill="#793620"/>
<path id="Vector_15" d="M39.6917 9.04598C39.8838 9.11022 40.5829 10.2152 40.7673 10.2923C41.2975 10.5236 40.6828 11.9691 40.4754 12.5216C40.6521 13.9863 39.6917 16.1192 38.9848 16.6589C38.9848 16.6589 36.7875 17.0765 35.635 15.3804C35.635 15.3804 35.6196 14.3333 35.9807 12.6051C36.0191 12.4316 37.4943 12.1297 37.525 11.9819C37.2869 11.5643 39.1616 8.96889 39.6917 9.04598Z" fill="#793620"/>
<path id="trumpet-left-leg" d="M16.8343 67.0969C16.8343 67.0969 23.365 67.3796 23.872 68.7673C23.872 68.7673 10.3727 80.0742 9.02815 80.691C8.03702 81.1407 5.57073 80.5303 6.32368 79.9714C7.56835 79.0592 16.8343 67.0969 16.8343 67.0969Z" fill="#793620"/>
<path id="trumpet-left-leg-lower" d="M20.1918 62.8568L24.5635 60.6532L29.4884 60.4605L31.002 61.7068C31.002 61.7068 30.4411 66.7885 24.3177 69.7502C24.3177 69.7502 13.5305 68.4139 15.6587 65.9983C17.4873 63.9361 20.1918 62.8568 20.1918 62.8568Z" fill="#232832"/>
<path id="Vector_16" d="M17.8868 20.7512C16.5346 18.4963 14.7598 17.8667 14.7598 17.8667C22.8194 13.0933 35.9807 22.0233 38.3087 23.2568C39.6686 24.6251 40.3832 24.8693 40.4754 26.2377C40.5215 26.8287 36.726 26.9829 33.5451 26.469C23.0346 24.9078 19.5157 23.4623 17.8868 20.7512Z" fill="#793620"/>
<path id="trumpet-left-bicep" d="M21.7438 16.1706C21.7438 16.1706 25.0553 15.9458 28.3897 18.2007L28.7893 17.0187L31.002 17.6033C31.002 17.6033 27.1758 25.486 26.3691 25.8779L25.2089 25.5246L21.7438 16.1706Z" fill="#BDBCBC"/>
<g id="Group_4">
<path id="trumpet-right-show" d="M44.2709 82.0529C44.2709 82.0529 43.5871 82.3998 43.6024 82.599C43.6178 82.7981 43.5256 85.4707 43.7561 85.914C43.9866 86.3637 53.6828 86.55 53.6828 86.55C53.6828 86.55 58.5155 85.9847 58.9688 85.4257C59.4221 84.854 59.1685 84.4749 58.8689 84.4299C58.5692 84.385 46.9984 81.6161 46.9984 81.6161L44.2709 82.0529Z" fill="#E9E9E9"/>
</g>
<path id="trumpet-right-leg" d="M39.3536 66.0433C39.3536 66.0433 44.3169 65.812 45.8843 66.4159C45.8843 66.4159 46.7218 80.9287 46.3684 82.1878C46.1071 83.1065 43.9174 84.2436 43.9328 83.402C43.9558 82.008 39.3536 66.0433 39.3536 66.0433Z" fill="#9D4B36"/>
<path id="trumpet-left-leg_2" d="M19.531 40.6797C19.531 40.6797 24.4175 39.7289 31.002 61.7068C31.002 61.7068 30.8099 63.9939 26.2538 64.8162C24.3868 65.1503 24.0872 65.8184 22.1971 64.4629C22.1971 64.4629 18.0789 58.4047 11.0258 49.4812C2.53587 38.7267 13.7456 42.6199 19.531 40.6797Z" fill="#232832"/>
<path id="trumpet-front-right-leg" d="M37.1255 64.5528L37.0641 59.4262L38.8466 55.3531L45.6308 55.7257C45.6308 55.7257 48.5658 56.8628 47.8973 68.5167C47.8973 68.5167 38.4854 70.8937 37.2946 68.0606C37.0794 67.553 37.1255 64.5528 37.1255 64.5528Z" fill="#232832"/>
<path id="trumpet-left-hand" d="M36.1036 25.9165C37.7017 28.0751 39.4151 28.1843 41.7354 27.7603C42.5575 25.955 41.8968 16.6332 39.5688 14.9179C39.5688 14.9179 35.9577 14.4168 36.6876 16.7039C37.9092 20.5585 36.726 22.6336 36.096 25.5567C36.0652 25.6723 36.1036 25.8008 36.1036 25.9165Z" fill="#793620"/>
<path id="trumpet-left-leg_3" d="M24.0027 40.0309C24.0027 40.0309 39.3613 49.5775 45.6308 55.7257C45.6308 55.7257 43.5179 58.546 41.8584 58.5974C41.8584 58.5974 44.025 59.0857 37.986 58.9251C37.986 58.9251 13.3692 49.8538 12.839 49.5005C9.75039 47.4382 6.63102 41.0845 7.42239 39.7289C9.99625 35.3282 17.326 40.9817 24.0027 40.0309Z" fill="#232832"/>
<path id="trumper-torso" d="M7.56835 44.9263C7.56835 44.9263 6.7693 39.3563 6.89992 38.5404C6.97675 38.0457 6.41588 32.206 6.41588 32.206L6.89992 22.8584C7.46079 18.734 18.4631 15.7788 18.4631 15.7788C25.3318 14.9821 24.9016 19.7619 24.9016 19.7619C26.6841 30.3108 24.5558 39.5234 24.5558 39.5234C21.5825 42.8384 17.7486 44.059 14.875 44.483C14.875 44.483 12.0476 44.7978 7.56835 44.9263Z" fill="#E9E9E9"/>
<path id="trumpet-chest" d="M18.4631 15.7788C18.9702 15.7209 19.4312 15.6952 19.8614 15.6888L19.0009 14.6224L20.0612 13.5752L24.794 14.1791L22.151 15.9972C25.1474 16.9416 24.9016 19.7619 24.9016 19.7619C26.6841 30.3108 24.5558 39.5234 24.5558 39.5234C24.4406 39.6454 24.3253 39.7675 24.2101 39.8895C25.0783 33.2853 24.2485 26.848 19.0624 21.4451C17.9022 20.2309 16.427 18.9139 14.7598 17.6868C14.56 17.4748 14.3449 17.2692 14.1375 17.0636C16.4347 16.2156 18.4631 15.7788 18.4631 15.7788Z" fill="#BDBCBC"/>
<path id="trumpet-front-torso" d="M18.5937 16.9351C18.5937 16.9351 25.6161 18.6569 24.3407 38.8038C24.3407 38.8038 10.5802 20.732 12.1091 18.2457C13.6457 15.7595 18.5937 16.9351 18.5937 16.9351Z" fill="#793620"/>
<path id="trumpet-right-bicep" d="M8.54412 26.3212C5.71671 21.747 9.90404 20.308 9.90404 20.308C17.0801 21.535 26.1386 25.6338 30.2568 28.3256C31.317 30.7476 26.3614 30.8376 25.5854 32.3987C22.2202 32.4822 10.2728 29.1222 8.54412 26.3212Z" fill="#9D4B36"/>
<path id="Vector_17" d="M18.4708 12.3032C18.4708 12.3032 18.6552 15.843 18.5707 18.2136C18.5707 18.2136 14.3833 19.6527 12.4088 18.1622C12.4088 18.1622 12.5931 18.4385 13.1848 11.9755C13.3307 10.3566 18.4708 12.3032 18.4708 12.3032Z" fill="#793620"/>
<path id="Vector_18" d="M11.7403 18.3999C11.7403 18.3999 12.0169 14.8601 12.1398 14.8665C12.2551 14.8793 17.1569 16.1706 17.1569 16.1706L13.8224 19.8582L14.2066 22.2995L11.7403 20.0638V18.3999Z" fill="#E9E9E9"/>
<path id="trumpet-head" d="M12.3012 5.51255C12.3012 5.51255 17.1723 2.51235 21.2828 4.45252C21.2828 4.45252 23.6723 5.58322 23.872 9.75908C23.8797 9.89399 23.9181 10.0225 23.9412 10.1445C24.4099 12.8042 22.6735 15.3547 20.4454 15.9972C20.4454 15.9972 15.8739 16.4083 13.8301 12.9135C11.9862 9.7655 11.0719 6.70106 12.3012 5.51255Z" fill="#9D4B36"/>
<path id="Vector_19" d="M42.2118 13.6523C42.2579 13.8129 42.1426 13.9799 41.9505 14.0185L38.9157 14.6609C38.7236 14.7059 38.5315 14.6095 38.4777 14.4489C38.4316 14.2883 38.5469 14.1213 38.739 14.0827L41.7815 13.4338C41.9659 13.3953 42.158 13.4917 42.2118 13.6523Z" fill="#F7981A"/>
<path id="Vector_20" d="M37.0026 13.2347L37.0103 13.5174C37.1025 13.8129 36.9642 14.102 36.7029 14.1598C36.4417 14.2112 36.1574 14.0185 36.0729 13.7165L35.95 13.466L35.7656 13.4531V13.466L35.9654 13.9799C36.0576 14.2819 36.4187 14.4617 36.7721 14.3847C37.1255 14.314 37.3406 14.0056 37.2561 13.7101L37.1639 13.1704V13.1512L37.0026 13.2347Z" fill="#F7981A"/>
<path id="Vector_21" d="M36.2266 14.3011C36.1037 14.224 36.0038 14.1148 35.9654 13.9799L35.7656 13.466V13.4531L35.95 13.466L36.0729 13.7165C36.1498 13.9799 36.3802 14.1662 36.6107 14.1662C36.6415 14.1662 36.6722 14.1662 36.7029 14.1598C36.9104 14.1148 37.041 13.9221 37.041 13.6972C37.041 13.6394 37.0256 13.5752 37.0103 13.5174L37.0026 13.2347L37.1639 13.1512V13.1704L37.2561 13.7101C37.2638 13.7551 37.2715 13.8 37.2715 13.845C37.2715 13.9349 37.2484 14.0185 37.2023 14.0956L36.2266 14.3011Z" fill="#FBC61A"/>
<path id="Vector_22" d="M36.6876 8.30716C36.6722 8.24292 36.5954 8.20437 36.5186 8.22364C36.4417 8.23649 36.3956 8.30716 36.4187 8.36498L36.6108 9.00742C36.6261 9.07166 36.703 9.11021 36.7798 9.09736C36.8566 9.07809 36.9027 9.01384 36.8797 8.9496L36.6876 8.30716Z" fill="white"/>
<path id="Vector_23" d="M37.1025 8.1594C37.1178 8.23007 36.8873 8.33929 36.5723 8.40995C36.265 8.4742 35.9961 8.46777 35.973 8.39711C35.95 8.33286 36.1882 8.22365 36.4955 8.15298C36.8105 8.08873 37.0794 8.09516 37.1025 8.1594Z" fill="white"/>
<path id="Vector_24" d="M38.5239 7.9217C38.5008 7.85746 38.424 7.81891 38.3472 7.83176C38.278 7.85103 38.2319 7.91528 38.2473 7.97952L38.4393 8.62196C38.4547 8.67979 38.5392 8.72475 38.6084 8.70548C38.6852 8.68621 38.7313 8.62196 38.7159 8.55772L38.5239 7.9217Z" fill="white"/>
<path id="Vector_25" d="M38.9311 7.77394C38.9541 7.8446 38.7159 7.95382 38.4086 8.01806C38.0936 8.08231 37.8247 8.08231 37.8016 8.01164C37.7863 7.94097 38.0168 7.83176 38.3318 7.76751C38.6391 7.69684 38.908 7.70327 38.9311 7.77394Z" fill="white"/>
<path id="Vector_26" d="M40.4216 7.51696C40.3986 7.45272 40.3217 7.41417 40.2449 7.43344C40.1681 7.44629 40.122 7.51054 40.145 7.57478L40.3371 8.21722C40.3525 8.28147 40.4293 8.32001 40.5061 8.30074C40.583 8.28789 40.629 8.22365 40.6137 8.1594L40.4216 7.51696Z" fill="white"/>
<path id="Vector_27" d="M40.8288 7.3692C40.8442 7.43987 40.6137 7.54909 40.2987 7.61333C39.9913 7.67757 39.7224 7.67757 39.6994 7.60691C39.684 7.53624 39.9145 7.42702 40.2295 7.36278C40.5368 7.29853 40.8057 7.29853 40.8288 7.3692Z" fill="white"/>
<path id="Vector_28" d="M36.9181 9.54708C37.5404 9.41216 37.4559 9.11664 37.4021 8.93033C37.3406 8.74403 37.064 8.80827 36.7183 8.87894C36.3649 8.95603 36.0883 9.01385 36.1421 9.20016C36.1958 9.38647 36.2573 9.68841 36.9181 9.54708Z" fill="#FAB43D"/>
<path id="Vector_29" d="M38.7467 9.15519C39.3767 9.02671 39.2845 8.72476 39.2307 8.54488C39.1769 8.35857 38.8927 8.41639 38.5469 8.49348C38.2012 8.56415 37.9169 8.62197 37.9707 8.80828C38.0321 8.99458 38.0936 9.29653 38.7467 9.15519Z" fill="#FAB43D"/>
<path id="Vector_30" d="M40.6367 8.72475C41.2667 8.59626 41.1745 8.30074 41.1208 8.11443C41.067 7.92812 40.7827 7.98594 40.437 8.06304C40.0912 8.13371 39.8069 8.19153 39.8607 8.37783C39.9145 8.56414 39.976 8.86609 40.6367 8.72475Z" fill="#FAB43D"/>
<path id="Vector_31" d="M38.278 14.6031C38.3395 14.8087 38.1243 15.0399 37.8016 15.1042L35.8732 15.5154C35.5505 15.586 35.2431 15.4704 35.1817 15.2648L35.1663 15.2198C35.1048 15.0078 35.3123 14.783 35.635 14.7123L37.5635 14.3076C37.8862 14.2369 38.2012 14.3525 38.2626 14.5581L38.278 14.6031ZM37.7325 13.9799L35.3046 14.4939C34.8974 14.5838 34.6515 14.9372 34.7591 15.2905L34.7822 15.3612C34.8897 15.7145 35.3046 15.9265 35.7041 15.843L38.1397 15.3226C38.5469 15.2391 38.7851 14.8858 38.6852 14.5324L38.6622 14.4617C38.5546 14.1084 38.1397 13.89 37.7325 13.9799Z" fill="#F7981A"/>
<path id="Vector_32" d="M46.4913 12.8685C46.5528 13.0741 46.2377 13.3246 45.7844 13.421L43.08 13.9928C42.6267 14.0891 42.2041 13.9992 42.1426 13.7872L42.1273 13.7486C42.0658 13.5366 42.3808 13.2925 42.8341 13.1961L45.5463 12.6179C45.9996 12.5216 46.4145 12.6115 46.4759 12.8235L46.4913 12.8685ZM45.8152 12.2646L42.4038 12.9906C41.8276 13.1126 41.4511 13.4917 41.5587 13.845L41.5817 13.9157C41.6816 14.269 42.2348 14.4553 42.8034 14.3333L46.2147 13.6073C46.7833 13.4852 47.1597 13.1062 47.0598 12.7529L47.0368 12.6822C46.9292 12.3288 46.3837 12.1425 45.8152 12.2646Z" fill="#F7981A"/>
<path id="Vector_33" d="M23.9796 13.1383L23.1498 13.3953L22.7272 11.9627L23.5954 11.8599L23.9796 13.1383Z" fill="white"/>
<path id="Vector_34" d="M25.3703 12.5922L23.7568 13.0163L23.4725 12.059L25.1244 11.7828L25.3703 12.5922Z" fill="white"/>
<path id="Vector_35" d="M29.2887 11.7314L25.1551 12.6115L24.9246 11.8534L29.0582 10.9733L29.2887 11.7314Z" fill="white"/>
<path id="Vector_36" d="M22.9116 12.5922L23.1498 13.3953L23.9796 13.1383L23.7645 12.4252C23.4802 12.483 23.1959 12.5344 22.9116 12.5922Z" fill="#D3D2D2"/>
<path id="Vector_37" d="M23.5878 12.4573L23.7568 13.0163L25.3703 12.5922L25.2397 12.1618C24.6865 12.2582 24.141 12.3545 23.5878 12.4573Z" fill="#D3D2D2"/>
<path id="Vector_38" d="M25.5393 12.104C25.3703 12.1361 25.2012 12.1682 25.0322 12.1939L25.1551 12.6115L29.2887 11.7314L29.1734 11.3523C27.9595 11.6093 26.7609 11.8856 25.5393 12.104Z" fill="#D3D2D2"/>
<path id="Vector_39" d="M31.6705 11.2945L27.9057 12.0911L27.6445 11.211L31.4016 10.4079L31.6705 11.2945Z" fill="#F7981A"/>
<path id="Vector_40" d="M39.5227 16.2349C39.5611 16.3441 39.4766 16.4533 39.3459 16.479L38.6775 16.6268C38.5469 16.6525 38.4163 16.5882 38.3779 16.4726L36.4494 10.0225C36.4187 9.91327 36.4955 9.79763 36.6261 9.77193L37.2945 9.6306C37.4252 9.59847 37.5635 9.66914 37.5942 9.77836L39.5227 16.2349Z" fill="#F7981A"/>
<path id="Vector_41" d="M41.3589 15.843C41.3897 15.9522 41.3128 16.0678 41.1822 16.0935L40.5061 16.2349C40.3755 16.2606 40.2449 16.1963 40.2141 16.0871L38.278 9.6306C38.2473 9.52138 38.3241 9.41217 38.4547 9.38004L39.1308 9.23871C39.2614 9.21301 39.392 9.27725 39.4228 9.38647L41.3589 15.843Z" fill="#F7981A"/>
<path id="Vector_42" d="M43.2567 15.4383C43.2874 15.5475 43.2106 15.6631 43.08 15.6888L42.4038 15.8302C42.2732 15.8623 42.1426 15.7916 42.1119 15.6824L40.1757 9.22587C40.145 9.11665 40.2218 9.00744 40.3524 8.98174L41.0286 8.83398C41.1592 8.80828 41.2898 8.87252 41.3205 8.98816L43.2567 15.4383Z" fill="#F7981A"/>
<path id="Vector_43" d="M57.3015 4.89582C56.8021 3.21262 55.9877 1.66434 55.3116 1.76713L55.2808 1.77355C54.9812 1.8378 54.9197 2.39672 54.8583 2.90425C54.2513 4.96648 48.4966 6.34131 43.5025 7.71613V7.7097C43.5025 7.7097 43.4564 7.72898 43.3719 7.75467C43.2797 7.78037 43.1799 7.80607 43.0877 7.83177C42.7726 7.90243 42.3885 7.93456 42.2732 7.69685C42.0735 7.29212 42.788 7.15721 42.8572 7.06726C42.9263 6.98375 42.7573 6.95805 42.7573 6.95805C42.1119 7.09938 41.8046 7.46558 42.0427 7.87031C42.0965 7.96026 42.1964 8.01165 42.327 8.03735C35.7041 9.79763 28.9967 11.0311 28.9967 11.0311L29.1965 11.7121C29.1965 11.7121 53.8518 5.42262 56.1106 7.4463C56.6715 7.90243 56.9865 8.49348 57.363 8.40996H57.3707C58.0468 8.24935 57.8086 6.59186 57.3015 4.89582Z" fill="#F7981A"/>
<path id="Vector_44" d="M27.8289 11.8213C27.8289 11.8213 46.2685 7.50412 51.2241 6.81029C55.98 6.14857 56.1414 6.31561 56.5409 6.37985C57.2093 6.48264 57.3707 7.18933 57.3937 7.27284C57.3937 7.27284 56.8789 7.25357 55.665 7.12508C53.4753 6.88096 52.6225 6.62398 41.5203 8.91107C30.4258 11.1982 27.898 12.0269 27.898 12.0269L27.8289 11.8213Z" fill="#CC621C"/>
<path id="Vector_45" d="M43.5102 15.541C43.541 15.6631 43.4564 15.7916 43.3105 15.8237L42.2732 16.0422C42.1273 16.0743 41.9813 15.9972 41.9429 15.8751C41.9044 15.7531 41.989 15.6246 42.1426 15.5924L43.1722 15.374C43.3181 15.3419 43.4718 15.419 43.5102 15.541Z" fill="#F7981A"/>
<path id="Vector_46" d="M41.6125 15.9458C41.6509 16.0678 41.5587 16.1899 41.4127 16.222L40.3755 16.4405C40.2295 16.4726 40.0835 16.4019 40.0451 16.2734C40.0067 16.1514 40.0989 16.0293 40.2449 15.9972L41.2744 15.7788C41.4281 15.7466 41.5741 15.8173 41.6125 15.9458Z" fill="#F7981A"/>
<path id="Vector_47" d="M39.7762 16.3313C39.8146 16.4597 39.7301 16.5818 39.5841 16.6139L38.5469 16.8324C38.4009 16.8645 38.2473 16.7874 38.2165 16.6653C38.1781 16.5433 38.2626 16.4148 38.4086 16.3826L39.4458 16.1642C39.5918 16.1321 39.7455 16.2092 39.7762 16.3313Z" fill="#F7981A"/>
<path id="Vector_48" d="M48.6195 10.4465C48.9883 11.6736 47.7513 12.997 45.8536 13.4017L34.5132 15.8109C32.6155 16.2156 30.7792 15.5475 30.4104 14.314L30.3336 14.0634C29.9648 12.8364 31.2095 11.5129 33.1072 11.1082L44.4399 8.69906C46.3376 8.29432 48.1739 8.96246 48.5427 10.1959L48.6195 10.4465ZM44.9009 7.90243L32.2544 10.5943C30.1338 11.044 28.7893 12.6629 29.2579 14.2112L29.3501 14.5324C29.8111 16.0807 31.9086 16.9737 34.0292 16.524L46.6834 13.8386C48.7962 13.3824 50.1408 11.7635 49.6798 10.2152L49.5799 9.894C49.1189 8.34572 47.0214 7.45272 44.9009 7.90243Z" fill="#F7981A"/>
<path id="Vector_49" d="M35.6196 15.5346C35.4506 15.5154 35.3046 15.4511 35.2201 15.3483C35.3046 15.4511 35.4506 15.5154 35.6196 15.5346ZM34.7821 15.3676V15.3612L34.7591 15.2905C34.7437 15.2327 34.736 15.1813 34.736 15.1235C34.736 15.1813 34.7437 15.2327 34.7591 15.2905L34.7821 15.3612V15.3676ZM35.3046 14.4939L35.6887 14.4168L35.3046 14.4939ZM36.8412 11.3459L36.5569 10.3758L36.8412 11.3459Z" fill="white"/>
<path id="Vector_50" d="M37.0948 12.1811L36.8412 11.3459L37.0948 12.1811Z" fill="#B2582A"/>
<path id="Vector_51" d="M37.9015 14.8858L37.7248 14.2883C37.6864 14.2883 37.6557 14.2883 37.6172 14.2947C37.6557 14.2883 37.6864 14.2883 37.7248 14.2883L37.9015 14.8858ZM35.6657 14.7123L37.5635 14.3076L35.6657 14.7123ZM35.6888 14.4168L36.2266 14.3011L35.6888 14.4168ZM37.2024 14.0956L37.6403 13.9992L37.0948 12.1811L37.6403 13.9992L37.2024 14.0956Z" fill="#B2582A"/>
<path id="Vector_52" d="M36.2266 14.3011L37.2023 14.0956L36.2266 14.3011Z" fill="#FDDD22"/>
<path id="Vector_53" d="M35.2201 15.6117C35.197 15.5924 35.1586 15.5796 35.1202 15.5732C35.0895 15.5603 35.0664 15.5603 35.0357 15.5603C34.9896 15.5603 34.9435 15.5667 34.9051 15.586C34.8513 15.5218 34.8129 15.4511 34.7898 15.374H34.7821C34.7821 15.374 34.7821 15.374 34.7821 15.3676V15.3612L34.7591 15.2905C34.7437 15.2327 34.736 15.1813 34.736 15.1235C34.736 14.8344 34.9665 14.571 35.3046 14.4939L35.6888 14.4168L36.2266 14.3011L37.2023 14.0956L37.6403 13.9992L37.7248 14.2883C37.6864 14.2883 37.6556 14.2883 37.6172 14.2947C37.6019 14.3011 37.5865 14.3011 37.5634 14.3076L35.6657 14.7123H35.635C35.3507 14.7765 35.1586 14.9564 35.1586 15.1427C35.1586 15.1684 35.1586 15.1941 35.1663 15.2198L35.1817 15.2648V15.2712C35.1893 15.2969 35.2047 15.3226 35.2201 15.3483C35.3046 15.4511 35.4506 15.5153 35.6196 15.5346C35.489 15.5603 35.3584 15.586 35.2201 15.6117Z" fill="#FBC61A"/>
<path id="Vector_54" d="M37.9476 15.0335L37.9015 14.8858L37.7248 14.2883L37.6403 13.9992L37.0948 12.1811L36.8412 11.3459L36.557 10.3758L37.6172 10.151C37.5481 10.1831 37.4866 10.2345 37.4789 10.3052C37.3637 10.9026 37.5481 11.4615 37.7171 12.0397C37.8938 12.6244 38.0321 13.2218 38.2088 13.8129C38.2934 14.1148 38.3856 14.4104 38.4701 14.7059C38.4931 14.7765 38.5162 14.8408 38.5315 14.905L38.5085 14.9115C38.3241 14.95 38.132 14.9885 37.9476 15.0335Z" fill="#FBC61A"/>
<path id="Vector_55" d="M37.8016 10.1124L38.3856 9.98394L37.8016 10.1124Z" fill="#B2582A"/>
<path id="Vector_56" d="M38.9464 14.0377C38.9464 14.0313 38.9464 14.0313 38.9464 14.0249L39.5534 13.8964L39.5611 13.9092L38.9464 14.0377ZM39.5303 9.75266V9.73981L39.5918 9.72696L39.5303 9.73981V9.75266Z" fill="#B2582A"/>
<path id="Vector_57" d="M39.1231 14.6031C39.0617 14.4168 39.0079 14.2305 38.9464 14.0377L39.5611 13.9092L39.7301 14.4746L39.1231 14.6031Z" fill="#FBC61A"/>
<path id="Vector_58" d="M39.7839 14.6673L39.7301 14.4746L39.5611 13.9093L39.5534 13.8964L38.3856 9.98394L39.5304 9.73981V9.75266L39.538 9.76551C39.4074 9.83618 39.2999 9.93897 39.2384 10.0739C39.1539 10.2409 39.2 10.4465 39.2538 10.6135C39.2999 10.7677 39.3767 10.9219 39.4305 11.0825C39.5227 11.3716 39.5995 11.6607 39.6917 11.9562L40.4446 14.4682C40.2526 14.5324 40.0682 14.5902 39.8838 14.6545C39.853 14.6609 39.8223 14.6673 39.7839 14.6673Z" fill="#FBC61A"/>
<path id="Vector_59" d="M29.3501 14.5388V14.5324L29.2579 14.2112C29.0044 13.3696 29.2887 12.4959 29.9417 11.8085C29.2887 12.4959 29.0044 13.3696 29.2579 14.2112L29.3501 14.5324V14.5388ZM41.6432 14.1405L41.6279 14.0891L41.6432 14.1405ZM40.8672 13.633L40.8595 13.6201L41.4511 13.4917L40.8519 11.4744L41.4588 13.5045L40.8672 13.633ZM40.3524 9.82975L40.2833 9.58562L40.3524 9.82975ZM41.4819 9.51495L41.4281 9.34149L41.4435 9.33507L41.4281 9.34149L41.4819 9.51495Z" fill="white"/>
<path id="Vector_60" d="M40.8518 11.4744L40.3524 9.82976L40.8518 11.4744Z" fill="#B2582A"/>
<path id="Vector_61" d="M41.0362 14.1983L40.8672 13.633L41.4588 13.5045L41.551 13.8322C41.5587 13.8322 41.5587 13.8386 41.5587 13.845L41.5818 13.9157V13.9221L41.6279 14.0763L41.0362 14.1983ZM41.6279 14.0891V14.0827V14.0891Z" fill="#FBC61A"/>
<path id="Vector_62" d="M41.582 13.9221V13.9157L41.5588 13.845C41.5588 13.8386 41.5588 13.8322 41.551 13.8322L41.582 13.9221Z" fill="#FBC61A"/>
<path id="Vector_63" d="M41.6432 14.1405L41.6278 14.0891V14.0763L41.5818 13.9221L41.551 13.8322L41.4588 13.5045L40.8518 11.4744L40.3524 9.82975L40.2833 9.58563L41.4281 9.3415L41.4819 9.51496C41.4127 9.55351 41.3589 9.59205 41.2975 9.63702C41.0823 9.81691 40.8903 10.1189 40.9133 10.3887C40.9517 10.7613 40.9825 11.1339 41.0362 11.5065C41.0593 11.68 41.0977 11.8599 41.1438 12.0333C41.1515 12.0654 41.1592 12.0976 41.1745 12.1361C41.1976 12.2903 41.236 12.4445 41.2744 12.5987C41.3513 12.9135 41.4435 13.2283 41.5433 13.5495C41.5971 13.7358 41.6509 13.9285 41.7047 14.1148V14.1277L41.6432 14.1405Z" fill="#FBC61A"/>
<path id="Vector_64" d="M27.6522 11.211L31.4015 10.4079L27.6522 11.211ZM32.6078 10.3116C33.3223 10.1638 34.1137 9.99678 34.9665 9.81047C34.1137 9.99678 33.3223 10.1638 32.6078 10.3116ZM37.4021 8.93033C37.4021 8.92391 37.4021 8.92391 37.4021 8.92391C37.4021 8.92391 37.4021 8.92391 37.4021 8.93033ZM39.2691 8.79542C39.2768 8.72475 39.2614 8.6605 39.2461 8.60269C39.2614 8.6605 39.2768 8.72475 39.2691 8.79542ZM39.2307 8.54487C39.223 8.51917 39.2153 8.50632 39.2076 8.48705C39.2153 8.50632 39.223 8.51917 39.2307 8.54487ZM41.1592 8.33928C41.1592 8.30716 41.1592 8.26862 41.1515 8.23649C41.1592 8.26862 41.1592 8.30716 41.1592 8.33928ZM41.1208 8.11443C41.1208 8.11443 41.1208 8.11443 41.1208 8.10801C41.1208 8.11443 41.1208 8.11443 41.1208 8.11443ZM41.0823 8.05019C41.0516 8.01806 41.0055 7.99879 40.9517 7.99237C41.0055 7.99879 41.0516 8.01806 41.0823 8.05019ZM42.934 7.86388C42.934 7.86388 42.934 7.86388 42.934 7.85745C42.9878 7.85103 43.0339 7.8446 43.0876 7.83176C43.0339 7.8446 42.9878 7.85103 42.934 7.86388Z" fill="white"/>
<path id="Vector_65" d="M37.9937 9.11642C38.0244 9.11007 38.0552 9.10372 38.0859 9.09737C38.0552 9.10372 38.0244 9.11007 37.9937 9.11642Z" fill="#B2582A"/>
<path id="Vector_66" d="M36.3188 9.50853L36.3034 9.49569C36.4955 9.45072 36.6568 9.36077 36.7798 9.22586C36.8489 9.14877 36.895 9.07167 36.9642 8.99458C36.9642 8.98816 36.9718 8.98173 36.9795 8.97531C37.0026 8.95604 37.0256 8.93676 37.0487 8.91749L37.064 8.89821L37.0871 8.89179L37.1101 8.87894H37.1255C37.1793 8.86609 37.2254 8.84682 37.2561 8.8147C37.3253 8.82755 37.3714 8.85967 37.3944 8.92391C37.3944 8.92391 37.3944 8.92391 37.4021 8.92391C37.4021 8.92391 37.4021 8.92391 37.4021 8.93034C37.4251 9.0267 37.4636 9.14234 37.4175 9.25156C37.041 9.3415 36.6799 9.42502 36.3188 9.50853Z" fill="#FCD659"/>
<path id="Vector_67" d="M38.3394 9.03955C38.3625 9.0267 38.3855 9.02027 38.4009 9.00743C38.5546 8.94318 38.6314 8.81469 38.6621 8.67336L38.6775 8.62839L38.6929 8.60911L38.7313 8.57699L38.7697 8.53844C38.8158 8.51275 38.8696 8.49348 38.9157 8.46778L39.0079 8.42923L39.0463 8.42281C39.1154 8.42923 39.1692 8.4485 39.2076 8.48705C39.2153 8.50632 39.223 8.51917 39.2307 8.54487C39.2384 8.55772 39.2461 8.57699 39.2461 8.60269C39.2614 8.66051 39.2768 8.72475 39.2691 8.79542C39.2691 8.80185 39.2614 8.80827 39.2614 8.81469C38.9541 8.89179 38.6468 8.96246 38.3394 9.03955Z" fill="#FCD659"/>
<path id="Vector_68" d="M40.1834 8.58984C40.2065 8.57699 40.2372 8.55772 40.2602 8.53844C40.3601 8.46135 40.4139 8.35214 40.4677 8.24935C40.4754 8.2365 40.4907 8.19795 40.5061 8.17868L40.5292 8.14656L40.5599 8.12728L40.606 8.10159C40.6367 8.08874 40.6598 8.07589 40.6905 8.06304L40.7059 8.05661L40.7289 8.05019C40.7597 8.04377 40.7981 8.03092 40.8365 8.01807L40.8749 8.01164L40.9517 7.99237C41.0055 7.99879 41.0516 8.01807 41.0823 8.05019C41.09 8.05019 41.09 8.05019 41.09 8.05019V8.05661C41.0977 8.06946 41.1131 8.08874 41.1208 8.10801C41.1208 8.11444 41.1208 8.11443 41.1208 8.11443C41.1284 8.15298 41.1438 8.19153 41.1515 8.2365C41.1592 8.26862 41.1592 8.30716 41.1592 8.33929C40.8288 8.4228 40.5061 8.50632 40.1834 8.58984Z" fill="#FCD659"/>
<path id="Vector_69" d="M27.7059 11.4037L27.6983 11.3652C27.6829 11.3138 27.6675 11.2624 27.6522 11.211L31.4015 10.4079L31.4476 10.5493C29.9264 10.8577 28.9967 11.0311 28.9967 11.0311L29.0198 11.1275C29.0044 11.1339 28.989 11.1339 28.966 11.1403C28.5511 11.2238 28.1285 11.3138 27.7059 11.4037Z" fill="#FBC61A"/>
<path id="Vector_70" d="M30.7485 11.1468C30.7792 11.0697 30.7715 10.9797 30.7254 10.909C30.664 10.8191 30.5564 10.7741 30.4412 10.7741C30.3874 10.7741 30.3336 10.7806 30.2798 10.8063C30.1108 10.8769 29.8957 10.9219 29.6882 10.9733C29.4654 11.0247 29.2426 11.0761 29.0198 11.1275L28.9967 11.0311C28.9967 11.0311 29.9264 10.8577 31.4477 10.5493C31.8011 10.4786 32.1929 10.3951 32.6078 10.3116C33.3223 10.1638 34.1137 9.99678 34.9665 9.81048C35.4045 9.71411 35.8578 9.61132 36.3188 9.50853C36.6799 9.42501 37.041 9.34149 37.4175 9.25155C37.6096 9.21301 37.8016 9.16804 37.9937 9.11664C38.0244 9.11022 38.0552 9.10379 38.0859 9.09737C38.1704 9.09094 38.2626 9.06525 38.3395 9.03955C38.6468 8.96246 38.9541 8.89179 39.2614 8.81469C39.4842 8.7633 39.7147 8.70548 39.9376 8.64766C40.0221 8.64766 40.1066 8.62839 40.1834 8.58984C40.5061 8.50632 40.8288 8.4228 41.1592 8.33929C41.5433 8.24292 41.9352 8.14013 42.327 8.03734C42.1964 8.01164 42.0965 7.96025 42.0427 7.87031C41.989 7.78037 41.9659 7.684 41.9659 7.60048C41.9659 7.30496 42.2579 7.06726 42.7573 6.95804L42.7957 6.97089C42.7342 6.99016 42.6651 7.01586 42.5959 7.04156C42.3654 7.12508 42.1734 7.25356 42.0965 7.47199C42.0197 7.7097 42.2195 7.91528 42.496 7.93455C42.5191 7.94097 42.5345 7.94097 42.5498 7.94097C42.6804 7.94097 42.8187 7.90885 42.934 7.86388C42.9878 7.85103 43.0339 7.84461 43.0876 7.83176C43.1798 7.80606 43.2797 7.78036 43.3719 7.75467C43.4564 7.72897 43.5025 7.7097 43.5025 7.7097V7.71612C48.4966 6.3413 54.2513 4.96648 54.8583 2.90424C54.9044 2.5509 54.9428 2.17186 55.0657 1.95343H55.0888C55.0888 1.95343 55.1425 1.95985 55.1579 1.95985C55.1579 1.95985 55.1579 1.95985 55.1502 1.95343C55.2655 1.9727 55.3116 1.9984 55.4115 2.05622L55.4422 2.07549L55.5036 2.12047C55.5574 2.15901 55.6035 2.19756 55.6496 2.24253C55.6804 2.26823 55.7034 2.29392 55.7341 2.31962C55.7879 2.39029 55.834 2.46738 55.8801 2.54448C55.9262 2.61514 55.9646 2.68581 56.0031 2.7629L56.0261 2.80788L56.0338 2.82072V2.82715C56.0492 2.86569 56.0722 2.90424 56.0876 2.94279C56.1029 2.98134 56.1183 3.01988 56.1337 3.05843C56.1183 3.09697 56.1029 3.13552 56.0799 3.17407C55.8724 3.55311 55.6112 3.9193 55.3039 4.25979C54.9505 4.61956 54.5509 4.95363 54.113 5.24915C53.7058 5.49328 53.2678 5.69243 52.8145 5.85304C52.3151 6.01365 51.8004 6.13572 51.2856 6.24493C50.9706 6.3156 50.6402 6.367 50.3098 6.41197C50.0563 6.44409 49.8027 6.48906 49.5492 6.52118C49.311 6.53403 49.0728 6.54046 48.8347 6.5533C48.5888 6.57258 48.3506 6.59185 48.1124 6.6304C47.8666 6.66894 47.6284 6.75246 47.4056 6.8424C47.1136 6.95162 46.8908 7.22787 46.7986 7.47842C46.7833 7.52981 46.7756 7.57479 46.7679 7.61976C46.499 7.67758 46.2301 7.72897 45.9535 7.78679C45.6077 7.79321 45.262 7.82534 44.9009 7.90243L32.2544 10.5943C31.7242 10.7035 31.2402 10.8898 30.8253 11.1275C30.8023 11.1339 30.7715 11.1403 30.7485 11.1468Z" fill="#FBC61A"/>
<path id="Vector_71" d="M36.5339 10.3817L36.5487 10.3758L36.5339 10.3817Z" fill="white"/>
<path id="Vector_72" d="M39.9145 9.66213L40.1373 9.61133L39.9145 9.66213Z" fill="#B2582A"/>
<path id="Vector_73" d="M36.9565 9.00109C36.9565 9.00109 36.9565 8.99462 36.9642 8.98816C36.9642 8.99462 36.9642 8.99462 36.9642 8.99462C36.9565 9.00109 36.9565 9.00109 36.9565 9.00109Z" fill="#FCD659"/>
<path id="Vector_74" d="M40.5599 8.12736C40.5599 8.1209 40.5676 8.1209 40.5753 8.11443L40.5599 8.12736Z" fill="#FCD659"/>
<path id="Vector_75" d="M30.7177 11.1917C30.7254 11.1789 30.7408 11.166 30.7485 11.1468C30.7715 11.1403 30.8023 11.1339 30.8253 11.1275C30.7869 11.1468 30.7562 11.1725 30.7177 11.1917ZM46.7602 7.84461C46.5143 7.80607 46.2608 7.78679 46.0073 7.78679C45.9919 7.78679 45.9765 7.78679 45.9535 7.78679C46.2301 7.72897 46.499 7.67758 46.7679 7.61976C46.7525 7.69685 46.7525 7.76752 46.7602 7.84461Z" fill="#E28914"/>
<path id="Vector_76" d="M31.125 16.2991C30.2568 15.9458 29.596 15.329 29.3501 14.5388V14.5324L29.2579 14.2112C29.0044 13.3696 29.2887 12.4959 29.9417 11.8085C29.9417 11.8085 29.9417 11.8085 29.9494 11.8085C29.9494 11.8085 29.9494 11.8085 29.9494 11.802C30.0032 11.7506 30.057 11.6928 30.1185 11.6414C30.203 11.5772 30.3029 11.5258 30.3951 11.4487C30.4873 11.378 30.5718 11.3074 30.6717 11.2367C30.687 11.2238 30.7024 11.211 30.7177 11.1917C30.7562 11.1725 30.7869 11.1468 30.8253 11.1275C31.2402 10.8898 31.7242 10.7035 32.2544 10.5943L44.9009 7.90243C45.262 7.82534 45.6077 7.79321 45.9535 7.78679C45.9765 7.78679 45.9919 7.78679 46.0073 7.78679C46.2608 7.78679 46.5143 7.80606 46.7602 7.84461C46.7679 7.98595 46.8217 8.12086 46.8908 8.26219C46.7525 8.22365 46.6142 8.19795 46.4759 8.17868C46.1456 8.14013 45.8229 8.10801 45.5002 8.10801C45.3388 8.10801 45.1775 8.11443 45.0238 8.13371C44.7856 8.15298 44.5628 8.20437 44.3323 8.24935C44.0788 8.29432 43.8329 8.34571 43.5871 8.39711C43.3412 8.4485 43.0953 8.51275 42.8572 8.59626C42.8341 8.60269 42.8034 8.61554 42.7726 8.62196C42.6267 8.65408 42.4807 8.68621 42.3424 8.71833C42.0658 8.77615 41.7815 8.81469 41.5203 8.91106C41.3589 8.9753 41.3205 9.16804 41.3974 9.28368L41.4435 9.33507L41.4281 9.34149L40.2833 9.58562L40.1373 9.61132L39.9145 9.66272C39.9068 9.66272 39.8991 9.66272 39.8915 9.66272C39.8684 9.66272 39.8454 9.66272 39.8223 9.66914C39.7532 9.68199 39.6917 9.70126 39.6379 9.72053L39.5918 9.72696L39.5303 9.73981L38.3856 9.98394L37.8016 10.1124C37.8016 10.1124 37.8016 10.1124 37.794 10.1124C37.7325 10.1124 37.671 10.1253 37.6172 10.151L36.557 10.3758H36.5493L36.5339 10.3822V10.3694C36.4955 10.2473 36.3572 10.1638 36.2112 10.1638C36.1882 10.1638 36.1574 10.1638 36.1344 10.1702C35.4199 10.318 34.6976 10.4144 33.9908 10.5686C33.307 10.7292 32.6232 10.8898 31.9701 11.1146C31.463 11.2881 31.0174 11.5515 30.6793 11.9113C30.3182 12.316 30.1569 12.8107 30.08 13.3054C30.0032 13.8386 30.08 14.4104 30.4027 14.8858C30.4258 14.9115 30.4412 14.9436 30.4642 14.9693C30.4949 15.0335 30.5257 15.0978 30.5641 15.162C30.6947 15.374 30.9021 15.5539 31.0712 15.7402C31.1173 15.7916 31.1787 15.8687 31.2248 15.9394V15.9522C31.2172 16.0678 31.1787 16.2156 31.125 16.2991Z" fill="#FBC61A"/>
<path id="Vector_77" d="M44.1556 12.6115C43.8022 12.6822 43.4488 12.5087 43.3566 12.2132C43.272 11.9177 43.4795 11.6157 43.8329 11.5451C44.1863 11.468 44.5398 11.6479 44.6243 11.9434C44.7165 12.2389 44.5014 12.5344 44.1556 12.6115ZM43.7868 11.3973C43.3412 11.4937 43.0723 11.8727 43.1875 12.2518C43.2951 12.6244 43.7484 12.8492 44.194 12.7593C44.6397 12.6629 44.9086 12.2839 44.801 11.9048C44.6858 11.5322 44.2324 11.3074 43.7868 11.3973Z" fill="#F7981A"/>
<path id="Vector_78" d="M34.4134 14.9243C34.4134 14.9243 35.9039 12.0205 38.6545 11.5836C41.4051 11.1403 39.6763 12.4124 35.0818 15.5218L34.4134 14.9243Z" fill="#9D4B36"/>
<path id="Vector_79" d="M40.8519 15.2648C40.8365 15.3419 40.8211 15.419 40.8058 15.4832C40.7673 15.6053 40.7289 15.7209 40.6828 15.843C39.8607 16.3377 39.0079 16.8388 37.2946 17.3078C37.2946 17.3078 33.7065 15.8623 35.0588 13.9028C35.0588 13.9028 36.2804 13.2797 38.5315 12.5858C38.7774 12.5152 38.9925 12.4445 39.2 12.3867C40.2987 13.2475 40.7136 14.0891 40.8519 15.2648Z" fill="#9D4B36"/>
<path id="trumpet-right-arm" d="M22.9577 32.116C25.2934 33.0476 31.3017 32.9705 32.8998 32.5914C35.1509 32.0453 41.9582 23.0255 40.606 15.7081C40.606 15.7081 38.1166 15.5025 37.3867 17.3078C33.0073 28.2035 23.0346 32.0261 22.9577 32.116Z" fill="#9D4B36"/>
<path id="Vector_80" d="M15.1517 12.4316C15.6818 13.5174 15.5204 14.6095 14.7829 14.8601C14.053 15.117 13.0234 14.436 12.4933 13.3503C11.9631 12.2582 12.1245 11.1724 12.8621 10.9155C13.592 10.6649 14.6215 11.3395 15.1517 12.4316Z" fill="#9D4B36"/>
<path id="trumper-right-bicep" d="M8.95134 20.308C11.7173 19.4471 15.3207 21.0468 16.9956 21.9333L17.4412 20.9119L19.823 21.9655L20.3378 22.2032L16.2273 30.9853L14.5524 30.7026V29.8932C10.6954 29.3599 8.62865 27.5033 8.11388 27.2656C7.59142 27.0215 5.23269 21.4772 8.95134 20.308Z" fill="#E9E9E9"/>
<g id="trumpet-hair" filter="url(#filter1_dd)">
<path d="M8.93596 8.53844C8.93596 8.35213 9.02047 8.17225 9.15109 8.01806C9.02047 7.85745 8.93596 7.67757 8.93596 7.49126C8.93596 7.19574 9.12035 6.93234 9.41232 6.74603C9.32012 6.61112 9.26634 6.46978 9.26634 6.3156C9.26634 6.0265 9.44305 5.76952 9.71964 5.58321C9.44305 5.39048 9.26634 5.13351 9.26634 4.85083C9.26634 4.45252 9.61976 4.09918 10.1269 3.92572C10.1192 3.88075 10.1115 3.8422 10.1115 3.79723C10.1115 3.50813 10.3036 3.23831 10.6032 3.052C10.5725 2.97491 10.5571 2.89781 10.5571 2.81429C10.5571 2.2361 11.287 1.76712 12.1859 1.76712C12.3627 1.76712 12.5394 1.78639 12.7007 1.81851C12.9696 1.48444 13.5151 1.25317 14.1375 1.25317C14.4448 1.25317 14.7291 1.31099 14.9749 1.40735C15.1977 1.00261 15.797 0.713516 16.4962 0.713516C16.8957 0.713516 17.2645 0.803457 17.5488 0.964066C17.8254 0.803457 18.1942 0.713516 18.5937 0.713516C19.216 0.713516 19.7615 0.93837 20.0305 1.27244C20.1303 1.25959 20.2379 1.25317 20.3455 1.25317C21.1676 1.25317 21.8514 1.65791 21.9512 2.17186H21.9666C22.8655 2.17186 23.5878 2.64726 23.5878 3.22546C23.5878 3.45031 23.4802 3.66232 23.2881 3.83578C23.4802 4.00924 23.5878 4.22124 23.5878 4.4461C23.5878 5.03072 22.8655 5.4997 21.9666 5.4997C21.8129 5.4997 21.667 5.48685 21.5287 5.46115C21.2674 5.57679 20.9524 5.64746 20.6067 5.64746C20.2686 5.64746 19.9536 5.58321 19.6924 5.46758C19.4389 5.58321 19.1238 5.64746 18.7858 5.64746C18.6168 5.64746 18.4554 5.63461 18.3017 5.60249C18.0328 5.77595 17.664 5.88516 17.2568 5.90444C17.0955 6.16141 16.7651 6.37342 16.3656 6.47621C16.2964 6.74603 16.0736 6.98374 15.7586 7.14435C15.7586 7.17004 15.7586 7.18932 15.7586 7.21501C15.7586 7.48484 15.6049 7.72897 15.3514 7.91527C15.4129 8.02449 15.4436 8.14655 15.4436 8.26862C15.4436 8.51917 15.313 8.74402 15.0902 8.92391C15.313 9.10379 15.4436 9.33507 15.4436 9.57919C15.4436 9.89399 15.2362 10.1702 14.9135 10.363C14.9596 10.4593 14.9826 10.5686 14.9826 10.6778C14.9826 11.256 14.2604 11.7314 13.3615 11.7314C13.0004 11.7314 12.67 11.6543 12.4011 11.5258L12.3934 11.5194C12.1245 11.6479 11.7941 11.7314 11.4253 11.7314C10.5341 11.7314 9.80416 11.256 9.80416 10.6778C9.80416 10.5878 9.81952 10.5107 9.85026 10.4272C9.49683 10.2345 9.26634 9.94538 9.26634 9.62417C9.26634 9.49568 9.30475 9.37361 9.36622 9.25797C9.10499 9.07167 8.93596 8.82111 8.93596 8.53844Z" fill="#232832"/>
</g>
</g>
<defs>
<filter id="filter0_d" x="0" y="0" width="106.573" height="94.55" filterUnits="userSpaceOnUse" color-interpolation-filters="sRGB">
<feFlood flood-opacity="0" result="BackgroundImageFix"/>
<feColorMatrix in="SourceAlpha" type="matrix" values="0 0 0 0 0 0 0 0 0 0 0 0 0 0 0 0 0 0 127 0"/>
<feOffset dy="4"/>
<feGaussianBlur stdDeviation="2"/>
<feColorMatrix type="matrix" values="0 0 0 0 0 0 0 0 0 0 0 0 0 0 0 0 0 0 0.25 0"/>
<feBlend mode="normal" in2="BackgroundImageFix" result="effect1_dropShadow"/>
<feBlend mode="normal" in="SourceGraphic" in2="effect1_dropShadow" result="shape"/>
</filter>
<filter id="filter1_dd" x="4.93596" y="0.713516" width="22.6518" height="19.0179" filterUnits="userSpaceOnUse" color-interpolation-filters="sRGB">
<feFlood flood-opacity="0" result="BackgroundImageFix"/>
<feColorMatrix in="SourceAlpha" type="matrix" values="0 0 0 0 0 0 0 0 0 0 0 0 0 0 0 0 0 0 127 0"/>
<feOffset dy="4"/>
<feGaussianBlur stdDeviation="2"/>
<feColorMatrix type="matrix" values="0 0 0 0 0 0 0 0 0 0 0 0 0 0 0 0 0 0 0.25 0"/>
<feBlend mode="normal" in2="BackgroundImageFix" result="effect1_dropShadow"/>
<feColorMatrix in="SourceAlpha" type="matrix" values="0 0 0 0 0 0 0 0 0 0 0 0 0 0 0 0 0 0 127 0"/>
<feOffset dy="4"/>
<feGaussianBlur stdDeviation="2"/>
<feColorMatrix type="matrix" values="0 0 0 0 0 0 0 0 0 0 0 0 0 0 0 0 0 0 0.25 0"/>
<feBlend mode="normal" in2="effect1_dropShadow" result="effect2_dropShadow"/>
<feBlend mode="normal" in="SourceGraphic" in2="effect2_dropShadow" result="shape"/>
</filter>
</defs>
</svg>
