<svg width="214" height="206" viewBox="0 0 214 206" fill="none" xmlns="http://www.w3.org/2000/svg">
<rect width="214" height="206" fill="#E5E5E5"/>
<g id="Group">
<path id="Vector" d="M213.664 102.576C213.664 105.94 213.494 109.291 213.154 112.63C212.801 115.969 212.291 119.295 211.611 122.584C210.932 125.885 210.082 129.136 209.062 132.349C208.042 135.563 206.866 138.726 205.532 141.826C204.186 144.926 202.696 147.964 201.048 150.926C199.401 153.889 197.597 156.776 195.662 159.562C193.714 162.361 191.636 165.047 189.413 167.646C187.191 170.244 184.851 172.729 182.367 175.102C179.896 177.486 177.308 179.733 174.602 181.867C171.896 184.001 169.098 185.997 166.183 187.867C163.281 189.725 160.274 191.457 157.189 193.039C154.104 194.62 150.94 196.051 147.711 197.344C144.482 198.624 141.188 199.754 137.841 200.733C134.494 201.712 131.108 202.528 127.67 203.181C124.245 203.833 120.781 204.323 117.303 204.662C113.826 204.988 110.335 205.151 106.832 205.151C103.328 205.151 99.8379 204.988 96.3605 204.662C92.8831 204.323 89.4188 203.833 85.9937 203.181C82.5555 202.528 79.1696 201.712 75.8229 200.733C72.4763 199.754 69.1819 198.624 65.9529 197.344C62.7108 196.051 59.5602 194.62 56.475 193.039C53.3898 191.457 50.383 189.725 47.4808 187.867C44.5656 185.997 41.768 184.001 39.0619 181.867C36.3558 179.733 33.7673 177.486 31.2835 175.102C28.8127 172.729 26.4727 170.244 24.2503 167.646C22.0279 165.047 19.9493 162.361 18.0014 159.562C16.0535 156.776 14.2626 153.889 12.6154 150.926C10.9682 147.964 9.46479 144.926 8.13135 141.826C6.79792 138.726 5.60828 135.563 4.60167 132.349C3.58198 129.136 2.73224 125.885 2.05245 122.584C1.37265 119.295 0.849738 115.969 0.509841 112.63C0.169946 109.291 0 105.94 0 102.576C0 99.2117 0.169946 95.8603 0.509841 92.5214C0.849738 89.1826 1.37265 85.8563 2.05245 82.5676C2.73224 79.2664 3.58198 76.0154 4.60167 72.8021C5.60828 69.5888 6.79792 66.4256 8.13135 63.3253C9.46479 60.2123 10.9682 57.1873 12.6154 54.225C14.2626 51.2627 16.0535 48.3757 18.0014 45.5892C19.9493 42.7901 22.0279 40.1039 24.2503 37.5056C26.4727 34.9073 28.8127 32.422 31.2835 30.0371C33.7673 27.6648 36.3558 25.418 39.0619 23.2841C41.768 21.1503 44.5656 19.1545 47.4808 17.2842C50.383 15.414 53.3898 13.6943 56.475 12.1128C59.5602 10.5312 62.7108 9.08771 65.9529 7.80739C69.1819 6.52708 72.4763 5.38484 75.8229 4.41833C79.1696 3.43927 82.5555 2.62338 85.9937 1.97068C89.4188 1.31797 92.8831 0.815884 96.3605 0.489528C99.8379 0.163176 103.328 0 106.832 0C110.335 0 113.826 0.163176 117.303 0.489528C120.781 0.815884 124.245 1.31797 127.67 1.97068C131.108 2.62338 134.494 3.43927 137.841 4.41833C141.188 5.38484 144.482 6.52708 147.711 7.80739C150.94 9.08771 154.104 10.5312 157.189 12.1128C160.274 13.6943 163.281 15.414 166.183 17.2842C169.098 19.1545 171.896 21.1503 174.602 23.2841C177.308 25.418 179.896 27.6648 182.367 30.0371C184.851 32.422 187.191 34.9073 189.413 37.5056C191.636 40.1039 193.714 42.7901 195.662 45.5892C197.597 48.3757 199.401 51.2627 201.048 54.225C202.696 57.1873 204.186 60.2123 205.532 63.3253C206.866 66.4256 208.042 69.5888 209.062 72.8021C210.082 76.0154 210.932 79.2664 211.611 82.5676C212.291 85.8563 212.801 89.1826 213.154 92.5214C213.494 95.8603 213.664 99.2117 213.664 102.576Z" fill="#232832"/>
<path id="Vector_2" d="M6.78478 138.575V138.412H16.681V147.926H11.0073C11.1119 148.14 11.2296 148.341 11.3342 148.554H16.681V157.591C16.9294 157.968 17.1778 158.332 17.4261 158.709H27.2439V168.21H24.747C24.93 168.424 25.1261 168.625 25.3091 168.851H27.2439V170.997C27.4661 171.223 27.6884 171.474 27.9106 171.7V168.851H37.8068V178.353H34.8393C35.0746 178.566 35.323 178.779 35.5713 178.993H37.8068V180.85C38.0291 181.026 38.2513 181.214 38.4735 181.403V178.993H48.3828V188.419C48.7619 188.658 49.141 188.896 49.5332 189.135H58.9326V194.269C59.1549 194.369 59.3771 194.482 59.5994 194.582V189.135H69.4956V198.637H69.3256C69.94 198.863 70.5414 199.063 71.1558 199.277H80.0585V201.913C80.2807 201.963 80.503 202.001 80.7252 202.051V199.277H90.6345V203.984C90.8436 204.009 91.0659 204.034 91.2881 204.059V199.277H101.184V205.013C101.407 205.026 101.629 205.026 101.851 205.038V199.277H111.8V205.038C112.022 205.026 112.244 205.026 112.466 205.013V199.277H122.376V204.059C122.585 204.034 122.807 204.009 123.029 203.984V199.277H132.938V202.051C133.148 202.001 133.37 201.963 133.592 201.913V199.277H142.508C143.109 199.063 143.724 198.863 144.325 198.637H144.155V189.135H154.064V194.582C154.286 194.482 154.509 194.369 154.718 194.269V189.135H164.13C164.51 188.896 164.902 188.658 165.281 188.419V178.993H175.19V181.39C175.412 181.214 175.621 181.026 175.844 180.85V178.993H178.079C178.328 178.779 178.589 178.566 178.824 178.353H175.844V168.851H185.753V171.7C185.975 171.474 186.197 171.223 186.407 170.997V168.851H188.355C188.538 168.637 188.734 168.424 188.917 168.21H186.407V158.709H196.237C196.486 158.332 196.734 157.968 196.983 157.591V148.554H202.329C202.434 148.353 202.552 148.14 202.656 147.926H196.983V138.412H206.879V138.575C207.101 137.998 207.323 137.42 207.546 136.83V128.27H210.278C210.343 128.069 210.382 127.856 210.435 127.642H207.546V118.128H212.448C212.474 117.914 212.5 117.701 212.526 117.5H207.546V107.986H213.52C213.533 107.772 213.533 107.571 213.546 107.358H207.546V97.7933H213.546C213.533 97.5799 213.533 97.3665 213.52 97.1531H207.546V87.6512H212.526C212.5 87.4378 212.474 87.2244 212.448 87.011H207.546V77.5091H210.435C210.382 77.2957 210.343 77.0823 210.278 76.869H207.546V68.321C207.323 67.731 207.114 67.1411 206.879 66.5637V66.7269H196.983V57.2249H202.656C202.552 57.0116 202.434 56.7982 202.329 56.5848H196.983V47.5598C196.734 47.1833 196.486 46.8193 196.237 46.4427H186.407V36.9408H188.917C188.734 36.7274 188.538 36.514 188.355 36.3006H186.407V34.1542C186.197 33.9283 185.975 33.6772 185.753 33.4513V36.3132H175.844V26.7987H178.824C178.589 26.5853 178.328 26.3845 178.079 26.1711H175.844V24.3008C175.621 24.1251 175.412 23.9368 175.19 23.7611V26.1711H165.281V16.7319C164.902 16.4934 164.51 16.2549 164.13 16.0165H154.718V10.8952C154.509 10.7822 154.286 10.6693 154.064 10.5689V16.0165H144.155V6.51453H144.325C143.724 6.30114 143.109 6.08776 142.508 5.87438H133.592V3.25099C133.383 3.18823 133.161 3.15057 132.938 3.10036V5.87438H123.029V1.16734C122.807 1.14224 122.585 1.11714 122.376 1.09203V5.87438H112.466V0.138074C112.244 0.125519 112.035 0.125519 111.813 0.125519V5.87438H101.851V0.125519C101.629 0.125519 101.407 0.125519 101.197 0.138074V5.87438H91.2881V1.09203C91.0659 1.11714 90.8436 1.14224 90.6345 1.16734V5.87438H80.7252V3.10036C80.503 3.15057 80.2807 3.18823 80.0716 3.25099V5.87438H71.1558C70.5414 6.08776 69.94 6.30114 69.3387 6.51453H69.5086V16.0165H59.5994V10.5689C59.3771 10.6693 59.168 10.7822 58.9457 10.8827V16.0165H49.5332C49.1541 16.2549 48.7619 16.4934 48.3828 16.7319V26.1585H38.4735V23.7611C38.2513 23.9368 38.0421 24.1251 37.8199 24.3008V26.1585H35.5713C35.336 26.3719 35.0746 26.5853 34.8393 26.7987H37.8199V36.3006H27.9106V33.4513C27.6884 33.6772 27.4661 33.9157 27.257 34.1542V36.3132H25.3091C25.1261 36.5266 24.93 36.7274 24.747 36.9408H27.257V46.4553H17.4261C17.1778 46.8193 16.9294 47.1833 16.681 47.5598V56.5973H11.3342C11.2296 56.8107 11.1119 57.0116 11.0073 57.2249H16.681V66.7394H6.78478V66.5637C6.56254 67.1536 6.34031 67.731 6.11807 68.321V76.8815H3.38583C3.32046 77.0823 3.28124 77.2957 3.22895 77.5091H6.11807V87.0236H1.21572C1.18958 87.2244 1.16343 87.4378 1.13728 87.6512H6.11807V97.1657H0.143745C0.130669 97.3665 0.130669 97.5799 0.130669 97.7933H6.11807V107.358H0.130669C0.130669 107.571 0.130669 107.785 0.143745 107.986H6.11807V117.5H1.13728C1.16343 117.713 1.18958 117.927 1.21572 118.128H6.11807V127.642H3.22895C3.28124 127.856 3.32046 128.069 3.38583 128.27H6.11807V136.83C6.34031 137.408 6.56254 137.998 6.78478 138.575ZM6.78478 137.784V128.27H16.681V137.784H6.78478ZM111.813 57.2249V66.7394H101.851V57.2249H111.813ZM101.851 56.5973V47.0829H111.813V56.5973H101.851ZM154.064 107.358H144.155V97.7933H154.064V107.358ZM154.718 97.7933H164.627V107.358H154.718V97.7933ZM101.851 147.926V138.412H111.813V147.926H101.851ZM111.813 148.554V158.068H101.851V148.554H111.813ZM111.813 87.6512V97.1657H101.851V87.6512H111.813ZM101.851 87.0236V77.5091H111.813V87.0236H101.851ZM122.376 107.358H112.466V97.7933H122.376V107.358ZM123.029 97.7933H132.938V107.358H123.029V97.7933ZM101.851 117.5V107.986H111.813V117.5H101.851ZM111.813 118.128V127.642H101.851V118.128H111.813ZM101.197 117.5H91.2881V107.986H101.197V117.5ZM101.851 107.358V97.7933H111.813V107.358H101.851ZM112.466 107.986H122.376V117.5H112.466V107.986ZM112.466 97.1657V87.6512H122.376V97.1657H112.466ZM101.197 97.1657H91.2881V87.6512H101.197V97.1657ZM101.197 97.7933V107.358H91.2881V97.7933H101.197ZM90.6345 107.358H80.7252V97.7933H90.6345V107.358ZM90.6345 107.986V117.5H80.7252V107.986H90.6345ZM90.6345 118.128V127.642H80.7252V118.128H90.6345ZM91.2881 118.128H101.197V127.642H91.2881V118.128ZM101.197 128.27V137.784H91.2881V128.27H101.197ZM101.851 128.27H111.813V137.784H101.851V128.27ZM112.466 128.27H122.376V137.784H112.466V128.27ZM112.466 127.642V118.128H122.376V127.642H112.466ZM123.029 118.128H132.938V127.642H123.029V118.128ZM123.029 117.5V107.986H132.938V117.5H123.029ZM133.592 107.986H143.501V117.5H133.592V107.986ZM133.592 107.358V97.7933H143.501V107.358H133.592ZM133.592 97.1657V87.6512H143.501V97.1657H133.592ZM132.938 97.1657H123.029V87.6512H132.938V97.1657ZM123.029 87.0236V77.5091H132.938V87.0236H123.029ZM122.376 87.0236H112.466V77.5091H122.376V87.0236ZM112.466 76.8815V67.367H122.376V76.8815H112.466ZM111.813 76.8815H101.851V67.367H111.813V76.8815ZM101.197 76.8815H91.2881V67.367H101.197V76.8815ZM101.197 77.5091V87.0236H91.2881V77.5091H101.197ZM90.6345 87.0236H80.7252V77.5091H90.6345V87.0236ZM90.6345 87.6512V97.1657H80.7252V87.6512H90.6345ZM80.0716 97.1657H70.1623V87.6512H80.0716V97.1657ZM80.0716 97.7933V107.358H70.1623V97.7933H80.0716ZM80.0716 107.986V117.5H70.1623V107.986H80.0716ZM69.5086 117.5H59.5994V107.986H69.5086V117.5ZM69.5086 118.128V127.642H59.5994V118.128H69.5086ZM70.1623 118.128H80.0716V127.642H70.1623V118.128ZM80.0716 128.27V137.784H70.1623V128.27H80.0716ZM80.7252 128.27H90.6345V137.784H80.7252V128.27ZM90.6345 138.412V147.926H80.7252V138.412H90.6345ZM91.2881 138.412H101.197V147.926H91.2881V138.412ZM112.466 138.412H122.376V147.926H112.466V138.412ZM123.029 138.412H132.938V147.926H123.029V138.412ZM123.029 137.784V128.27H132.938V137.784H123.029ZM133.592 128.27H143.501V137.784H133.592V128.27ZM133.592 127.642V118.128H143.501V127.642H133.592ZM144.155 118.128H154.064V127.642H144.155V118.128ZM144.155 117.5V107.986H154.064V117.5H144.155ZM144.155 97.1657V87.6512H154.064V97.1657H144.155ZM144.155 87.0236V77.5091H154.064V87.0236H144.155ZM143.501 87.0236H133.592V77.5091H143.501V87.0236ZM133.592 76.8815V67.367H143.501V76.8815H133.592ZM132.938 76.8815H123.029V67.367H132.938V76.8815ZM123.029 66.7394V57.2249H132.938V66.7394H123.029ZM122.376 66.7394H112.466V57.2249H122.376V66.7394ZM101.197 66.7394H91.2881V57.2249H101.197V66.7394ZM90.6345 66.7394H80.7252V57.2249H90.6345V66.7394ZM90.6345 67.367V76.8815H80.7252V67.367H90.6345ZM80.0716 76.8815H70.1623V67.367H80.0716V76.8815ZM80.0716 77.5091V87.0236H70.1623V77.5091H80.0716ZM69.5086 87.0236H59.5994V77.5091H69.5086V87.0236ZM69.5086 87.6512V97.1657H59.5994V87.6512H69.5086ZM69.5086 97.7933V107.358H59.5994V97.7933H69.5086ZM58.9457 107.358H49.0364V97.7933H58.9457V107.358ZM58.9457 107.986V117.5H49.0364V107.986H58.9457ZM58.9457 118.128V127.642H49.0364V118.128H58.9457ZM58.9457 128.27V137.784H49.0364V128.27H58.9457ZM59.5994 128.27H69.5086V137.784H59.5994V128.27ZM69.5086 138.412V147.926H59.5994V138.412H69.5086ZM70.1623 138.412H80.0716V147.926H70.1623V138.412ZM80.0716 148.554V158.068H70.1623V148.554H80.0716ZM80.7252 148.554H90.6345V158.068H80.7252V148.554ZM91.2881 148.554H101.197V158.068H91.2881V148.554ZM101.197 158.696V168.21H91.2881V158.696H101.197ZM101.851 158.696H111.813V168.21H101.851V158.696ZM112.466 158.696H122.376V168.21H112.466V158.696ZM112.466 158.068V148.554H122.376V158.068H112.466ZM123.029 148.554H132.938V158.068H123.029V148.554ZM133.592 148.554H143.501V158.068H133.592V148.554ZM133.592 147.926V138.412H143.501V147.926H133.592ZM144.155 138.412H154.064V147.926H144.155V138.412ZM144.155 137.784V128.27H154.064V137.784H144.155ZM154.718 128.27H164.627V137.784H154.718V128.27ZM154.718 127.642V118.128H164.627V127.642H154.718ZM154.718 117.5V107.986H164.627V117.5H154.718ZM165.281 107.986H175.19V117.5H165.281V107.986ZM165.281 107.358V97.7933H175.19V107.358H165.281ZM165.281 97.1657V87.6512H175.19V97.1657H165.281ZM164.627 97.1657H154.718V87.6512H164.627V97.1657ZM154.718 87.0236V77.5091H164.627V87.0236H154.718ZM154.718 76.8815V67.367H164.627V76.8815H154.718ZM154.064 76.8815H144.155V67.367H154.064V76.8815ZM144.155 66.7394V57.2249H154.064V66.7394H144.155ZM143.501 66.7394H133.592V57.2249H143.501V66.7394ZM133.592 56.5973V47.0829H143.501V56.5973H133.592ZM132.938 56.5973H123.029V47.0829H132.938V56.5973ZM122.376 56.5973H112.466V47.0829H122.376V56.5973ZM112.466 46.4553V36.9408H122.376V46.4553H112.466ZM111.813 46.4553H101.851V36.9408H111.813V46.4553ZM101.197 46.4553H91.2881V36.9408H101.197V46.4553ZM101.197 47.0829V56.5973H91.2881V47.0829H101.197ZM90.6345 56.5973H80.7252V47.0829H90.6345V56.5973ZM80.0716 56.5973H70.1623V47.0829H80.0716V56.5973ZM80.0716 57.2249V66.7394H70.1623V57.2249H80.0716ZM69.5086 66.7394H59.5994V57.2249H69.5086V66.7394ZM69.5086 67.367V76.8815H59.5994V67.367H69.5086ZM58.9457 76.8815H49.0364V67.367H58.9457V76.8815ZM58.9457 77.5091V87.0236H49.0364V77.5091H58.9457ZM58.9457 87.6512V97.1657H49.0364V87.6512H58.9457ZM48.3828 97.1657H38.4735V87.6512H48.3828V97.1657ZM48.3828 97.7933V107.358H38.4735V97.7933H48.3828ZM48.3828 107.986V117.5H38.4735V107.986H48.3828ZM48.3828 118.128V127.642H38.4735V118.128H48.3828ZM48.3828 128.27V137.784H38.4735V128.27H48.3828ZM48.3828 138.412V147.926H38.4735V138.412H48.3828ZM49.0364 138.412H58.9457V147.926H49.0364V138.412ZM58.9457 148.554V158.068H49.0364V148.554H58.9457ZM59.5994 148.554H69.5086V158.068H59.5994V148.554ZM69.5086 158.696V168.21H59.5994V158.696H69.5086ZM70.1623 158.696H80.0716V168.21H70.1623V158.696ZM80.7252 158.696H90.6345V168.21H80.7252V158.696ZM90.6345 168.838V178.353H80.7252V168.838H90.6345ZM91.2881 168.838H101.197V178.353H91.2881V168.838ZM101.851 168.838H111.813V178.353H101.851V168.838ZM112.466 168.838H122.376V178.353H112.466V168.838ZM123.029 168.838H132.938V178.353H123.029V168.838ZM123.029 168.21V158.696H132.938V168.21H123.029ZM133.592 158.696H143.501V168.21H133.592V158.696ZM144.155 158.696H154.064V168.21H144.155V158.696ZM144.155 158.068V148.554H154.064V158.068H144.155ZM154.718 148.554H164.627V158.068H154.718V148.554ZM154.718 147.926V138.412H164.627V147.926H154.718ZM165.281 138.412H175.19V147.926H165.281V138.412ZM165.281 137.784V128.27H175.19V137.784H165.281ZM165.281 127.642V118.128H175.19V127.642H165.281ZM175.844 118.128H185.753V127.642H175.844V118.128ZM175.844 117.5V107.986H185.753V117.5H175.844ZM175.844 107.358V97.7933H185.753V107.358H175.844ZM175.844 97.1657V87.6512H185.753V97.1657H175.844ZM175.844 87.0236V77.5091H185.753V87.0236H175.844ZM175.19 87.0236H165.281V77.5091H175.19V87.0236ZM165.281 76.8815V67.367H175.19V76.8815H165.281ZM165.281 66.7394V57.2249H175.19V66.7394H165.281ZM164.627 66.7394H154.718V57.2249H164.627V66.7394ZM154.718 56.5973V47.0829H164.627V56.5973H154.718ZM154.064 56.5973H144.155V47.0829H154.064V56.5973ZM144.155 46.4553V36.9408H154.064V46.4553H144.155ZM143.501 46.4553H133.592V36.9408H143.501V46.4553ZM132.938 46.4553H123.029V36.9408H132.938V46.4553ZM123.029 36.3132V26.7987H132.938V36.3132H123.029ZM122.376 36.3132H112.466V26.7987H122.376V36.3132ZM111.813 36.3132H101.851V26.7987H111.813V36.3132ZM101.197 36.3132H91.2881V26.7987H101.197V36.3132ZM90.6345 36.3132H80.7252V26.7987H90.6345V36.3132ZM90.6345 36.9408V46.4553H80.7252V36.9408H90.6345ZM80.0716 46.4553H70.1623V36.9408H80.0716V46.4553ZM69.5086 46.4553H59.5994V36.9408H69.5086V46.4553ZM69.5086 47.0829V56.5973H59.5994V47.0829H69.5086ZM58.9457 56.5973H49.0364V47.0829H58.9457V56.5973ZM58.9457 57.2249V66.7394H49.0364V57.2249H58.9457ZM48.3828 66.7394H38.4735V57.2249H48.3828V66.7394ZM48.3828 67.367V76.8815H38.4735V67.367H48.3828ZM48.3828 77.5091V87.0236H38.4735V77.5091H48.3828ZM37.8199 87.0236H27.9106V77.5091H37.8199V87.0236ZM37.8199 87.6512V97.1657H27.9106V87.6512H37.8199ZM37.8199 97.7933V107.358H27.9106V97.7933H37.8199ZM37.8199 107.986V117.5H27.9106V107.986H37.8199ZM37.8199 118.128V127.642H27.9106V118.128H37.8199ZM37.8199 128.27V137.784H27.9106V128.27H37.8199ZM37.8199 138.412V147.926H27.9106V138.412H37.8199ZM37.8199 148.554V158.068H27.9106V148.554H37.8199ZM38.4735 148.554H48.3828V158.068H38.4735V148.554ZM48.3828 158.696V168.21H38.4735V158.696H48.3828ZM49.0364 158.696H58.9457V168.21H49.0364V158.696ZM58.9457 168.838V178.353H49.0364V168.838H58.9457ZM59.5994 168.838H69.5086V178.353H59.5994V168.838ZM70.1623 168.838H80.0716V178.353H70.1623V168.838ZM80.0716 178.98V188.495H70.1623V178.98H80.0716ZM80.7252 178.98H90.6345V188.495H80.7252V178.98ZM91.2881 178.98H101.197V188.495H91.2881V178.98ZM101.851 178.98H111.813V188.495H101.851V178.98ZM112.466 178.98H122.376V188.495H112.466V178.98ZM123.029 178.98H132.938V188.495H123.029V178.98ZM133.592 178.98H143.501V188.495H133.592V178.98ZM133.592 178.353V168.838H143.501V178.353H133.592ZM144.155 168.838H154.064V178.353H144.155V168.838ZM154.718 168.838H164.627V178.353H154.718V168.838ZM154.718 168.21V158.696H164.627V168.21H154.718ZM165.281 158.696H175.19V168.21H165.281V158.696ZM165.281 158.068V148.554H175.19V158.068H165.281ZM175.844 148.554H185.753V158.068H175.844V148.554ZM175.844 147.926V138.412H185.753V147.926H175.844ZM175.844 137.784V128.27H185.753V137.784H175.844ZM186.407 128.27H196.316V137.784H186.407V128.27ZM186.407 127.642V118.128H196.316V127.642H186.407ZM186.407 117.5V107.986H196.316V117.5H186.407ZM186.407 107.358V97.7933H196.316V107.358H186.407ZM186.407 97.1657V87.6512H196.316V97.1657H186.407ZM186.407 87.0236V77.5091H196.316V87.0236H186.407ZM186.407 76.8815V67.367H196.316V76.8815H186.407ZM185.753 76.8815H175.844V67.367H185.753V76.8815ZM175.844 66.7394V57.2249H185.753V66.7394H175.844ZM175.844 56.5973V47.0829H185.753V56.5973H175.844ZM175.19 56.5973H165.281V47.0829H175.19V56.5973ZM165.281 46.4553V36.9408H175.19V46.4553H165.281ZM164.627 46.4553H154.718V36.9408H164.627V46.4553ZM154.718 36.3132V26.7987H164.627V36.3132H154.718ZM154.064 36.3132H144.155V26.7987H154.064V36.3132ZM143.501 36.3132H133.592V26.7987H143.501V36.3132ZM133.592 26.1711V16.6566H143.501V26.1711H133.592ZM132.938 26.1711H123.029V16.6566H132.938V26.1711ZM122.376 26.1711H112.466V16.6566H122.376V26.1711ZM111.813 26.1711H101.851V16.6566H111.813V26.1711ZM101.197 26.1711H91.2881V16.6566H101.197V26.1711ZM90.6345 26.1711H80.7252V16.6566H90.6345V26.1711ZM80.0716 26.1711H70.1623V16.6566H80.0716V26.1711ZM80.0716 26.7987V36.3132H70.1623V26.7987H80.0716ZM69.5086 36.3132H59.5994V26.7987H69.5086V36.3132ZM58.9457 36.3132H49.0364V26.7987H58.9457V36.3132ZM58.9457 36.9408V46.4553H49.0364V36.9408H58.9457ZM48.3828 46.4553H38.4735V36.9408H48.3828V46.4553ZM48.3828 47.0829V56.5973H38.4735V47.0829H48.3828ZM37.8199 56.5973H27.9106V47.0829H37.8199V56.5973ZM37.8199 57.2249V66.7394H27.9106V57.2249H37.8199ZM37.8199 67.367V76.8815H27.9106V67.367H37.8199ZM27.257 76.8815H17.3477V67.367H27.257V76.8815ZM27.257 77.5091V87.0236H17.3477V77.5091H27.257ZM27.257 87.6512V97.1657H17.3477V87.6512H27.257ZM27.257 97.7933V107.358H17.3477V97.7933H27.257ZM27.257 107.986V117.5H17.3477V107.986H27.257ZM27.257 118.128V127.642H17.3477V118.128H27.257ZM27.257 128.27V137.784H17.3477V128.27H27.257ZM17.3477 138.412H27.257V147.926H17.3477V138.412ZM17.3477 158.068V148.554H27.257V158.068H17.3477ZM27.9106 168.21V158.696H37.8199V168.21H27.9106ZM38.4735 178.353V168.838H48.3828V178.353H38.4735ZM49.0364 188.495V178.98H58.9457V188.495H49.0364ZM59.5994 188.495V178.98H69.5086V188.495H59.5994ZM70.1623 198.637V189.122H80.0716V198.637H70.1623ZM80.7252 198.637V189.122H90.6345V198.637H80.7252ZM91.2881 198.637V189.122H101.197V198.637H91.2881ZM101.851 198.637V189.122H111.813V198.637H101.851ZM112.466 198.637V189.122H122.376V198.637H112.466ZM123.029 198.637V189.122H132.938V198.637H123.029ZM143.501 198.637H133.592V189.122H143.501V198.637ZM144.155 188.495V178.98H154.064V188.495H144.155ZM164.627 188.495H154.718V178.98H164.627V188.495ZM175.19 178.353H165.281V168.838H175.19V178.353ZM185.753 168.21H175.844V158.696H185.753V168.21ZM196.316 158.068H186.407V148.554H196.316V158.068ZM196.316 147.926H186.407V138.412H196.316V147.926ZM206.879 137.784H196.97V128.27H206.879V137.784ZM206.879 127.642H196.97V118.128H206.879V127.642ZM206.879 117.5H196.97V107.986H206.879V117.5ZM206.879 107.358H196.97V97.7933H206.879V107.358ZM206.879 97.1657H196.97V87.6512H206.879V97.1657ZM206.879 87.0236H196.97V77.5091H206.879V87.0236ZM206.879 67.367V76.8815H196.97V67.367H206.879ZM196.316 66.7394H186.407V57.2249H196.316V66.7394ZM196.316 47.0829V56.5973H186.407V47.0829H196.316ZM185.753 36.9408V46.4553H175.844V36.9408H185.753ZM175.19 26.7987V36.3132H165.281V26.7987H175.19ZM164.627 16.6566V26.1711H154.718V16.6566H164.627ZM154.064 16.6566V26.1711H144.155V16.6566H154.064ZM143.501 6.51453V16.0165H133.592V6.51453H143.501ZM132.938 6.51453V16.0165H123.029V6.51453H132.938ZM122.376 6.51453V16.0165H112.466V6.51453H122.376ZM111.813 6.51453V16.0165H101.851V6.51453H111.813ZM101.197 6.51453V16.0165H91.2881V6.51453H101.197ZM90.6345 6.51453V16.0165H80.7252V6.51453H90.6345ZM70.1623 6.51453H80.0716V16.0165H70.1623V6.51453ZM69.5086 16.6566V26.1711H59.5994V16.6566H69.5086ZM49.0364 16.6566H58.9457V26.1711H49.0364V16.6566ZM38.4735 26.7987H48.3828V36.3132H38.4735V26.7987ZM27.9106 36.9408H37.8199V46.4553H27.9106V36.9408ZM17.3477 47.0829H27.257V56.5973H17.3477V47.0829ZM17.3477 57.2249H27.257V66.7394H17.3477V57.2249ZM6.78478 67.367H16.681V76.8815H6.78478V67.367ZM6.78478 77.5091H16.681V87.0236H6.78478V77.5091ZM6.78478 87.6512H16.681V97.1657H6.78478V87.6512ZM6.78478 97.7933H16.681V107.358H6.78478V97.7933ZM6.78478 107.986H16.681V117.5H6.78478V107.986ZM6.78478 118.128H16.681V127.642H6.78478V118.128Z" fill="#3E4959"/>
</g>
<path id="Vector_3" d="M16.6288 56.635H17.4001V108.186H16.6288V56.635Z" fill="white"/>
<path id="Candle2" d="M13.1906 61.6433H20.8382V90.9524H13.1906V61.6433Z" fill="#D550D8"/>
<path id="Vector_4" d="M27.1917 94.5423H27.963V131.006H27.1917V94.5423Z" fill="white"/>
<path id="Candle3" d="M23.7535 101.22H31.4011V119.069H23.7535V101.22Z" fill="#00E8C9"/>
<path id="Vector_5" d="M37.7677 123.324H38.5259V141.073H37.7677V123.324Z" fill="white"/>
<path id="Candle4" d="M34.3164 125.257H41.9641V138.261H34.3164V125.257Z" fill="#00E8C0"/>
<path id="Vector_6" d="M48.3175 125.257H49.0888V130.466H48.3175V125.257Z" fill="white"/>
<path id="Candle6" d="M44.8924 126.487H52.527V128.42H44.8924V126.487Z" fill="#00E8C9"/>
<path id="Vector_7" d="M58.8935 126.487H59.6517V175.955H58.8935V126.487Z" fill="white"/>
<path id="Candle7" d="M55.4553 128.621H63.0899V158.031H55.4553V128.621Z" fill="#00E8C9"/>
<path id="Vector_8" d="M69.4564 155.131H70.2146V172.792H69.4564V155.131Z" fill="white"/>
<path id="Candle8" d="M66.0182 156.349H73.6528V160.855H66.0182V156.349Z" fill="#00E8C9"/>
<path id="Vector_9" d="M80.0062 144.211H80.7775V167.432H80.0062V144.211Z" fill="white"/>
<path id="Candle9" d="M76.5811 150.863H84.2157V163.39H76.5811V150.863Z" fill="#D550D8"/>
<path id="Vector_10" d="M90.5822 65.8733H91.3405V158.96H90.5822V65.8733Z" fill="white"/>
<path id="Candle10" d="M87.1441 102.074H94.7786V158.658H87.1441V102.074Z" fill="#D550D8"/>
<path id="Vector_11" d="M101.145 75.0991H101.903V127.994H101.145V75.0991Z" fill="white"/>
<path id="Candle11" d="M97.707 78.3501H105.342V123.161H97.707V78.3501Z" fill="#D550D8"/>
<path id="Vector_12" d="M111.76 98.1196H112.532V124.479H111.76V98.1196Z" fill="white"/>
<path id="Candle12" d="M108.322 98.1196H115.957V112.529H108.322V98.1196Z" fill="#00E8C9"/>
<path id="Vector_13" d="M122.31 100.316H123.082V123.174H122.31V100.316Z" fill="white"/>
<path id="Candle13" d="M118.885 102.074H126.52V120.525H118.885V102.074Z" fill="#00E8C9"/>
<path id="Vector_14" d="M132.886 74.3083H133.644V117.889H132.886V74.3083Z" fill="white"/>
<path id="Candle14" d="M129.448 80.986H137.083V113.32H129.448V80.986Z" fill="#D550D8"/>
<path id="Vector_15" d="M6.06583 93.99H6.83714V133.717H6.06583V93.99Z" fill="white"/>
<path id="Candle1" d="M2.62766 100.818H10.2753V129.751H2.62766V100.818Z" fill="#D550D8"/>
<path id="Vector_16" d="M143.449 66.752H144.207V97.4167H143.449V66.752Z" fill="white"/>
<path id="Candle15" d="M140.011 73.4297H147.646V85.4546H140.011V73.4297Z" fill="#D550D8"/>
<path id="Vector_17" d="M153.999 68.8607H154.77V80.3835H153.999V68.8607Z" fill="white"/>
<path id="Candle16" d="M150.574 71.7603H158.208V78.3501H150.574V71.7603Z" fill="#D550D8"/>
<path id="Vector_18" d="M164.575 41.8235H165.346V86.2705H164.575V41.8235Z" fill="white"/>
<path id="Candle17" d="M161.137 52.2794H168.771V82.7433H161.137V52.2794Z" fill="#D550D8"/>
<path id="Vector_19" d="M175.138 61.6684H175.896V86.9608H175.138V61.6684Z" fill="white"/>
<path id="Candle18" d="M171.7 65.8733H179.334V75.0112H171.7V65.8733Z" fill="#00E8C9"/>
<path id="Vector_20" d="M185.701 83.2705H186.472V93.1867H185.701V83.2705Z" fill="white"/>
<path id="Candle19" d="M182.263 84.9399H189.897V89.421H182.263V84.9399Z" fill="#00E8C9"/>
<path id="Vector_21" d="M196.264 78.3501H197.022V127.956H196.264V78.3501Z" fill="white"/>
<path id="Candle20" d="M192.826 80.1953H200.46V115.454H192.826V80.1953Z" fill="#D550D8"/>
<path id="Vector_22" d="M206.827 54.3882H207.585V97.1531H206.827V54.3882Z" fill="#E6E5E5"/>
<path id="Candle21" d="M203.388 61.6684H211.036V84.2621H203.388V61.6684Z" fill="#D550D8"/>
</svg>
