<svg width="352" height="308" viewBox="0 0 352 308" fill="none" xmlns="http://www.w3.org/2000/svg">
<g id="Group 1">
<g id="Untitled design (4) 1" clip-path="url(#clip0)">
<rect width="352" height="308" fill="white"/>
<path id="Vector" d="M352 0H0V308H352V0Z" fill="white"/>
<path id="Vector_2" d="M352 0H0V308H352V0Z" fill="white"/>
<path id="Vector_3" d="M352 0H0V308H352V0Z" fill="black"/>
<g id="leftWing">
<g id="Group">
<g id="Group_2">
<path id="Vector_4" d="M184.382 160.793C178.549 145.496 163.299 136.953 162.477 136.5C162.475 136.5 162.472 136.5 162.472 136.5C156.859 133.546 140.947 124.28 134.613 116.997C125.715 106.764 119.666 97.5023 115.587 87.8473C114.429 85.1183 113.467 81.7533 112.447 78.19C109.185 66.7889 104.715 51.1751 89.0107 53.6576C80.2074 55.052 73.2307 60.2503 70.349 67.5652C67.7101 74.2698 67.4127 83.2548 69.533 92.2095C71.034 98.5668 73.6425 104.709 77.0526 110.156C75.8836 110.194 74.7181 110.272 73.5785 110.4C68.8774 110.924 64.5532 113.941 62.2904 118.277C60.6505 121.429 60.0354 125.187 60.4656 129.453C61.4406 139.056 67.2168 148.281 76.3189 154.764C78.5743 156.37 80.7935 157.763 82.9895 158.969C85.8672 160.547 88.6868 161.715 91.4923 162.698C91.0078 163.274 90.5112 163.835 90.0909 164.494C88.0105 167.735 86.0531 173.253 88.5444 181.144C90.0639 185.96 93.5737 189.965 98.7385 192.799C99.1507 193.024 99.5713 193.242 100.005 193.452C106.168 196.455 113.427 197.479 119.445 197.201C120.459 201.955 123.231 208.162 130.463 213.431C131.112 213.904 131.78 214.33 132.473 214.709C138.972 218.276 147.299 217.712 156.21 213.037C159.335 211.397 162.094 209.203 164.405 206.518L179.573 188.903C180.024 188.44 190.697 177.368 184.382 160.793ZM170.55 181.455L155.124 199.348C153.746 200.952 152.117 202.252 150.287 203.212C147.122 204.872 141.243 207.231 137.615 204.603C132.742 201.053 131.3 196.951 130.902 194.316C138.455 190.556 147.44 183.462 148.606 182.535C151.088 180.554 151.36 177.017 149.214 174.638C147.068 172.257 143.314 171.934 140.833 173.92C136.265 177.568 127.347 183.911 122.859 185.403C119.466 186.532 111.146 186.36 105.301 183.51C102.419 182.12 100.611 180.296 99.9229 178.127C98.9153 174.928 99.022 172.426 100.252 170.475C102.027 167.661 105.996 166.244 107.766 165.827C114.081 166.144 120.418 165.661 126.975 164.925C130.226 164.561 132.501 161.773 132.055 158.697C131.606 155.619 128.611 153.43 125.358 153.79C106.922 155.858 96.4834 155.206 83.3665 145.862C77.0747 141.379 72.9368 134.924 72.2941 128.592C72.075 126.416 72.3027 124.658 72.9727 123.376C73.4806 122.396 74.4106 121.624 75.1799 121.54C78.2382 121.2 79.2702 121.351 79.6123 121.469C83.6479 122.895 86.0598 124.281 89.4005 126.19C90.8365 127.012 92.3685 127.885 94.1626 128.846C94.2763 128.908 94.3994 128.941 94.5169 128.994C96.1739 130.388 97.7805 131.704 99.2423 132.865C103.105 135.935 106.632 138.56 110.026 140.89C112.686 142.725 116.414 142.198 118.312 139.704C120.209 137.213 119.578 133.703 116.905 131.866C113.744 129.696 110.437 127.236 106.796 124.342C102.217 120.707 96.3237 115.809 91.3538 110.164C86.5483 104.702 82.9153 97.5276 81.1259 89.9582C79.5178 83.1647 79.6559 76.3133 81.4953 71.64C82.9363 67.9894 86.4648 65.465 91.1821 64.718C95.4112 64.0547 97.6172 69.1832 100.977 80.9301C102.042 84.6509 103.142 88.4981 104.558 91.8423C109.117 102.619 115.764 112.842 125.48 124.017C134.564 134.463 155.916 145.783 156.726 146.215C156.849 146.282 168.912 153.153 173.207 164.418C177.018 174.417 171.017 180.953 170.55 181.455Z" fill="white"/>
</g>
</g>
</g>
<g id="rightWing">
<g id="Group_3">
<g id="Group_4">
<path id="Vector_5" d="M184.731 164.566C189.18 148.404 202.941 138.775 203.681 138.265C203.684 138.265 203.686 138.263 203.686 138.263C208.762 134.916 223.1 124.507 228.563 116.634C236.237 105.572 241.295 95.6602 244.479 85.44C245.382 82.5491 246.059 79.0113 246.778 75.2638C249.072 63.2737 252.217 46.8515 267.153 48.6385C275.524 49.6419 282.435 54.6829 285.641 62.1259C288.575 68.9486 289.464 78.255 288.075 87.6496C287.093 94.3202 285.057 100.823 282.219 106.644C283.32 106.626 284.421 106.65 285.503 106.724C289.958 107.03 294.23 109.942 296.648 114.327C298.405 117.515 299.239 121.383 299.12 125.829C298.856 135.839 294.046 145.697 285.929 152.881C283.915 154.66 281.923 156.217 279.941 157.578C277.344 159.36 274.77 160.713 272.199 161.875C272.694 162.449 273.198 163.006 273.64 163.667C275.815 166.924 278.027 172.55 276.221 180.86C275.117 185.933 272.087 190.262 267.422 193.463C267.052 193.716 266.668 193.966 266.276 194.206C260.684 197.63 253.929 199.055 248.251 199.071C247.62 204.052 245.433 210.63 238.99 216.461C238.413 216.981 237.813 217.456 237.188 217.886C231.318 221.913 223.451 221.746 214.755 217.343C211.705 215.801 208.965 213.662 206.608 210.995L191.156 193.483C190.699 193.025 179.915 182.078 184.731 164.566ZM199.137 185.304L214.848 203.089C216.254 204.685 217.873 205.952 219.659 206.855C222.749 208.419 228.433 210.569 231.667 207.662C236.009 203.734 237.088 199.407 237.285 196.653C229.929 193.133 220.999 186.227 219.841 185.32C217.373 183.389 216.879 179.736 218.734 177.16C220.59 174.583 224.1 174.059 226.566 175.994C231.107 179.548 239.922 185.679 244.245 187.002C247.508 188.005 255.321 187.406 260.624 184.158C263.239 182.569 264.817 180.588 265.316 178.303C266.047 174.933 265.778 172.342 264.489 170.381C262.63 167.554 258.802 166.282 257.111 165.939C251.192 166.585 245.202 166.401 238.988 165.967C235.906 165.752 233.58 162.975 233.79 159.762C234.003 156.547 236.673 154.125 239.754 154.335C257.23 155.552 266.999 154.353 278.7 144.002C284.313 139.035 287.768 132.13 287.942 125.529C288.002 123.261 287.667 121.45 286.95 120.152C286.406 119.164 285.482 118.41 284.75 118.359C281.853 118.16 280.892 118.37 280.58 118.508C276.882 120.191 274.706 121.749 271.694 123.897C270.398 124.823 269.019 125.807 267.396 126.894C267.293 126.963 267.179 127.004 267.074 127.064C265.612 128.594 264.188 130.041 262.892 131.318C259.47 134.695 256.331 137.594 253.294 140.184C250.919 142.221 247.379 141.861 245.426 139.37C243.473 136.881 243.827 133.209 246.219 131.168C249.043 128.758 251.985 126.041 255.212 122.855C259.272 118.854 264.482 113.478 268.772 107.371C272.924 101.465 275.853 93.8382 277.022 85.8988C278.076 78.7689 277.481 71.6701 275.437 66.915C273.834 63.2005 270.345 60.7586 265.857 60.2202C261.838 59.7437 260.11 65.174 257.746 77.5298C256.997 81.4426 256.223 85.4882 255.117 89.0287C251.562 100.437 246.002 111.377 237.623 123.455C229.792 134.748 210.478 147.565 209.747 148.055C209.637 148.128 198.759 155.863 195.483 167.762C192.578 178.329 198.661 184.806 199.137 185.304Z" fill="white"/>
</g>
</g>
</g>
</g>
</g>
<defs>
<clipPath id="clip0">
<rect width="352" height="308" fill="white"/>
</clipPath>
</defs>
</svg>
